G04 EAGLE Gerber RS-274X export*
G75*
%MOMM*%
%FSLAX34Y34*%
%LPD*%
%INSilkscreen Top*%
%IPPOS*%
%AMOC8*
5,1,8,0,0,1.08239X$1,22.5*%
G01*
%ADD10C,0.152400*%
%ADD11C,0.406400*%
%ADD12C,0.304800*%
%ADD13C,0.203200*%
%ADD14C,0.101600*%
%ADD15C,0.076200*%
%ADD16C,0.127000*%
%ADD17C,0.050800*%
%ADD18C,0.177800*%
%ADD19C,0.050000*%
%ADD20R,1.016000X1.016000*%
%ADD21C,0.200000*%
%ADD22C,0.720000*%
%ADD23C,0.220000*%
%ADD24C,0.000128*%
%ADD25C,0.100000*%
%ADD26C,0.500000*%

G36*
X2152670Y75442D02*
X2152670Y75442D01*
X2152689Y75440D01*
X2152791Y75462D01*
X2152893Y75479D01*
X2152910Y75488D01*
X2152930Y75492D01*
X2153019Y75545D01*
X2153110Y75594D01*
X2153124Y75608D01*
X2153141Y75618D01*
X2153208Y75697D01*
X2153280Y75772D01*
X2153288Y75790D01*
X2153301Y75805D01*
X2153340Y75901D01*
X2153383Y75995D01*
X2153385Y76015D01*
X2153393Y76033D01*
X2153411Y76200D01*
X2153411Y165100D01*
X2153408Y165120D01*
X2153410Y165139D01*
X2153388Y165241D01*
X2153372Y165343D01*
X2153362Y165360D01*
X2153358Y165380D01*
X2153305Y165469D01*
X2153256Y165560D01*
X2153242Y165574D01*
X2153232Y165591D01*
X2153153Y165658D01*
X2153078Y165730D01*
X2153060Y165738D01*
X2153045Y165751D01*
X2152949Y165790D01*
X2152855Y165833D01*
X2152835Y165835D01*
X2152817Y165843D01*
X2152650Y165861D01*
X2063750Y165861D01*
X2063730Y165858D01*
X2063711Y165860D01*
X2063609Y165838D01*
X2063507Y165822D01*
X2063490Y165812D01*
X2063470Y165808D01*
X2063381Y165755D01*
X2063290Y165706D01*
X2063276Y165692D01*
X2063259Y165682D01*
X2063192Y165603D01*
X2063121Y165528D01*
X2063112Y165510D01*
X2063099Y165495D01*
X2063060Y165399D01*
X2063017Y165305D01*
X2063015Y165285D01*
X2063007Y165267D01*
X2062989Y165100D01*
X2062989Y76200D01*
X2062992Y76180D01*
X2062990Y76161D01*
X2063012Y76059D01*
X2063029Y75957D01*
X2063038Y75940D01*
X2063042Y75920D01*
X2063095Y75831D01*
X2063144Y75740D01*
X2063158Y75726D01*
X2063168Y75709D01*
X2063247Y75642D01*
X2063322Y75571D01*
X2063340Y75562D01*
X2063355Y75549D01*
X2063451Y75510D01*
X2063545Y75467D01*
X2063565Y75465D01*
X2063583Y75457D01*
X2063750Y75439D01*
X2092452Y75439D01*
X2092472Y75442D01*
X2092491Y75440D01*
X2092561Y75455D01*
X2092706Y75439D01*
X2152650Y75439D01*
X2152670Y75442D01*
G37*
%LPC*%
G36*
X2119527Y88286D02*
X2119527Y88286D01*
X2118087Y91886D01*
X2117596Y95812D01*
X2117343Y111011D01*
X2117324Y111115D01*
X2117310Y111221D01*
X2117302Y111236D01*
X2117299Y111253D01*
X2117248Y111346D01*
X2117201Y111441D01*
X2117189Y111453D01*
X2117181Y111468D01*
X2117102Y111540D01*
X2117027Y111615D01*
X2117012Y111623D01*
X2117000Y111635D01*
X2116902Y111678D01*
X2116807Y111725D01*
X2116790Y111728D01*
X2116775Y111734D01*
X2116669Y111744D01*
X2116564Y111759D01*
X2116543Y111756D01*
X2116530Y111757D01*
X2116500Y111750D01*
X2116397Y111737D01*
X2113387Y110984D01*
X2109999Y110500D01*
X2106417Y111216D01*
X2103014Y112918D01*
X2101080Y114369D01*
X2098129Y117319D01*
X2096447Y119964D01*
X2095468Y122901D01*
X2094491Y126563D01*
X2094731Y129685D01*
X2095462Y133096D01*
X2097142Y136455D01*
X2099302Y138615D01*
X2102275Y140845D01*
X2104696Y142298D01*
X2108086Y143266D01*
X2110711Y143505D01*
X2113604Y143023D01*
X2115833Y142280D01*
X2115852Y142277D01*
X2115869Y142269D01*
X2115973Y142257D01*
X2116076Y142241D01*
X2116095Y142244D01*
X2116113Y142242D01*
X2116215Y142264D01*
X2116319Y142281D01*
X2116335Y142290D01*
X2116354Y142294D01*
X2116444Y142348D01*
X2116536Y142397D01*
X2116549Y142411D01*
X2116565Y142420D01*
X2116633Y142500D01*
X2116705Y142576D01*
X2116713Y142593D01*
X2116725Y142607D01*
X2116764Y142704D01*
X2116808Y142799D01*
X2116810Y142818D01*
X2116817Y142835D01*
X2116835Y143002D01*
X2116835Y143455D01*
X2116897Y143527D01*
X2116978Y143621D01*
X2116978Y143622D01*
X2116979Y143623D01*
X2117026Y143740D01*
X2117070Y143849D01*
X2117070Y143850D01*
X2117071Y143851D01*
X2117089Y144018D01*
X2117089Y144019D01*
X2126743Y144019D01*
X2126743Y95250D01*
X2126747Y95227D01*
X2126749Y95202D01*
X2126748Y95192D01*
X2126751Y95176D01*
X2126758Y95101D01*
X2127012Y93831D01*
X2127034Y93770D01*
X2127048Y93707D01*
X2127086Y93632D01*
X2127098Y93600D01*
X2127110Y93586D01*
X2127125Y93558D01*
X2128141Y92034D01*
X2128157Y92017D01*
X2128236Y91918D01*
X2128967Y91186D01*
X2122564Y84782D01*
X2119527Y88286D01*
G37*
%LPD*%
%LPC*%
G36*
X2077965Y91748D02*
X2077965Y91748D01*
X2079337Y93513D01*
X2079377Y93587D01*
X2079425Y93656D01*
X2079441Y93705D01*
X2079455Y93729D01*
X2079460Y93758D01*
X2079479Y93815D01*
X2079987Y96101D01*
X2079989Y96128D01*
X2080000Y96177D01*
X2080508Y100495D01*
X2080507Y100525D01*
X2080513Y100584D01*
X2080513Y144019D01*
X2089659Y144019D01*
X2089659Y98582D01*
X2089161Y92363D01*
X2087960Y88999D01*
X2086268Y86582D01*
X2084668Y84822D01*
X2077965Y91748D01*
G37*
%LPD*%
%LPC*%
G36*
X2117524Y146811D02*
X2117524Y146811D01*
X2116303Y147422D01*
X2115153Y148801D01*
X2113934Y150508D01*
X2113236Y151904D01*
X2112749Y153855D01*
X2112736Y153884D01*
X2112717Y153953D01*
X2112209Y155223D01*
X2112183Y155265D01*
X2112166Y155312D01*
X2112120Y155370D01*
X2112082Y155433D01*
X2112044Y155465D01*
X2112013Y155504D01*
X2111951Y155544D01*
X2111894Y155592D01*
X2111848Y155611D01*
X2111807Y155638D01*
X2111735Y155656D01*
X2111666Y155683D01*
X2111616Y155686D01*
X2111568Y155698D01*
X2111494Y155693D01*
X2111420Y155697D01*
X2111372Y155684D01*
X2111323Y155680D01*
X2111260Y155653D01*
X2111255Y155653D01*
X2111249Y155649D01*
X2111183Y155631D01*
X2111142Y155604D01*
X2111096Y155584D01*
X2111053Y155546D01*
X2111037Y155537D01*
X2111025Y155524D01*
X2110979Y155493D01*
X2110949Y155454D01*
X2110912Y155421D01*
X2110880Y155372D01*
X2110868Y155359D01*
X2110858Y155337D01*
X2110845Y155318D01*
X2110830Y155298D01*
X2110828Y155290D01*
X2110821Y155280D01*
X2110320Y154279D01*
X2109059Y152008D01*
X2109054Y151996D01*
X2109043Y151978D01*
X2106660Y147212D01*
X2105096Y146821D01*
X2102958Y147034D01*
X2101910Y148082D01*
X2100933Y149303D01*
X2099675Y151064D01*
X2099661Y151080D01*
X2099650Y151098D01*
X2099532Y151216D01*
X2098262Y152232D01*
X2098172Y152283D01*
X2098085Y152338D01*
X2098065Y152343D01*
X2098047Y152353D01*
X2097946Y152372D01*
X2097846Y152397D01*
X2097821Y152396D01*
X2097806Y152399D01*
X2097773Y152395D01*
X2097678Y152392D01*
X2095900Y152138D01*
X2095843Y152120D01*
X2095784Y152112D01*
X2095697Y152074D01*
X2095666Y152064D01*
X2095653Y152055D01*
X2095630Y152045D01*
X2093890Y151051D01*
X2092296Y150367D01*
X2090420Y150367D01*
X2090366Y150358D01*
X2090312Y150360D01*
X2090246Y150339D01*
X2090177Y150328D01*
X2090129Y150302D01*
X2090077Y150286D01*
X2090021Y150245D01*
X2089960Y150212D01*
X2089923Y150173D01*
X2089879Y150141D01*
X2089811Y150056D01*
X2089791Y150034D01*
X2089789Y150032D01*
X2089788Y150030D01*
X2089784Y150022D01*
X2089774Y150009D01*
X2088609Y148144D01*
X2086640Y147050D01*
X2083695Y146824D01*
X2081714Y147704D01*
X2080378Y149041D01*
X2079480Y150837D01*
X2079388Y151754D01*
X2079421Y151836D01*
X2079462Y151916D01*
X2079466Y151949D01*
X2079479Y151979D01*
X2079497Y152146D01*
X2079497Y153924D01*
X2080837Y155710D01*
X2082183Y157056D01*
X2083669Y157481D01*
X2085540Y157481D01*
X2087112Y157256D01*
X2088170Y156621D01*
X2089053Y155738D01*
X2089724Y154620D01*
X2089952Y153937D01*
X2089962Y153919D01*
X2089966Y153898D01*
X2090019Y153810D01*
X2090066Y153720D01*
X2090081Y153705D01*
X2090092Y153687D01*
X2090170Y153620D01*
X2090244Y153550D01*
X2090263Y153541D01*
X2090279Y153527D01*
X2090374Y153489D01*
X2090467Y153445D01*
X2090488Y153443D01*
X2090507Y153435D01*
X2090674Y153417D01*
X2091690Y153417D01*
X2091750Y153427D01*
X2091811Y153426D01*
X2091901Y153451D01*
X2091933Y153457D01*
X2091947Y153464D01*
X2091973Y153471D01*
X2093243Y153979D01*
X2093263Y153991D01*
X2093300Y154005D01*
X2094796Y154753D01*
X2096016Y155241D01*
X2097402Y155703D01*
X2098147Y155703D01*
X2099188Y155287D01*
X2100114Y154592D01*
X2101308Y153636D01*
X2102221Y152495D01*
X2102693Y151552D01*
X2102711Y151527D01*
X2102765Y151435D01*
X2103527Y150419D01*
X2103545Y150402D01*
X2103559Y150380D01*
X2103634Y150317D01*
X2103704Y150249D01*
X2103728Y150238D01*
X2103747Y150222D01*
X2103838Y150186D01*
X2103927Y150144D01*
X2103952Y150141D01*
X2103976Y150132D01*
X2104074Y150127D01*
X2104171Y150116D01*
X2104196Y150121D01*
X2104222Y150120D01*
X2104316Y150146D01*
X2104412Y150167D01*
X2104434Y150180D01*
X2104459Y150186D01*
X2104539Y150242D01*
X2104624Y150292D01*
X2104640Y150311D01*
X2104662Y150325D01*
X2104769Y150454D01*
X2105785Y151978D01*
X2105798Y152006D01*
X2105833Y152060D01*
X2107082Y154557D01*
X2108071Y156042D01*
X2109069Y157538D01*
X2109991Y158690D01*
X2110529Y159049D01*
X2111453Y159234D01*
X2111927Y159076D01*
X2112505Y158690D01*
X2113427Y157538D01*
X2114368Y156127D01*
X2114844Y154699D01*
X2114856Y154677D01*
X2114860Y154656D01*
X2114871Y154638D01*
X2114885Y154600D01*
X2115379Y153612D01*
X2115570Y153133D01*
X2115875Y152371D01*
X2115887Y152351D01*
X2115901Y152314D01*
X2116409Y151298D01*
X2116427Y151273D01*
X2116457Y151216D01*
X2116965Y150454D01*
X2116981Y150437D01*
X2117060Y150338D01*
X2117568Y149830D01*
X2117623Y149790D01*
X2117672Y149742D01*
X2117722Y149719D01*
X2117767Y149686D01*
X2117833Y149666D01*
X2117894Y149637D01*
X2117950Y149630D01*
X2118003Y149614D01*
X2118071Y149616D01*
X2118138Y149607D01*
X2118193Y149619D01*
X2118248Y149620D01*
X2118313Y149644D01*
X2118379Y149658D01*
X2118448Y149693D01*
X2118479Y149705D01*
X2118496Y149718D01*
X2118528Y149735D01*
X2119290Y150243D01*
X2119339Y150288D01*
X2119394Y150325D01*
X2119446Y150388D01*
X2119470Y150410D01*
X2119480Y150428D01*
X2119501Y150454D01*
X2120517Y151978D01*
X2120523Y151991D01*
X2120537Y152008D01*
X2121272Y153234D01*
X2122230Y154432D01*
X2123298Y155499D01*
X2124519Y155703D01*
X2126110Y155703D01*
X2127421Y155266D01*
X2128080Y154826D01*
X2129079Y154077D01*
X2129106Y154063D01*
X2129196Y154005D01*
X2130212Y153497D01*
X2130300Y153470D01*
X2130385Y153435D01*
X2130425Y153431D01*
X2130446Y153424D01*
X2130479Y153425D01*
X2130552Y153417D01*
X2131568Y153417D01*
X2131636Y153428D01*
X2131706Y153429D01*
X2131757Y153448D01*
X2131811Y153457D01*
X2131872Y153489D01*
X2131937Y153512D01*
X2131980Y153546D01*
X2132028Y153572D01*
X2132076Y153622D01*
X2132130Y153665D01*
X2132175Y153726D01*
X2132198Y153750D01*
X2132207Y153770D01*
X2132229Y153800D01*
X2133194Y155490D01*
X2134559Y156854D01*
X2135881Y157516D01*
X2136977Y157735D01*
X2138302Y157735D01*
X2139630Y157292D01*
X2140748Y156621D01*
X2141659Y155710D01*
X2142329Y154818D01*
X2142393Y154656D01*
X2142698Y153895D01*
X2142698Y153894D01*
X2142773Y153706D01*
X2143014Y152505D01*
X2143038Y152441D01*
X2143051Y152377D01*
X2142773Y150848D01*
X2141872Y148820D01*
X2139878Y147269D01*
X2137652Y146824D01*
X2136356Y147040D01*
X2134757Y147725D01*
X2133660Y148603D01*
X2132709Y150028D01*
X2132693Y150045D01*
X2132675Y150068D01*
X2132660Y150093D01*
X2132644Y150107D01*
X2132614Y150144D01*
X2132360Y150398D01*
X2132337Y150415D01*
X2132319Y150437D01*
X2132237Y150487D01*
X2132161Y150542D01*
X2132133Y150550D01*
X2132109Y150565D01*
X2131947Y150611D01*
X2130453Y150860D01*
X2128532Y151340D01*
X2127590Y151811D01*
X2127574Y151816D01*
X2127550Y151830D01*
X2125772Y152592D01*
X2125704Y152609D01*
X2125639Y152635D01*
X2125565Y152643D01*
X2125533Y152651D01*
X2125511Y152649D01*
X2125472Y152653D01*
X2124710Y152653D01*
X2124620Y152639D01*
X2124529Y152631D01*
X2124499Y152619D01*
X2124467Y152614D01*
X2124387Y152571D01*
X2124303Y152535D01*
X2124271Y152509D01*
X2124250Y152498D01*
X2124244Y152493D01*
X2124244Y152492D01*
X2124226Y152474D01*
X2124172Y152430D01*
X2123156Y151414D01*
X2123137Y151389D01*
X2123070Y151313D01*
X2121304Y148789D01*
X2119766Y146811D01*
X2117524Y146811D01*
G37*
%LPD*%
%LPC*%
G36*
X2137333Y103783D02*
X2137333Y103783D01*
X2135200Y106153D01*
X2133557Y108265D01*
X2133091Y111061D01*
X2133091Y144019D01*
X2141983Y144019D01*
X2141983Y113538D01*
X2141998Y113447D01*
X2142005Y113355D01*
X2142019Y113318D01*
X2142023Y113295D01*
X2142038Y113267D01*
X2142063Y113198D01*
X2142571Y112182D01*
X2142594Y112150D01*
X2142609Y112115D01*
X2142714Y111984D01*
X2143451Y111246D01*
X2144254Y110283D01*
X2137649Y103677D01*
X2137333Y103783D01*
G37*
%LPD*%
G36*
X1552577Y427484D02*
X1552577Y427484D01*
X1552579Y427483D01*
X1552622Y427503D01*
X1552666Y427521D01*
X1552666Y427523D01*
X1552668Y427524D01*
X1552701Y427609D01*
X1552701Y430149D01*
X1552700Y430151D01*
X1552701Y430153D01*
X1552681Y430196D01*
X1552663Y430240D01*
X1552661Y430240D01*
X1552660Y430242D01*
X1552575Y430275D01*
X1548765Y430275D01*
X1548763Y430274D01*
X1548761Y430275D01*
X1548718Y430255D01*
X1548674Y430237D01*
X1548674Y430235D01*
X1548672Y430234D01*
X1548639Y430149D01*
X1548639Y427609D01*
X1548640Y427607D01*
X1548639Y427605D01*
X1548659Y427562D01*
X1548677Y427518D01*
X1548679Y427518D01*
X1548680Y427516D01*
X1548765Y427483D01*
X1552575Y427483D01*
X1552577Y427484D01*
G37*
G36*
X1232791Y238000D02*
X1232791Y238000D01*
X1232793Y237999D01*
X1232836Y238019D01*
X1232880Y238037D01*
X1232880Y238039D01*
X1232882Y238040D01*
X1232915Y238125D01*
X1232915Y241935D01*
X1232914Y241937D01*
X1232915Y241939D01*
X1232895Y241982D01*
X1232877Y242026D01*
X1232875Y242026D01*
X1232874Y242028D01*
X1232789Y242061D01*
X1230249Y242061D01*
X1230247Y242060D01*
X1230245Y242061D01*
X1230202Y242041D01*
X1230158Y242023D01*
X1230158Y242021D01*
X1230156Y242020D01*
X1230123Y241935D01*
X1230123Y238125D01*
X1230124Y238123D01*
X1230123Y238121D01*
X1230143Y238078D01*
X1230161Y238034D01*
X1230163Y238034D01*
X1230164Y238032D01*
X1230249Y237999D01*
X1232789Y237999D01*
X1232791Y238000D01*
G37*
G36*
X1684657Y237492D02*
X1684657Y237492D01*
X1684659Y237491D01*
X1684702Y237511D01*
X1684746Y237529D01*
X1684746Y237531D01*
X1684748Y237532D01*
X1684781Y237617D01*
X1684781Y240157D01*
X1684780Y240159D01*
X1684781Y240161D01*
X1684761Y240204D01*
X1684743Y240248D01*
X1684741Y240248D01*
X1684740Y240250D01*
X1684655Y240283D01*
X1680845Y240283D01*
X1680843Y240282D01*
X1680841Y240283D01*
X1680798Y240263D01*
X1680754Y240245D01*
X1680754Y240243D01*
X1680752Y240242D01*
X1680719Y240157D01*
X1680719Y237617D01*
X1680720Y237615D01*
X1680719Y237613D01*
X1680739Y237570D01*
X1680757Y237526D01*
X1680759Y237526D01*
X1680760Y237524D01*
X1680845Y237491D01*
X1684655Y237491D01*
X1684657Y237492D01*
G37*
G36*
X3587117Y96903D02*
X3587117Y96903D01*
X3587119Y96902D01*
X3587162Y96922D01*
X3587206Y96940D01*
X3587206Y96942D01*
X3587208Y96943D01*
X3587241Y97028D01*
X3587241Y99568D01*
X3587240Y99570D01*
X3587241Y99572D01*
X3587221Y99615D01*
X3587203Y99659D01*
X3587201Y99659D01*
X3587200Y99661D01*
X3587115Y99694D01*
X3583305Y99694D01*
X3583303Y99693D01*
X3583301Y99694D01*
X3583258Y99674D01*
X3583214Y99656D01*
X3583214Y99654D01*
X3583212Y99653D01*
X3583179Y99568D01*
X3583179Y97028D01*
X3583180Y97026D01*
X3583179Y97024D01*
X3583199Y96981D01*
X3583217Y96937D01*
X3583219Y96937D01*
X3583220Y96935D01*
X3583305Y96902D01*
X3587115Y96902D01*
X3587117Y96903D01*
G37*
G36*
X3444877Y96903D02*
X3444877Y96903D01*
X3444879Y96902D01*
X3444922Y96922D01*
X3444966Y96940D01*
X3444966Y96942D01*
X3444968Y96943D01*
X3445001Y97028D01*
X3445001Y99568D01*
X3445000Y99570D01*
X3445001Y99572D01*
X3444981Y99615D01*
X3444963Y99659D01*
X3444961Y99659D01*
X3444960Y99661D01*
X3444875Y99694D01*
X3441065Y99694D01*
X3441063Y99693D01*
X3441061Y99694D01*
X3441018Y99674D01*
X3440974Y99656D01*
X3440974Y99654D01*
X3440972Y99653D01*
X3440939Y99568D01*
X3440939Y97028D01*
X3440940Y97026D01*
X3440939Y97024D01*
X3440959Y96981D01*
X3440977Y96937D01*
X3440979Y96937D01*
X3440980Y96935D01*
X3441065Y96902D01*
X3444875Y96902D01*
X3444877Y96903D01*
G37*
D10*
X2168652Y144272D02*
X2168652Y162067D01*
X2174584Y156135D01*
X2180515Y162067D01*
X2180515Y144272D01*
X2186427Y147238D02*
X2186427Y156135D01*
X2186427Y147238D02*
X2189393Y144272D01*
X2198290Y144272D01*
X2198290Y156135D01*
X2204202Y162067D02*
X2207168Y162067D01*
X2207168Y144272D01*
X2210133Y144272D02*
X2204202Y144272D01*
X2219017Y147238D02*
X2219017Y159101D01*
X2219017Y147238D02*
X2221983Y144272D01*
X2221983Y156135D02*
X2216052Y156135D01*
X2227902Y156135D02*
X2230867Y156135D01*
X2230867Y144272D01*
X2227902Y144272D02*
X2233833Y144272D01*
X2230867Y162067D02*
X2230867Y165033D01*
X2242717Y156135D02*
X2251615Y156135D01*
X2242717Y156135D02*
X2239751Y153170D01*
X2239751Y147238D01*
X2242717Y144272D01*
X2251615Y144272D01*
X2257526Y144272D02*
X2257526Y162067D01*
X2260492Y156135D02*
X2257526Y153170D01*
X2260492Y156135D02*
X2266424Y156135D01*
X2269390Y153170D01*
X2269390Y144272D01*
X2278267Y156135D02*
X2284199Y156135D01*
X2287165Y153170D01*
X2287165Y144272D01*
X2278267Y144272D01*
X2275301Y147238D01*
X2278267Y150204D01*
X2287165Y150204D01*
X2293076Y156135D02*
X2293076Y144272D01*
X2293076Y156135D02*
X2301974Y156135D01*
X2304939Y153170D01*
X2304939Y144272D01*
X2310851Y144272D02*
X2310851Y156135D01*
X2319748Y156135D01*
X2322714Y153170D01*
X2322714Y144272D01*
X2331591Y144272D02*
X2337523Y144272D01*
X2331591Y144272D02*
X2328626Y147238D01*
X2328626Y153170D01*
X2331591Y156135D01*
X2337523Y156135D01*
X2340489Y153170D01*
X2340489Y150204D01*
X2328626Y150204D01*
X2346400Y162067D02*
X2349366Y162067D01*
X2349366Y144272D01*
X2346400Y144272D02*
X2352332Y144272D01*
X2364182Y144272D02*
X2364182Y162067D01*
X2358250Y162067D02*
X2370114Y162067D01*
X2376025Y162067D02*
X2376025Y144272D01*
X2376025Y153170D02*
X2378991Y156135D01*
X2384923Y156135D01*
X2387889Y153170D01*
X2387889Y144272D01*
X2396766Y144272D02*
X2402698Y144272D01*
X2396766Y144272D02*
X2393800Y147238D01*
X2393800Y153170D01*
X2396766Y156135D01*
X2402698Y156135D01*
X2405664Y153170D01*
X2405664Y150204D01*
X2393800Y150204D01*
X2411575Y144272D02*
X2411575Y156135D01*
X2411575Y150204D02*
X2417507Y156135D01*
X2420473Y156135D01*
X2426387Y156135D02*
X2426387Y144272D01*
X2426387Y156135D02*
X2429353Y156135D01*
X2432319Y153170D01*
X2432319Y144272D01*
X2432319Y153170D02*
X2435285Y156135D01*
X2438251Y153170D01*
X2438251Y144272D01*
X2447128Y144272D02*
X2453060Y144272D01*
X2456026Y147238D01*
X2456026Y153170D01*
X2453060Y156135D01*
X2447128Y156135D01*
X2444162Y153170D01*
X2444162Y147238D01*
X2447128Y144272D01*
X2464903Y156135D02*
X2473800Y156135D01*
X2464903Y156135D02*
X2461937Y153170D01*
X2461937Y147238D01*
X2464903Y144272D01*
X2473800Y144272D01*
X2482678Y144272D02*
X2488609Y144272D01*
X2491575Y147238D01*
X2491575Y153170D01*
X2488609Y156135D01*
X2482678Y156135D01*
X2479712Y153170D01*
X2479712Y147238D01*
X2482678Y144272D01*
X2497487Y147238D02*
X2497487Y156135D01*
X2497487Y147238D02*
X2500453Y144272D01*
X2509350Y144272D01*
X2509350Y156135D01*
X2515262Y156135D02*
X2515262Y138340D01*
X2515262Y156135D02*
X2524159Y156135D01*
X2527125Y153170D01*
X2527125Y147238D01*
X2524159Y144272D01*
X2515262Y144272D01*
X2533036Y162067D02*
X2536002Y162067D01*
X2536002Y144272D01*
X2533036Y144272D02*
X2538968Y144272D01*
X2547852Y144272D02*
X2553784Y144272D01*
X2547852Y144272D02*
X2544886Y147238D01*
X2544886Y153170D01*
X2547852Y156135D01*
X2553784Y156135D01*
X2556750Y153170D01*
X2556750Y150204D01*
X2544886Y150204D01*
X2168652Y102377D02*
X2168652Y84582D01*
X2177550Y84582D01*
X2180515Y87548D01*
X2180515Y99411D01*
X2177550Y102377D01*
X2168652Y102377D01*
X2189393Y96445D02*
X2195324Y96445D01*
X2198290Y93480D01*
X2198290Y84582D01*
X2189393Y84582D01*
X2186427Y87548D01*
X2189393Y90514D01*
X2198290Y90514D01*
X2207168Y87548D02*
X2207168Y99411D01*
X2207168Y87548D02*
X2210133Y84582D01*
X2210133Y96445D02*
X2204202Y96445D01*
X2219017Y96445D02*
X2224949Y96445D01*
X2227915Y93480D01*
X2227915Y84582D01*
X2219017Y84582D01*
X2216052Y87548D01*
X2219017Y90514D01*
X2227915Y90514D01*
X2233826Y84582D02*
X2233826Y102377D01*
X2233826Y84582D02*
X2245690Y84582D01*
X2254567Y84582D02*
X2260499Y84582D01*
X2263465Y87548D01*
X2263465Y93480D01*
X2260499Y96445D01*
X2254567Y96445D01*
X2251601Y93480D01*
X2251601Y87548D01*
X2254567Y84582D01*
X2275308Y78650D02*
X2278274Y78650D01*
X2281240Y81616D01*
X2281240Y96445D01*
X2272342Y96445D01*
X2269376Y93480D01*
X2269376Y87548D01*
X2272342Y84582D01*
X2281240Y84582D01*
X2293083Y78650D02*
X2296049Y78650D01*
X2299014Y81616D01*
X2299014Y96445D01*
X2290117Y96445D01*
X2287151Y93480D01*
X2287151Y87548D01*
X2290117Y84582D01*
X2299014Y84582D01*
X2307892Y84582D02*
X2313823Y84582D01*
X2307892Y84582D02*
X2304926Y87548D01*
X2304926Y93480D01*
X2307892Y96445D01*
X2313823Y96445D01*
X2316789Y93480D01*
X2316789Y90514D01*
X2304926Y90514D01*
X2322701Y84582D02*
X2322701Y96445D01*
X2322701Y90514D02*
X2328632Y96445D01*
X2331598Y96445D01*
X2355288Y96445D02*
X2361220Y84582D01*
X2367151Y96445D01*
X2373063Y84582D02*
X2384926Y84582D01*
X2373063Y84582D02*
X2384926Y96445D01*
X2384926Y99411D01*
X2381960Y102377D01*
X2376029Y102377D01*
X2373063Y99411D01*
X2390838Y87548D02*
X2390838Y84582D01*
X2390838Y87548D02*
X2393803Y87548D01*
X2393803Y84582D01*
X2390838Y84582D01*
X2399725Y87548D02*
X2399725Y99411D01*
X2402691Y102377D01*
X2408623Y102377D01*
X2411588Y99411D01*
X2411588Y87548D01*
X2408623Y84582D01*
X2402691Y84582D01*
X2399725Y87548D01*
X2411588Y99411D01*
X2524149Y87548D02*
X2527115Y84582D01*
X2530081Y84582D01*
X2533046Y87548D01*
X2533046Y102377D01*
X2530081Y102377D02*
X2536012Y102377D01*
X2541924Y102377D02*
X2541924Y84582D01*
X2541924Y102377D02*
X2550821Y102377D01*
X2553787Y99411D01*
X2553787Y96445D01*
X2550821Y93480D01*
X2553787Y90514D01*
X2553787Y87548D01*
X2550821Y84582D01*
X2541924Y84582D01*
X2541924Y93480D02*
X2550821Y93480D01*
D11*
X21590Y552450D02*
X21590Y647700D01*
X85090Y647700D01*
X85090Y552450D01*
X21590Y552450D01*
X3704590Y552450D02*
X3704590Y647700D01*
X3768090Y647700D01*
X3768090Y552450D01*
X3704590Y552450D01*
D10*
X2168652Y131587D02*
X2168652Y113792D01*
X2174584Y125655D02*
X2168652Y131587D01*
X2174584Y125655D02*
X2180515Y131587D01*
X2180515Y113792D01*
X2186427Y116758D02*
X2186427Y125655D01*
X2186427Y116758D02*
X2189393Y113792D01*
X2198290Y113792D01*
X2198290Y125655D01*
X2204202Y131587D02*
X2207168Y131587D01*
X2207168Y113792D01*
X2210133Y113792D02*
X2204202Y113792D01*
X2219017Y116758D02*
X2219017Y128621D01*
X2219017Y116758D02*
X2221983Y113792D01*
X2221983Y125655D02*
X2216052Y125655D01*
X2227902Y125655D02*
X2230867Y125655D01*
X2230867Y113792D01*
X2227902Y113792D02*
X2233833Y113792D01*
X2230867Y131587D02*
X2230867Y134553D01*
X2242717Y125655D02*
X2251615Y125655D01*
X2242717Y125655D02*
X2239751Y122690D01*
X2239751Y116758D01*
X2242717Y113792D01*
X2251615Y113792D01*
X2257526Y113792D02*
X2257526Y131587D01*
X2260492Y125655D02*
X2257526Y122690D01*
X2260492Y125655D02*
X2266424Y125655D01*
X2269390Y122690D01*
X2269390Y113792D01*
X2278267Y125655D02*
X2284199Y125655D01*
X2287165Y122690D01*
X2287165Y113792D01*
X2278267Y113792D01*
X2275301Y116758D01*
X2278267Y119724D01*
X2287165Y119724D01*
X2293076Y125655D02*
X2293076Y113792D01*
X2293076Y125655D02*
X2301974Y125655D01*
X2304939Y122690D01*
X2304939Y113792D01*
X2310851Y113792D02*
X2310851Y125655D01*
X2319748Y125655D01*
X2322714Y122690D01*
X2322714Y113792D01*
X2331591Y113792D02*
X2337523Y113792D01*
X2331591Y113792D02*
X2328626Y116758D01*
X2328626Y122690D01*
X2331591Y125655D01*
X2337523Y125655D01*
X2340489Y122690D01*
X2340489Y119724D01*
X2328626Y119724D01*
X2346400Y131587D02*
X2349366Y131587D01*
X2349366Y113792D01*
X2346400Y113792D02*
X2352332Y113792D01*
X2376025Y113792D02*
X2376025Y125655D01*
X2381957Y131587D01*
X2387889Y125655D01*
X2387889Y113792D01*
X2387889Y122690D02*
X2376025Y122690D01*
X2393800Y125655D02*
X2393800Y113792D01*
X2393800Y125655D02*
X2402698Y125655D01*
X2405664Y122690D01*
X2405664Y113792D01*
X2414541Y125655D02*
X2420473Y125655D01*
X2423438Y122690D01*
X2423438Y113792D01*
X2414541Y113792D01*
X2411575Y116758D01*
X2414541Y119724D01*
X2423438Y119724D01*
X2429350Y131587D02*
X2432316Y131587D01*
X2432316Y113792D01*
X2435281Y113792D02*
X2429350Y113792D01*
X2444166Y113792D02*
X2450097Y113792D01*
X2453063Y116758D01*
X2453063Y122690D01*
X2450097Y125655D01*
X2444166Y125655D01*
X2441200Y122690D01*
X2441200Y116758D01*
X2444166Y113792D01*
X2464906Y107860D02*
X2467872Y107860D01*
X2470838Y110826D01*
X2470838Y125655D01*
X2461940Y125655D01*
X2458975Y122690D01*
X2458975Y116758D01*
X2461940Y113792D01*
X2470838Y113792D01*
X2494524Y113792D02*
X2500456Y113792D01*
X2497490Y113792D02*
X2497490Y131587D01*
X2494524Y131587D02*
X2500456Y131587D01*
X2506374Y125655D02*
X2506374Y113792D01*
X2506374Y125655D02*
X2515272Y125655D01*
X2518238Y122690D01*
X2518238Y113792D01*
X2524149Y107860D02*
X2524149Y125655D01*
X2533047Y125655D01*
X2536012Y122690D01*
X2536012Y116758D01*
X2533047Y113792D01*
X2524149Y113792D01*
X2541924Y116758D02*
X2541924Y125655D01*
X2541924Y116758D02*
X2544890Y113792D01*
X2553787Y113792D01*
X2553787Y125655D01*
X2562664Y128621D02*
X2562664Y116758D01*
X2565630Y113792D01*
X2565630Y125655D02*
X2559699Y125655D01*
X3101340Y45727D02*
X3112187Y45727D01*
X3106763Y51150D02*
X3106763Y40304D01*
X3117712Y53862D02*
X3128558Y53862D01*
X3117712Y53862D02*
X3117712Y45727D01*
X3123135Y48439D01*
X3125847Y48439D01*
X3128558Y45727D01*
X3128558Y40304D01*
X3125847Y37592D01*
X3120423Y37592D01*
X3117712Y40304D01*
X3134083Y43015D02*
X3134083Y53862D01*
X3134083Y43015D02*
X3139506Y37592D01*
X3144930Y43015D01*
X3144930Y53862D01*
X3164593Y54116D02*
X3167305Y51404D01*
X3164593Y54116D02*
X3159170Y54116D01*
X3156458Y51404D01*
X3156458Y40558D01*
X3159170Y37846D01*
X3164593Y37846D01*
X3167305Y40558D01*
X3167305Y45981D01*
X3161881Y45981D01*
X3172830Y37846D02*
X3172830Y54116D01*
X3183676Y37846D01*
X3183676Y54116D01*
X3189201Y54116D02*
X3189201Y37846D01*
X3197336Y37846D01*
X3200048Y40558D01*
X3200048Y51404D01*
X3197336Y54116D01*
X3189201Y54116D01*
D12*
X1674066Y445374D02*
X1674066Y455534D01*
D10*
X1644817Y457359D02*
X1643716Y458461D01*
X1641513Y458461D01*
X1640411Y457359D01*
X1640411Y452953D01*
X1641513Y451851D01*
X1643716Y451851D01*
X1644817Y452953D01*
X1647895Y457359D02*
X1648997Y458461D01*
X1651200Y458461D01*
X1652302Y457359D01*
X1652302Y456257D01*
X1651200Y455156D01*
X1650098Y455156D01*
X1651200Y455156D02*
X1652302Y454054D01*
X1652302Y452953D01*
X1651200Y451851D01*
X1648997Y451851D01*
X1647895Y452953D01*
D13*
X1648844Y399572D02*
X1648844Y366572D01*
X1648844Y399572D02*
X1648844Y404572D01*
X1696844Y404572D01*
X1696844Y399572D01*
X1696844Y366572D01*
X1648844Y366572D01*
X1648844Y399572D02*
X1696844Y399572D01*
D14*
X1699934Y422319D02*
X1692138Y430115D01*
X1692138Y422319D02*
X1699934Y430115D01*
X1699934Y426217D02*
X1692138Y426217D01*
X1696036Y422319D02*
X1696036Y430115D01*
X1618888Y365760D02*
X1614990Y365760D01*
X1616939Y365760D02*
X1616939Y377454D01*
X1614990Y377454D02*
X1618888Y377454D01*
X1628633Y377454D02*
X1630582Y375505D01*
X1628633Y377454D02*
X1624735Y377454D01*
X1622786Y375505D01*
X1622786Y367709D01*
X1624735Y365760D01*
X1628633Y365760D01*
X1630582Y367709D01*
X1634480Y373556D02*
X1638378Y377454D01*
X1638378Y365760D01*
X1634480Y365760D02*
X1642276Y365760D01*
D12*
X1640840Y421386D02*
X1630680Y421386D01*
D10*
X1614276Y431212D02*
X1613175Y432314D01*
X1610971Y432314D01*
X1609870Y431212D01*
X1609870Y426806D01*
X1610971Y425704D01*
X1613175Y425704D01*
X1614276Y426806D01*
X1617354Y432314D02*
X1621760Y432314D01*
X1617354Y432314D02*
X1617354Y429009D01*
X1619557Y430110D01*
X1620659Y430110D01*
X1621760Y429009D01*
X1621760Y426806D01*
X1620659Y425704D01*
X1618455Y425704D01*
X1617354Y426806D01*
D15*
X2916724Y128817D02*
X2918292Y127249D01*
X2916724Y128817D02*
X2913589Y128817D01*
X2912021Y127249D01*
X2912021Y120979D01*
X2913589Y119411D01*
X2916724Y119411D01*
X2918292Y120979D01*
X2921376Y119411D02*
X2921376Y128817D01*
X2926079Y128817D01*
X2927647Y127249D01*
X2927647Y124114D01*
X2926079Y122546D01*
X2921376Y122546D01*
X2930731Y119411D02*
X2937002Y119411D01*
X2930731Y119411D02*
X2937002Y125682D01*
X2937002Y127249D01*
X2935434Y128817D01*
X2932299Y128817D01*
X2930731Y127249D01*
X2880441Y133581D02*
X2880441Y141716D01*
X2880441Y133581D02*
X2885864Y133581D01*
X2892694Y133581D02*
X2892694Y141716D01*
X2888627Y137648D01*
X2894050Y137648D01*
D12*
X1884260Y446420D02*
X1884260Y456580D01*
D10*
X1908647Y457602D02*
X1909748Y456500D01*
X1908647Y457602D02*
X1906444Y457602D01*
X1905342Y456500D01*
X1905342Y452094D01*
X1906444Y450992D01*
X1908647Y450992D01*
X1909748Y452094D01*
X1912826Y450992D02*
X1917233Y450992D01*
X1917233Y455398D02*
X1912826Y450992D01*
X1917233Y455398D02*
X1917233Y456500D01*
X1916131Y457602D01*
X1913928Y457602D01*
X1912826Y456500D01*
D13*
X1858720Y399572D02*
X1858720Y366572D01*
X1858720Y399572D02*
X1858720Y404572D01*
X1906720Y404572D01*
X1906720Y399572D01*
X1906720Y366572D01*
X1858720Y366572D01*
X1858720Y399572D02*
X1906720Y399572D01*
D14*
X1909810Y422319D02*
X1902014Y430115D01*
X1902014Y422319D02*
X1909810Y430115D01*
X1909810Y426217D02*
X1902014Y426217D01*
X1905912Y422319D02*
X1905912Y430115D01*
X1829904Y378532D02*
X1826006Y378532D01*
X1827955Y378532D02*
X1827955Y390226D01*
X1826006Y390226D02*
X1829904Y390226D01*
X1839649Y390226D02*
X1841598Y388277D01*
X1839649Y390226D02*
X1835751Y390226D01*
X1833802Y388277D01*
X1833802Y380481D01*
X1835751Y378532D01*
X1839649Y378532D01*
X1841598Y380481D01*
X1845496Y378532D02*
X1853292Y378532D01*
X1845496Y378532D02*
X1853292Y386328D01*
X1853292Y388277D01*
X1851343Y390226D01*
X1847445Y390226D01*
X1845496Y388277D01*
D12*
X1848800Y425500D02*
X1838640Y425500D01*
D10*
X1822760Y437496D02*
X1821659Y438598D01*
X1819455Y438598D01*
X1818354Y437496D01*
X1818354Y433090D01*
X1819455Y431988D01*
X1821659Y431988D01*
X1822760Y433090D01*
X1828041Y437496D02*
X1830244Y438598D01*
X1828041Y437496D02*
X1825838Y435293D01*
X1825838Y433090D01*
X1826939Y431988D01*
X1829143Y431988D01*
X1830244Y433090D01*
X1830244Y434191D01*
X1829143Y435293D01*
X1825838Y435293D01*
D12*
X2092720Y445420D02*
X2092720Y455580D01*
D10*
X2117107Y456602D02*
X2118208Y455500D01*
X2117107Y456602D02*
X2114904Y456602D01*
X2113802Y455500D01*
X2113802Y451094D01*
X2114904Y449992D01*
X2117107Y449992D01*
X2118208Y451094D01*
X2121286Y456602D02*
X2125693Y456602D01*
X2125693Y455500D01*
X2121286Y451094D01*
X2121286Y449992D01*
D13*
X2068720Y399572D02*
X2068720Y366572D01*
X2068720Y399572D02*
X2068720Y404572D01*
X2116720Y404572D01*
X2116720Y399572D01*
X2116720Y366572D01*
X2068720Y366572D01*
X2068720Y399572D02*
X2116720Y399572D01*
D14*
X2119810Y422319D02*
X2112014Y430115D01*
X2112014Y422319D02*
X2119810Y430115D01*
X2119810Y426217D02*
X2112014Y426217D01*
X2115912Y422319D02*
X2115912Y430115D01*
X2036152Y372378D02*
X2032254Y372378D01*
X2034203Y372378D02*
X2034203Y384072D01*
X2032254Y384072D02*
X2036152Y384072D01*
X2045897Y384072D02*
X2047846Y382123D01*
X2045897Y384072D02*
X2041999Y384072D01*
X2040050Y382123D01*
X2040050Y374327D01*
X2041999Y372378D01*
X2045897Y372378D01*
X2047846Y374327D01*
X2051744Y382123D02*
X2053693Y384072D01*
X2057591Y384072D01*
X2059540Y382123D01*
X2059540Y380174D01*
X2057591Y378225D01*
X2055642Y378225D01*
X2057591Y378225D02*
X2059540Y376276D01*
X2059540Y374327D01*
X2057591Y372378D01*
X2053693Y372378D01*
X2051744Y374327D01*
D12*
X2047640Y430500D02*
X2057800Y430500D01*
D10*
X2030788Y441480D02*
X2029687Y442582D01*
X2027484Y442582D01*
X2026382Y441480D01*
X2026382Y437074D01*
X2027484Y435972D01*
X2029687Y435972D01*
X2030788Y437074D01*
X2033866Y441480D02*
X2034968Y442582D01*
X2037171Y442582D01*
X2038273Y441480D01*
X2038273Y440378D01*
X2037171Y439277D01*
X2038273Y438175D01*
X2038273Y437074D01*
X2037171Y435972D01*
X2034968Y435972D01*
X2033866Y437074D01*
X2033866Y438175D01*
X2034968Y439277D01*
X2033866Y440378D01*
X2033866Y441480D01*
X2034968Y439277D02*
X2037171Y439277D01*
D12*
X2307720Y448420D02*
X2307720Y458580D01*
D10*
X2332107Y459602D02*
X2333208Y458500D01*
X2332107Y459602D02*
X2329904Y459602D01*
X2328802Y458500D01*
X2328802Y454094D01*
X2329904Y452992D01*
X2332107Y452992D01*
X2333208Y454094D01*
X2336286Y454094D02*
X2337388Y452992D01*
X2339591Y452992D01*
X2340693Y454094D01*
X2340693Y458500D01*
X2339591Y459602D01*
X2337388Y459602D01*
X2336286Y458500D01*
X2336286Y457398D01*
X2337388Y456297D01*
X2340693Y456297D01*
D13*
X2283720Y399572D02*
X2283720Y366572D01*
X2283720Y399572D02*
X2283720Y404572D01*
X2331720Y404572D01*
X2331720Y399572D01*
X2331720Y366572D01*
X2283720Y366572D01*
X2283720Y399572D02*
X2331720Y399572D01*
D14*
X2334810Y422319D02*
X2327014Y430115D01*
X2327014Y422319D02*
X2334810Y430115D01*
X2334810Y426217D02*
X2327014Y426217D01*
X2330912Y422319D02*
X2330912Y430115D01*
X2261704Y379098D02*
X2257806Y379098D01*
X2259755Y379098D02*
X2259755Y390792D01*
X2257806Y390792D02*
X2261704Y390792D01*
X2271449Y390792D02*
X2273398Y388843D01*
X2271449Y390792D02*
X2267551Y390792D01*
X2265602Y388843D01*
X2265602Y381047D01*
X2267551Y379098D01*
X2271449Y379098D01*
X2273398Y381047D01*
X2283143Y379098D02*
X2283143Y390792D01*
X2277296Y384945D01*
X2285092Y384945D01*
D12*
X2278800Y431500D02*
X2268640Y431500D01*
D10*
X2243616Y444332D02*
X2242514Y445434D01*
X2240311Y445434D01*
X2239210Y444332D01*
X2239210Y439926D01*
X2240311Y438824D01*
X2242514Y438824D01*
X2243616Y439926D01*
X2246694Y443230D02*
X2248897Y445434D01*
X2248897Y438824D01*
X2246694Y438824D02*
X2251100Y438824D01*
X2254178Y439926D02*
X2254178Y444332D01*
X2255279Y445434D01*
X2257483Y445434D01*
X2258584Y444332D01*
X2258584Y439926D01*
X2257483Y438824D01*
X2255279Y438824D01*
X2254178Y439926D01*
X2258584Y444332D01*
D12*
X2515920Y448620D02*
X2515920Y458780D01*
D10*
X2540307Y459802D02*
X2541408Y458700D01*
X2540307Y459802D02*
X2538104Y459802D01*
X2537002Y458700D01*
X2537002Y454294D01*
X2538104Y453192D01*
X2540307Y453192D01*
X2541408Y454294D01*
X2544486Y457598D02*
X2546689Y459802D01*
X2546689Y453192D01*
X2544486Y453192D02*
X2548893Y453192D01*
X2551970Y457598D02*
X2554174Y459802D01*
X2554174Y453192D01*
X2556377Y453192D02*
X2551970Y453192D01*
D13*
X2493720Y399572D02*
X2493720Y366572D01*
X2493720Y399572D02*
X2493720Y404572D01*
X2541720Y404572D01*
X2541720Y399572D01*
X2541720Y366572D01*
X2493720Y366572D01*
X2493720Y399572D02*
X2541720Y399572D01*
D14*
X2544810Y422319D02*
X2537014Y430115D01*
X2537014Y422319D02*
X2544810Y430115D01*
X2544810Y426217D02*
X2537014Y426217D01*
X2540912Y422319D02*
X2540912Y430115D01*
X2469984Y380818D02*
X2466086Y380818D01*
X2468035Y380818D02*
X2468035Y392512D01*
X2466086Y392512D02*
X2469984Y392512D01*
X2479729Y392512D02*
X2481678Y390563D01*
X2479729Y392512D02*
X2475831Y392512D01*
X2473882Y390563D01*
X2473882Y382767D01*
X2475831Y380818D01*
X2479729Y380818D01*
X2481678Y382767D01*
X2485576Y392512D02*
X2493372Y392512D01*
X2485576Y392512D02*
X2485576Y386665D01*
X2489474Y388614D01*
X2491423Y388614D01*
X2493372Y386665D01*
X2493372Y382767D01*
X2491423Y380818D01*
X2487525Y380818D01*
X2485576Y382767D01*
D12*
X2487500Y430200D02*
X2477340Y430200D01*
D10*
X2453196Y439672D02*
X2452094Y440774D01*
X2449891Y440774D01*
X2448790Y439672D01*
X2448790Y435266D01*
X2449891Y434164D01*
X2452094Y434164D01*
X2453196Y435266D01*
X2456274Y438570D02*
X2458477Y440774D01*
X2458477Y434164D01*
X2456274Y434164D02*
X2460680Y434164D01*
X2463758Y434164D02*
X2468164Y434164D01*
X2463758Y434164D02*
X2468164Y438570D01*
X2468164Y439672D01*
X2467063Y440774D01*
X2464859Y440774D01*
X2463758Y439672D01*
D12*
X2738420Y449420D02*
X2738420Y459580D01*
D10*
X2762807Y460602D02*
X2763908Y459500D01*
X2762807Y460602D02*
X2760604Y460602D01*
X2759502Y459500D01*
X2759502Y455094D01*
X2760604Y453992D01*
X2762807Y453992D01*
X2763908Y455094D01*
X2766986Y458398D02*
X2769189Y460602D01*
X2769189Y453992D01*
X2766986Y453992D02*
X2771393Y453992D01*
X2774470Y459500D02*
X2775572Y460602D01*
X2777775Y460602D01*
X2778877Y459500D01*
X2778877Y458398D01*
X2777775Y457297D01*
X2776674Y457297D01*
X2777775Y457297D02*
X2778877Y456195D01*
X2778877Y455094D01*
X2777775Y453992D01*
X2775572Y453992D01*
X2774470Y455094D01*
D13*
X2714920Y399572D02*
X2714920Y366572D01*
X2714920Y399572D02*
X2714920Y404572D01*
X2762920Y404572D01*
X2762920Y399572D01*
X2762920Y366572D01*
X2714920Y366572D01*
X2714920Y399572D02*
X2762920Y399572D01*
D14*
X2766010Y422319D02*
X2758214Y430115D01*
X2758214Y422319D02*
X2766010Y430115D01*
X2766010Y426217D02*
X2758214Y426217D01*
X2762112Y422319D02*
X2762112Y430115D01*
X2688424Y383578D02*
X2684526Y383578D01*
X2686475Y383578D02*
X2686475Y395272D01*
X2684526Y395272D02*
X2688424Y395272D01*
X2698169Y395272D02*
X2700118Y393323D01*
X2698169Y395272D02*
X2694271Y395272D01*
X2692322Y393323D01*
X2692322Y385527D01*
X2694271Y383578D01*
X2698169Y383578D01*
X2700118Y385527D01*
X2707914Y393323D02*
X2711812Y395272D01*
X2707914Y393323D02*
X2704016Y389425D01*
X2704016Y385527D01*
X2705965Y383578D01*
X2709863Y383578D01*
X2711812Y385527D01*
X2711812Y387476D01*
X2709863Y389425D01*
X2704016Y389425D01*
D12*
X2707320Y429500D02*
X2697160Y429500D01*
D10*
X2667256Y441052D02*
X2666154Y442154D01*
X2663951Y442154D01*
X2662850Y441052D01*
X2662850Y436646D01*
X2663951Y435544D01*
X2666154Y435544D01*
X2667256Y436646D01*
X2670334Y439950D02*
X2672537Y442154D01*
X2672537Y435544D01*
X2670334Y435544D02*
X2674740Y435544D01*
X2681123Y435544D02*
X2681123Y442154D01*
X2677818Y438849D01*
X2682224Y438849D01*
D12*
X2940120Y446920D02*
X2940120Y457080D01*
D10*
X2964507Y458102D02*
X2965608Y457000D01*
X2964507Y458102D02*
X2962304Y458102D01*
X2961202Y457000D01*
X2961202Y452594D01*
X2962304Y451492D01*
X2964507Y451492D01*
X2965608Y452594D01*
X2968686Y455898D02*
X2970889Y458102D01*
X2970889Y451492D01*
X2968686Y451492D02*
X2973093Y451492D01*
X2976170Y458102D02*
X2980577Y458102D01*
X2976170Y458102D02*
X2976170Y454797D01*
X2978374Y455898D01*
X2979475Y455898D01*
X2980577Y454797D01*
X2980577Y452594D01*
X2979475Y451492D01*
X2977272Y451492D01*
X2976170Y452594D01*
D13*
X2917720Y399572D02*
X2917720Y366572D01*
X2917720Y399572D02*
X2917720Y404572D01*
X2965720Y404572D01*
X2965720Y399572D01*
X2965720Y366572D01*
X2917720Y366572D01*
X2917720Y399572D02*
X2965720Y399572D01*
D14*
X2968810Y422319D02*
X2961014Y430115D01*
X2961014Y422319D02*
X2968810Y430115D01*
X2968810Y426217D02*
X2961014Y426217D01*
X2964912Y422319D02*
X2964912Y430115D01*
X2891624Y378098D02*
X2887726Y378098D01*
X2889675Y378098D02*
X2889675Y389792D01*
X2887726Y389792D02*
X2891624Y389792D01*
X2901369Y389792D02*
X2903318Y387843D01*
X2901369Y389792D02*
X2897471Y389792D01*
X2895522Y387843D01*
X2895522Y380047D01*
X2897471Y378098D01*
X2901369Y378098D01*
X2903318Y380047D01*
X2907216Y389792D02*
X2915012Y389792D01*
X2915012Y387843D01*
X2907216Y380047D01*
X2907216Y378098D01*
D12*
X2910300Y430400D02*
X2900140Y430400D01*
D10*
X2874636Y440832D02*
X2873534Y441934D01*
X2871331Y441934D01*
X2870230Y440832D01*
X2870230Y436426D01*
X2871331Y435324D01*
X2873534Y435324D01*
X2874636Y436426D01*
X2877714Y439730D02*
X2879917Y441934D01*
X2879917Y435324D01*
X2877714Y435324D02*
X2882120Y435324D01*
X2887401Y440832D02*
X2889604Y441934D01*
X2887401Y440832D02*
X2885198Y438629D01*
X2885198Y436426D01*
X2886299Y435324D01*
X2888503Y435324D01*
X2889604Y436426D01*
X2889604Y437527D01*
X2888503Y438629D01*
X2885198Y438629D01*
D12*
X3150720Y447420D02*
X3150720Y457580D01*
D10*
X3175107Y458602D02*
X3176208Y457500D01*
X3175107Y458602D02*
X3172904Y458602D01*
X3171802Y457500D01*
X3171802Y453094D01*
X3172904Y451992D01*
X3175107Y451992D01*
X3176208Y453094D01*
X3179286Y456398D02*
X3181489Y458602D01*
X3181489Y451992D01*
X3179286Y451992D02*
X3183693Y451992D01*
X3186770Y458602D02*
X3191177Y458602D01*
X3191177Y457500D01*
X3186770Y453094D01*
X3186770Y451992D01*
D13*
X3126720Y399572D02*
X3126720Y366572D01*
X3126720Y399572D02*
X3126720Y404572D01*
X3174720Y404572D01*
X3174720Y399572D01*
X3174720Y366572D01*
X3126720Y366572D01*
X3126720Y399572D02*
X3174720Y399572D01*
D14*
X3177810Y422319D02*
X3170014Y430115D01*
X3170014Y422319D02*
X3177810Y430115D01*
X3177810Y426217D02*
X3170014Y426217D01*
X3173912Y422319D02*
X3173912Y430115D01*
X3104984Y383898D02*
X3101086Y383898D01*
X3103035Y383898D02*
X3103035Y395592D01*
X3101086Y395592D02*
X3104984Y395592D01*
X3114729Y395592D02*
X3116678Y393643D01*
X3114729Y395592D02*
X3110831Y395592D01*
X3108882Y393643D01*
X3108882Y385847D01*
X3110831Y383898D01*
X3114729Y383898D01*
X3116678Y385847D01*
X3120576Y393643D02*
X3122525Y395592D01*
X3126423Y395592D01*
X3128372Y393643D01*
X3128372Y391694D01*
X3126423Y389745D01*
X3128372Y387796D01*
X3128372Y385847D01*
X3126423Y383898D01*
X3122525Y383898D01*
X3120576Y385847D01*
X3120576Y387796D01*
X3122525Y389745D01*
X3120576Y391694D01*
X3120576Y393643D01*
X3122525Y389745D02*
X3126423Y389745D01*
D12*
X3116800Y428500D02*
X3106640Y428500D01*
D10*
X3079736Y439052D02*
X3078634Y440154D01*
X3076431Y440154D01*
X3075330Y439052D01*
X3075330Y434646D01*
X3076431Y433544D01*
X3078634Y433544D01*
X3079736Y434646D01*
X3082814Y437950D02*
X3085017Y440154D01*
X3085017Y433544D01*
X3082814Y433544D02*
X3087220Y433544D01*
X3090298Y439052D02*
X3091399Y440154D01*
X3093603Y440154D01*
X3094704Y439052D01*
X3094704Y437950D01*
X3093603Y436849D01*
X3094704Y435747D01*
X3094704Y434646D01*
X3093603Y433544D01*
X3091399Y433544D01*
X3090298Y434646D01*
X3090298Y435747D01*
X3091399Y436849D01*
X3090298Y437950D01*
X3090298Y439052D01*
X3091399Y436849D02*
X3093603Y436849D01*
D12*
X3365720Y447420D02*
X3365720Y457580D01*
D10*
X3390107Y458602D02*
X3391208Y457500D01*
X3390107Y458602D02*
X3387904Y458602D01*
X3386802Y457500D01*
X3386802Y453094D01*
X3387904Y451992D01*
X3390107Y451992D01*
X3391208Y453094D01*
X3394286Y456398D02*
X3396489Y458602D01*
X3396489Y451992D01*
X3394286Y451992D02*
X3398693Y451992D01*
X3401770Y453094D02*
X3402872Y451992D01*
X3405075Y451992D01*
X3406177Y453094D01*
X3406177Y457500D01*
X3405075Y458602D01*
X3402872Y458602D01*
X3401770Y457500D01*
X3401770Y456398D01*
X3402872Y455297D01*
X3406177Y455297D01*
D13*
X3340720Y399572D02*
X3340720Y366572D01*
X3340720Y399572D02*
X3340720Y404572D01*
X3388720Y404572D01*
X3388720Y399572D01*
X3388720Y366572D01*
X3340720Y366572D01*
X3340720Y399572D02*
X3388720Y399572D01*
D14*
X3391810Y422319D02*
X3384014Y430115D01*
X3384014Y422319D02*
X3391810Y430115D01*
X3391810Y426217D02*
X3384014Y426217D01*
X3387912Y422319D02*
X3387912Y430115D01*
X3318344Y379458D02*
X3314446Y379458D01*
X3316395Y379458D02*
X3316395Y391152D01*
X3314446Y391152D02*
X3318344Y391152D01*
X3328089Y391152D02*
X3330038Y389203D01*
X3328089Y391152D02*
X3324191Y391152D01*
X3322242Y389203D01*
X3322242Y381407D01*
X3324191Y379458D01*
X3328089Y379458D01*
X3330038Y381407D01*
X3333936Y381407D02*
X3335885Y379458D01*
X3339783Y379458D01*
X3341732Y381407D01*
X3341732Y389203D01*
X3339783Y391152D01*
X3335885Y391152D01*
X3333936Y389203D01*
X3333936Y387254D01*
X3335885Y385305D01*
X3341732Y385305D01*
D12*
X3332800Y430500D02*
X3322640Y430500D01*
D10*
X3296176Y441692D02*
X3295074Y442794D01*
X3292871Y442794D01*
X3291770Y441692D01*
X3291770Y437286D01*
X3292871Y436184D01*
X3295074Y436184D01*
X3296176Y437286D01*
X3299254Y436184D02*
X3303660Y436184D01*
X3299254Y436184D02*
X3303660Y440590D01*
X3303660Y441692D01*
X3302559Y442794D01*
X3300355Y442794D01*
X3299254Y441692D01*
X3306738Y441692D02*
X3306738Y437286D01*
X3306738Y441692D02*
X3307839Y442794D01*
X3310043Y442794D01*
X3311144Y441692D01*
X3311144Y437286D01*
X3310043Y436184D01*
X3307839Y436184D01*
X3306738Y437286D01*
X3311144Y441692D01*
D12*
X3583720Y445420D02*
X3583720Y455580D01*
D10*
X3608107Y456602D02*
X3609208Y455500D01*
X3608107Y456602D02*
X3605904Y456602D01*
X3604802Y455500D01*
X3604802Y451094D01*
X3605904Y449992D01*
X3608107Y449992D01*
X3609208Y451094D01*
X3612286Y449992D02*
X3616693Y449992D01*
X3616693Y454398D02*
X3612286Y449992D01*
X3616693Y454398D02*
X3616693Y455500D01*
X3615591Y456602D01*
X3613388Y456602D01*
X3612286Y455500D01*
X3619770Y454398D02*
X3621974Y456602D01*
X3621974Y449992D01*
X3624177Y449992D02*
X3619770Y449992D01*
D13*
X3560720Y399572D02*
X3560720Y366572D01*
X3560720Y399572D02*
X3560720Y404572D01*
X3608720Y404572D01*
X3608720Y399572D01*
X3608720Y366572D01*
X3560720Y366572D01*
X3560720Y399572D02*
X3608720Y399572D01*
D14*
X3611810Y422319D02*
X3604014Y430115D01*
X3604014Y422319D02*
X3611810Y430115D01*
X3611810Y426217D02*
X3604014Y426217D01*
X3607912Y422319D02*
X3607912Y430115D01*
X3526624Y381018D02*
X3522726Y381018D01*
X3524675Y381018D02*
X3524675Y392712D01*
X3522726Y392712D02*
X3526624Y392712D01*
X3536369Y392712D02*
X3538318Y390763D01*
X3536369Y392712D02*
X3532471Y392712D01*
X3530522Y390763D01*
X3530522Y382967D01*
X3532471Y381018D01*
X3536369Y381018D01*
X3538318Y382967D01*
X3542216Y388814D02*
X3546114Y392712D01*
X3546114Y381018D01*
X3542216Y381018D02*
X3550012Y381018D01*
X3553910Y382967D02*
X3553910Y390763D01*
X3555859Y392712D01*
X3559757Y392712D01*
X3561706Y390763D01*
X3561706Y382967D01*
X3559757Y381018D01*
X3555859Y381018D01*
X3553910Y382967D01*
X3561706Y390763D01*
D12*
X3552800Y429500D02*
X3542640Y429500D01*
D10*
X3515616Y443252D02*
X3514514Y444354D01*
X3512311Y444354D01*
X3511210Y443252D01*
X3511210Y438846D01*
X3512311Y437744D01*
X3514514Y437744D01*
X3515616Y438846D01*
X3518694Y437744D02*
X3523100Y437744D01*
X3518694Y437744D02*
X3523100Y442150D01*
X3523100Y443252D01*
X3521999Y444354D01*
X3519795Y444354D01*
X3518694Y443252D01*
X3526178Y437744D02*
X3530584Y437744D01*
X3526178Y437744D02*
X3530584Y442150D01*
X3530584Y443252D01*
X3529483Y444354D01*
X3527279Y444354D01*
X3526178Y443252D01*
D16*
X3190100Y142140D02*
X3190100Y58140D01*
X3190100Y142140D02*
X3109100Y142140D01*
X3109100Y58140D01*
X3190100Y58140D01*
X3179600Y61140D02*
X3155600Y61140D01*
X3155600Y69140D01*
X3159600Y69140D01*
X3174600Y69140D01*
X3179600Y69140D01*
X3179600Y61140D01*
X3174600Y69140D02*
X3174600Y84140D01*
X3159600Y84140D02*
X3159600Y81140D01*
X3159600Y78140D01*
X3159600Y75140D01*
X3159600Y72140D01*
X3159600Y69140D01*
X3159600Y72140D02*
X3173600Y72140D01*
X3173600Y75140D02*
X3159600Y75140D01*
X3159600Y78140D02*
X3173600Y78140D01*
X3173600Y81140D02*
X3159600Y81140D01*
X3159600Y84140D02*
X3174600Y84140D01*
X3144600Y61140D02*
X3120600Y61140D01*
X3120600Y69140D01*
X3124600Y69140D01*
X3139600Y69140D01*
X3144600Y69140D01*
X3144600Y61140D01*
X3139600Y69140D02*
X3139600Y84140D01*
X3124600Y84140D02*
X3124600Y81140D01*
X3124600Y78140D01*
X3124600Y75140D01*
X3124600Y72140D01*
X3124600Y69140D01*
X3124600Y72140D02*
X3138600Y72140D01*
X3138600Y75140D02*
X3124600Y75140D01*
X3124600Y78140D02*
X3138600Y78140D01*
X3138600Y81140D02*
X3124600Y81140D01*
X3124600Y84140D02*
X3139600Y84140D01*
X3139362Y147685D02*
X3137455Y149592D01*
X3139362Y147685D02*
X3141268Y147685D01*
X3143175Y149592D01*
X3143175Y159125D01*
X3141268Y159125D02*
X3145082Y159125D01*
X3149149Y159125D02*
X3149149Y147685D01*
X3149149Y159125D02*
X3154869Y159125D01*
X3156775Y157218D01*
X3156775Y153405D01*
X3154869Y151498D01*
X3149149Y151498D01*
X3160843Y155312D02*
X3164656Y159125D01*
X3164656Y147685D01*
X3160843Y147685D02*
X3168469Y147685D01*
X205740Y644360D02*
X129540Y644360D01*
X218440Y645160D02*
X218440Y505460D01*
X116840Y505460D01*
X116840Y645160D01*
X154940Y645160D02*
X154940Y721360D01*
X180340Y721360D01*
X180340Y645160D01*
D14*
X197436Y607568D02*
X205232Y607568D01*
X197436Y607568D02*
X193538Y611466D01*
X197436Y615364D01*
X205232Y615364D01*
X199385Y615364D02*
X199385Y607568D01*
D12*
X132080Y469900D02*
X121920Y469900D01*
D10*
X94476Y474646D02*
X93374Y475748D01*
X91171Y475748D01*
X90070Y474646D01*
X90070Y470240D01*
X91171Y469138D01*
X93374Y469138D01*
X94476Y470240D01*
X97554Y469138D02*
X101960Y469138D01*
X97554Y469138D02*
X101960Y473544D01*
X101960Y474646D01*
X100859Y475748D01*
X98655Y475748D01*
X97554Y474646D01*
X105038Y474646D02*
X106139Y475748D01*
X108343Y475748D01*
X109444Y474646D01*
X109444Y473544D01*
X108343Y472443D01*
X107241Y472443D01*
X108343Y472443D02*
X109444Y471341D01*
X109444Y470240D01*
X108343Y469138D01*
X106139Y469138D01*
X105038Y470240D01*
D12*
X238760Y538480D02*
X248920Y538480D01*
D10*
X257966Y528072D02*
X259068Y526970D01*
X257966Y528072D02*
X255763Y528072D01*
X254662Y526970D01*
X254662Y522564D01*
X255763Y521462D01*
X257966Y521462D01*
X259068Y522564D01*
X262146Y521462D02*
X266552Y521462D01*
X262146Y521462D02*
X266552Y525868D01*
X266552Y526970D01*
X265451Y528072D01*
X263247Y528072D01*
X262146Y526970D01*
X271833Y526970D02*
X274036Y528072D01*
X271833Y526970D02*
X269630Y524767D01*
X269630Y522564D01*
X270731Y521462D01*
X272935Y521462D01*
X274036Y522564D01*
X274036Y523665D01*
X272935Y524767D01*
X269630Y524767D01*
X2103135Y126746D02*
X2103137Y126908D01*
X2103143Y127069D01*
X2103153Y127231D01*
X2103167Y127392D01*
X2103185Y127553D01*
X2103206Y127713D01*
X2103232Y127872D01*
X2103262Y128031D01*
X2103295Y128190D01*
X2103332Y128347D01*
X2103374Y128503D01*
X2103419Y128659D01*
X2103468Y128813D01*
X2103520Y128966D01*
X2103577Y129117D01*
X2103637Y129268D01*
X2103700Y129416D01*
X2103768Y129563D01*
X2103839Y129708D01*
X2103913Y129852D01*
X2103991Y129994D01*
X2104072Y130133D01*
X2104157Y130271D01*
X2104245Y130407D01*
X2104337Y130540D01*
X2104432Y130671D01*
X2104530Y130800D01*
X2104631Y130926D01*
X2104735Y131050D01*
X2104842Y131171D01*
X2104952Y131289D01*
X2105065Y131405D01*
X2105181Y131518D01*
X2105299Y131628D01*
X2105420Y131735D01*
X2105544Y131839D01*
X2105670Y131940D01*
X2105799Y132038D01*
X2105930Y132133D01*
X2106063Y132225D01*
X2106199Y132313D01*
X2106337Y132398D01*
X2106476Y132479D01*
X2106618Y132557D01*
X2106762Y132631D01*
X2106907Y132702D01*
X2107054Y132770D01*
X2107202Y132833D01*
X2107353Y132893D01*
X2107504Y132950D01*
X2107657Y133002D01*
X2107811Y133051D01*
X2107967Y133096D01*
X2108123Y133138D01*
X2108280Y133175D01*
X2108439Y133208D01*
X2108598Y133238D01*
X2108757Y133264D01*
X2108917Y133285D01*
X2109078Y133303D01*
X2109239Y133317D01*
X2109401Y133327D01*
X2109562Y133333D01*
X2109724Y133335D01*
X2109886Y133333D01*
X2110047Y133327D01*
X2110209Y133317D01*
X2110370Y133303D01*
X2110531Y133285D01*
X2110691Y133264D01*
X2110850Y133238D01*
X2111009Y133208D01*
X2111168Y133175D01*
X2111325Y133138D01*
X2111481Y133096D01*
X2111637Y133051D01*
X2111791Y133002D01*
X2111944Y132950D01*
X2112095Y132893D01*
X2112246Y132833D01*
X2112394Y132770D01*
X2112541Y132702D01*
X2112686Y132631D01*
X2112830Y132557D01*
X2112972Y132479D01*
X2113111Y132398D01*
X2113249Y132313D01*
X2113385Y132225D01*
X2113518Y132133D01*
X2113649Y132038D01*
X2113778Y131940D01*
X2113904Y131839D01*
X2114028Y131735D01*
X2114149Y131628D01*
X2114267Y131518D01*
X2114383Y131405D01*
X2114496Y131289D01*
X2114606Y131171D01*
X2114713Y131050D01*
X2114817Y130926D01*
X2114918Y130800D01*
X2115016Y130671D01*
X2115111Y130540D01*
X2115203Y130407D01*
X2115291Y130271D01*
X2115376Y130133D01*
X2115457Y129994D01*
X2115535Y129852D01*
X2115609Y129708D01*
X2115680Y129563D01*
X2115748Y129416D01*
X2115811Y129268D01*
X2115871Y129117D01*
X2115928Y128966D01*
X2115980Y128813D01*
X2116029Y128659D01*
X2116074Y128503D01*
X2116116Y128347D01*
X2116153Y128190D01*
X2116186Y128031D01*
X2116216Y127872D01*
X2116242Y127713D01*
X2116263Y127553D01*
X2116281Y127392D01*
X2116295Y127231D01*
X2116305Y127069D01*
X2116311Y126908D01*
X2116313Y126746D01*
X2116311Y126584D01*
X2116305Y126423D01*
X2116295Y126261D01*
X2116281Y126100D01*
X2116263Y125939D01*
X2116242Y125779D01*
X2116216Y125620D01*
X2116186Y125461D01*
X2116153Y125302D01*
X2116116Y125145D01*
X2116074Y124989D01*
X2116029Y124833D01*
X2115980Y124679D01*
X2115928Y124526D01*
X2115871Y124375D01*
X2115811Y124224D01*
X2115748Y124076D01*
X2115680Y123929D01*
X2115609Y123784D01*
X2115535Y123640D01*
X2115457Y123498D01*
X2115376Y123359D01*
X2115291Y123221D01*
X2115203Y123085D01*
X2115111Y122952D01*
X2115016Y122821D01*
X2114918Y122692D01*
X2114817Y122566D01*
X2114713Y122442D01*
X2114606Y122321D01*
X2114496Y122203D01*
X2114383Y122087D01*
X2114267Y121974D01*
X2114149Y121864D01*
X2114028Y121757D01*
X2113904Y121653D01*
X2113778Y121552D01*
X2113649Y121454D01*
X2113518Y121359D01*
X2113385Y121267D01*
X2113249Y121179D01*
X2113111Y121094D01*
X2112972Y121013D01*
X2112830Y120935D01*
X2112686Y120861D01*
X2112541Y120790D01*
X2112394Y120722D01*
X2112246Y120659D01*
X2112095Y120599D01*
X2111944Y120542D01*
X2111791Y120490D01*
X2111637Y120441D01*
X2111481Y120396D01*
X2111325Y120354D01*
X2111168Y120317D01*
X2111009Y120284D01*
X2110850Y120254D01*
X2110691Y120228D01*
X2110531Y120207D01*
X2110370Y120189D01*
X2110209Y120175D01*
X2110047Y120165D01*
X2109886Y120159D01*
X2109724Y120157D01*
X2109562Y120159D01*
X2109401Y120165D01*
X2109239Y120175D01*
X2109078Y120189D01*
X2108917Y120207D01*
X2108757Y120228D01*
X2108598Y120254D01*
X2108439Y120284D01*
X2108280Y120317D01*
X2108123Y120354D01*
X2107967Y120396D01*
X2107811Y120441D01*
X2107657Y120490D01*
X2107504Y120542D01*
X2107353Y120599D01*
X2107202Y120659D01*
X2107054Y120722D01*
X2106907Y120790D01*
X2106762Y120861D01*
X2106618Y120935D01*
X2106476Y121013D01*
X2106337Y121094D01*
X2106199Y121179D01*
X2106063Y121267D01*
X2105930Y121359D01*
X2105799Y121454D01*
X2105670Y121552D01*
X2105544Y121653D01*
X2105420Y121757D01*
X2105299Y121864D01*
X2105181Y121974D01*
X2105065Y122087D01*
X2104952Y122203D01*
X2104842Y122321D01*
X2104735Y122442D01*
X2104631Y122566D01*
X2104530Y122692D01*
X2104432Y122821D01*
X2104337Y122952D01*
X2104245Y123085D01*
X2104157Y123221D01*
X2104072Y123359D01*
X2103991Y123498D01*
X2103913Y123640D01*
X2103839Y123784D01*
X2103768Y123929D01*
X2103700Y124076D01*
X2103637Y124224D01*
X2103577Y124375D01*
X2103520Y124526D01*
X2103468Y124679D01*
X2103419Y124833D01*
X2103374Y124989D01*
X2103332Y125145D01*
X2103295Y125302D01*
X2103262Y125461D01*
X2103232Y125620D01*
X2103206Y125779D01*
X2103185Y125939D01*
X2103167Y126100D01*
X2103153Y126261D01*
X2103143Y126423D01*
X2103137Y126584D01*
X2103135Y126746D01*
X2104420Y127000D02*
X2104422Y127146D01*
X2104428Y127291D01*
X2104438Y127436D01*
X2104452Y127581D01*
X2104470Y127725D01*
X2104492Y127869D01*
X2104518Y128012D01*
X2104547Y128155D01*
X2104581Y128296D01*
X2104618Y128437D01*
X2104660Y128577D01*
X2104705Y128715D01*
X2104754Y128852D01*
X2104807Y128988D01*
X2104863Y129122D01*
X2104923Y129254D01*
X2104987Y129385D01*
X2105054Y129514D01*
X2105125Y129641D01*
X2105199Y129767D01*
X2105276Y129890D01*
X2105357Y130011D01*
X2105442Y130129D01*
X2105529Y130246D01*
X2105620Y130360D01*
X2105713Y130471D01*
X2105810Y130580D01*
X2105910Y130686D01*
X2106012Y130789D01*
X2106118Y130889D01*
X2106226Y130987D01*
X2106336Y131081D01*
X2106450Y131173D01*
X2106565Y131261D01*
X2106683Y131346D01*
X2106804Y131428D01*
X2106926Y131506D01*
X2107051Y131581D01*
X2107178Y131653D01*
X2107306Y131721D01*
X2107437Y131785D01*
X2107569Y131846D01*
X2107703Y131904D01*
X2107838Y131957D01*
X2107975Y132007D01*
X2108113Y132053D01*
X2108252Y132096D01*
X2108392Y132134D01*
X2108534Y132169D01*
X2108676Y132199D01*
X2108819Y132226D01*
X2108963Y132249D01*
X2109107Y132268D01*
X2109252Y132283D01*
X2109397Y132294D01*
X2109542Y132301D01*
X2109688Y132304D01*
X2109833Y132303D01*
X2109979Y132298D01*
X2110124Y132289D01*
X2110269Y132276D01*
X2110413Y132259D01*
X2110557Y132238D01*
X2110701Y132213D01*
X2110843Y132185D01*
X2110985Y132152D01*
X2111126Y132115D01*
X2111266Y132075D01*
X2111404Y132031D01*
X2111542Y131983D01*
X2111678Y131931D01*
X2111812Y131876D01*
X2111945Y131816D01*
X2112077Y131754D01*
X2112206Y131687D01*
X2112334Y131617D01*
X2112460Y131544D01*
X2112583Y131467D01*
X2112705Y131387D01*
X2112824Y131304D01*
X2112941Y131217D01*
X2113055Y131127D01*
X2113167Y131034D01*
X2113277Y130938D01*
X2113383Y130839D01*
X2113487Y130738D01*
X2113588Y130633D01*
X2113687Y130526D01*
X2113782Y130416D01*
X2113874Y130303D01*
X2113963Y130188D01*
X2114049Y130070D01*
X2114132Y129951D01*
X2114211Y129828D01*
X2114287Y129704D01*
X2114359Y129578D01*
X2114428Y129450D01*
X2114494Y129320D01*
X2114556Y129188D01*
X2114614Y129055D01*
X2114668Y128920D01*
X2114719Y128784D01*
X2114766Y128646D01*
X2114809Y128507D01*
X2114849Y128367D01*
X2114884Y128226D01*
X2114916Y128084D01*
X2114944Y127941D01*
X2114968Y127797D01*
X2114988Y127653D01*
X2115004Y127509D01*
X2115016Y127364D01*
X2115024Y127218D01*
X2115028Y127073D01*
X2115028Y126927D01*
X2115024Y126782D01*
X2115016Y126636D01*
X2115004Y126491D01*
X2114988Y126347D01*
X2114968Y126203D01*
X2114944Y126059D01*
X2114916Y125916D01*
X2114884Y125774D01*
X2114849Y125633D01*
X2114809Y125493D01*
X2114766Y125354D01*
X2114719Y125216D01*
X2114668Y125080D01*
X2114614Y124945D01*
X2114556Y124812D01*
X2114494Y124680D01*
X2114428Y124550D01*
X2114359Y124422D01*
X2114287Y124296D01*
X2114211Y124172D01*
X2114132Y124049D01*
X2114049Y123930D01*
X2113963Y123812D01*
X2113874Y123697D01*
X2113782Y123584D01*
X2113687Y123474D01*
X2113588Y123367D01*
X2113487Y123262D01*
X2113383Y123161D01*
X2113277Y123062D01*
X2113167Y122966D01*
X2113055Y122873D01*
X2112941Y122783D01*
X2112824Y122696D01*
X2112705Y122613D01*
X2112583Y122533D01*
X2112460Y122456D01*
X2112334Y122383D01*
X2112206Y122313D01*
X2112077Y122246D01*
X2111945Y122184D01*
X2111812Y122124D01*
X2111678Y122069D01*
X2111542Y122017D01*
X2111404Y121969D01*
X2111266Y121925D01*
X2111126Y121885D01*
X2110985Y121848D01*
X2110843Y121815D01*
X2110701Y121787D01*
X2110557Y121762D01*
X2110413Y121741D01*
X2110269Y121724D01*
X2110124Y121711D01*
X2109979Y121702D01*
X2109833Y121697D01*
X2109688Y121696D01*
X2109542Y121699D01*
X2109397Y121706D01*
X2109252Y121717D01*
X2109107Y121732D01*
X2108963Y121751D01*
X2108819Y121774D01*
X2108676Y121801D01*
X2108534Y121831D01*
X2108392Y121866D01*
X2108252Y121904D01*
X2108113Y121947D01*
X2107975Y121993D01*
X2107838Y122043D01*
X2107703Y122096D01*
X2107569Y122154D01*
X2107437Y122215D01*
X2107306Y122279D01*
X2107178Y122347D01*
X2107051Y122419D01*
X2106926Y122494D01*
X2106804Y122572D01*
X2106683Y122654D01*
X2106565Y122739D01*
X2106450Y122827D01*
X2106336Y122919D01*
X2106226Y123013D01*
X2106118Y123111D01*
X2106012Y123211D01*
X2105910Y123314D01*
X2105810Y123420D01*
X2105713Y123529D01*
X2105620Y123640D01*
X2105529Y123754D01*
X2105442Y123871D01*
X2105357Y123989D01*
X2105276Y124110D01*
X2105199Y124233D01*
X2105125Y124359D01*
X2105054Y124486D01*
X2104987Y124615D01*
X2104923Y124746D01*
X2104863Y124878D01*
X2104807Y125012D01*
X2104754Y125148D01*
X2104705Y125285D01*
X2104660Y125423D01*
X2104618Y125563D01*
X2104581Y125704D01*
X2104547Y125845D01*
X2104518Y125988D01*
X2104492Y126131D01*
X2104470Y126275D01*
X2104452Y126419D01*
X2104438Y126564D01*
X2104428Y126709D01*
X2104422Y126854D01*
X2104420Y127000D01*
X2105962Y127000D02*
X2105964Y127126D01*
X2105970Y127252D01*
X2105980Y127378D01*
X2105994Y127503D01*
X2106011Y127628D01*
X2106033Y127753D01*
X2106059Y127876D01*
X2106088Y127999D01*
X2106121Y128120D01*
X2106159Y128241D01*
X2106199Y128360D01*
X2106244Y128478D01*
X2106292Y128595D01*
X2106344Y128710D01*
X2106400Y128823D01*
X2106459Y128935D01*
X2106521Y129044D01*
X2106587Y129152D01*
X2106656Y129257D01*
X2106729Y129361D01*
X2106805Y129461D01*
X2106884Y129560D01*
X2106966Y129656D01*
X2107050Y129749D01*
X2107138Y129840D01*
X2107229Y129928D01*
X2107322Y130012D01*
X2107418Y130094D01*
X2107517Y130173D01*
X2107617Y130249D01*
X2107721Y130322D01*
X2107826Y130391D01*
X2107934Y130457D01*
X2108043Y130519D01*
X2108155Y130578D01*
X2108268Y130634D01*
X2108383Y130686D01*
X2108500Y130734D01*
X2108618Y130779D01*
X2108737Y130819D01*
X2108858Y130857D01*
X2108979Y130890D01*
X2109102Y130919D01*
X2109225Y130945D01*
X2109350Y130967D01*
X2109475Y130984D01*
X2109600Y130998D01*
X2109726Y131008D01*
X2109852Y131014D01*
X2109978Y131016D01*
X2110104Y131014D01*
X2110230Y131008D01*
X2110356Y130998D01*
X2110481Y130984D01*
X2110606Y130967D01*
X2110731Y130945D01*
X2110854Y130919D01*
X2110977Y130890D01*
X2111098Y130857D01*
X2111219Y130819D01*
X2111338Y130779D01*
X2111456Y130734D01*
X2111573Y130686D01*
X2111688Y130634D01*
X2111801Y130578D01*
X2111913Y130519D01*
X2112022Y130457D01*
X2112130Y130391D01*
X2112235Y130322D01*
X2112339Y130249D01*
X2112439Y130173D01*
X2112538Y130094D01*
X2112634Y130012D01*
X2112727Y129928D01*
X2112818Y129840D01*
X2112906Y129749D01*
X2112990Y129656D01*
X2113072Y129560D01*
X2113151Y129461D01*
X2113227Y129361D01*
X2113300Y129257D01*
X2113369Y129152D01*
X2113435Y129044D01*
X2113497Y128935D01*
X2113556Y128823D01*
X2113612Y128710D01*
X2113664Y128595D01*
X2113712Y128478D01*
X2113757Y128360D01*
X2113797Y128241D01*
X2113835Y128120D01*
X2113868Y127999D01*
X2113897Y127876D01*
X2113923Y127753D01*
X2113945Y127628D01*
X2113962Y127503D01*
X2113976Y127378D01*
X2113986Y127252D01*
X2113992Y127126D01*
X2113994Y127000D01*
X2113992Y126874D01*
X2113986Y126748D01*
X2113976Y126622D01*
X2113962Y126497D01*
X2113945Y126372D01*
X2113923Y126247D01*
X2113897Y126124D01*
X2113868Y126001D01*
X2113835Y125880D01*
X2113797Y125759D01*
X2113757Y125640D01*
X2113712Y125522D01*
X2113664Y125405D01*
X2113612Y125290D01*
X2113556Y125177D01*
X2113497Y125065D01*
X2113435Y124956D01*
X2113369Y124848D01*
X2113300Y124743D01*
X2113227Y124639D01*
X2113151Y124539D01*
X2113072Y124440D01*
X2112990Y124344D01*
X2112906Y124251D01*
X2112818Y124160D01*
X2112727Y124072D01*
X2112634Y123988D01*
X2112538Y123906D01*
X2112439Y123827D01*
X2112339Y123751D01*
X2112235Y123678D01*
X2112130Y123609D01*
X2112022Y123543D01*
X2111913Y123481D01*
X2111801Y123422D01*
X2111688Y123366D01*
X2111573Y123314D01*
X2111456Y123266D01*
X2111338Y123221D01*
X2111219Y123181D01*
X2111098Y123143D01*
X2110977Y123110D01*
X2110854Y123081D01*
X2110731Y123055D01*
X2110606Y123033D01*
X2110481Y123016D01*
X2110356Y123002D01*
X2110230Y122992D01*
X2110104Y122986D01*
X2109978Y122984D01*
X2109852Y122986D01*
X2109726Y122992D01*
X2109600Y123002D01*
X2109475Y123016D01*
X2109350Y123033D01*
X2109225Y123055D01*
X2109102Y123081D01*
X2108979Y123110D01*
X2108858Y123143D01*
X2108737Y123181D01*
X2108618Y123221D01*
X2108500Y123266D01*
X2108383Y123314D01*
X2108268Y123366D01*
X2108155Y123422D01*
X2108043Y123481D01*
X2107934Y123543D01*
X2107826Y123609D01*
X2107721Y123678D01*
X2107617Y123751D01*
X2107517Y123827D01*
X2107418Y123906D01*
X2107322Y123988D01*
X2107229Y124072D01*
X2107138Y124160D01*
X2107050Y124251D01*
X2106966Y124344D01*
X2106884Y124440D01*
X2106805Y124539D01*
X2106729Y124639D01*
X2106656Y124743D01*
X2106587Y124848D01*
X2106521Y124956D01*
X2106459Y125065D01*
X2106400Y125177D01*
X2106344Y125290D01*
X2106292Y125405D01*
X2106244Y125522D01*
X2106199Y125640D01*
X2106159Y125759D01*
X2106121Y125880D01*
X2106088Y126001D01*
X2106059Y126124D01*
X2106033Y126247D01*
X2106011Y126372D01*
X2105994Y126497D01*
X2105980Y126622D01*
X2105970Y126748D01*
X2105964Y126874D01*
X2105962Y127000D01*
X2107388Y127000D02*
X2107390Y127102D01*
X2107396Y127203D01*
X2107406Y127304D01*
X2107420Y127405D01*
X2107438Y127505D01*
X2107460Y127605D01*
X2107485Y127703D01*
X2107515Y127800D01*
X2107548Y127896D01*
X2107585Y127991D01*
X2107626Y128084D01*
X2107670Y128176D01*
X2107718Y128266D01*
X2107770Y128353D01*
X2107824Y128439D01*
X2107883Y128522D01*
X2107944Y128603D01*
X2108009Y128682D01*
X2108076Y128758D01*
X2108147Y128831D01*
X2108220Y128902D01*
X2108296Y128969D01*
X2108375Y129034D01*
X2108456Y129095D01*
X2108539Y129154D01*
X2108625Y129208D01*
X2108712Y129260D01*
X2108802Y129308D01*
X2108894Y129352D01*
X2108987Y129393D01*
X2109082Y129430D01*
X2109178Y129463D01*
X2109275Y129493D01*
X2109373Y129518D01*
X2109473Y129540D01*
X2109573Y129558D01*
X2109674Y129572D01*
X2109775Y129582D01*
X2109876Y129588D01*
X2109978Y129590D01*
X2110080Y129588D01*
X2110181Y129582D01*
X2110282Y129572D01*
X2110383Y129558D01*
X2110483Y129540D01*
X2110583Y129518D01*
X2110681Y129493D01*
X2110778Y129463D01*
X2110874Y129430D01*
X2110969Y129393D01*
X2111062Y129352D01*
X2111154Y129308D01*
X2111244Y129260D01*
X2111331Y129208D01*
X2111417Y129154D01*
X2111500Y129095D01*
X2111581Y129034D01*
X2111660Y128969D01*
X2111736Y128902D01*
X2111809Y128831D01*
X2111880Y128758D01*
X2111947Y128682D01*
X2112012Y128603D01*
X2112073Y128522D01*
X2112132Y128439D01*
X2112186Y128353D01*
X2112238Y128266D01*
X2112286Y128176D01*
X2112330Y128084D01*
X2112371Y127991D01*
X2112408Y127896D01*
X2112441Y127800D01*
X2112471Y127703D01*
X2112496Y127605D01*
X2112518Y127505D01*
X2112536Y127405D01*
X2112550Y127304D01*
X2112560Y127203D01*
X2112566Y127102D01*
X2112568Y127000D01*
X2112566Y126898D01*
X2112560Y126797D01*
X2112550Y126696D01*
X2112536Y126595D01*
X2112518Y126495D01*
X2112496Y126395D01*
X2112471Y126297D01*
X2112441Y126200D01*
X2112408Y126104D01*
X2112371Y126009D01*
X2112330Y125916D01*
X2112286Y125824D01*
X2112238Y125734D01*
X2112186Y125647D01*
X2112132Y125561D01*
X2112073Y125478D01*
X2112012Y125397D01*
X2111947Y125318D01*
X2111880Y125242D01*
X2111809Y125169D01*
X2111736Y125098D01*
X2111660Y125031D01*
X2111581Y124966D01*
X2111500Y124905D01*
X2111417Y124846D01*
X2111331Y124792D01*
X2111244Y124740D01*
X2111154Y124692D01*
X2111062Y124648D01*
X2110969Y124607D01*
X2110874Y124570D01*
X2110778Y124537D01*
X2110681Y124507D01*
X2110583Y124482D01*
X2110483Y124460D01*
X2110383Y124442D01*
X2110282Y124428D01*
X2110181Y124418D01*
X2110080Y124412D01*
X2109978Y124410D01*
X2109876Y124412D01*
X2109775Y124418D01*
X2109674Y124428D01*
X2109573Y124442D01*
X2109473Y124460D01*
X2109373Y124482D01*
X2109275Y124507D01*
X2109178Y124537D01*
X2109082Y124570D01*
X2108987Y124607D01*
X2108894Y124648D01*
X2108802Y124692D01*
X2108712Y124740D01*
X2108625Y124792D01*
X2108539Y124846D01*
X2108456Y124905D01*
X2108375Y124966D01*
X2108296Y125031D01*
X2108220Y125098D01*
X2108147Y125169D01*
X2108076Y125242D01*
X2108009Y125318D01*
X2107944Y125397D01*
X2107883Y125478D01*
X2107824Y125561D01*
X2107770Y125647D01*
X2107718Y125734D01*
X2107670Y125824D01*
X2107626Y125916D01*
X2107585Y126009D01*
X2107548Y126104D01*
X2107515Y126200D01*
X2107485Y126297D01*
X2107460Y126395D01*
X2107438Y126495D01*
X2107420Y126595D01*
X2107406Y126696D01*
X2107396Y126797D01*
X2107390Y126898D01*
X2107388Y127000D01*
X2108356Y127000D02*
X2108358Y127073D01*
X2108364Y127147D01*
X2108374Y127219D01*
X2108387Y127292D01*
X2108405Y127363D01*
X2108426Y127433D01*
X2108452Y127502D01*
X2108480Y127570D01*
X2108513Y127636D01*
X2108549Y127700D01*
X2108588Y127762D01*
X2108630Y127822D01*
X2108676Y127879D01*
X2108725Y127934D01*
X2108776Y127987D01*
X2108831Y128036D01*
X2108888Y128083D01*
X2108947Y128126D01*
X2109008Y128166D01*
X2109072Y128203D01*
X2109138Y128236D01*
X2109205Y128266D01*
X2109273Y128292D01*
X2109343Y128314D01*
X2109414Y128333D01*
X2109486Y128347D01*
X2109559Y128358D01*
X2109632Y128365D01*
X2109706Y128368D01*
X2109779Y128367D01*
X2109852Y128362D01*
X2109925Y128353D01*
X2109998Y128340D01*
X2110069Y128324D01*
X2110140Y128303D01*
X2110209Y128279D01*
X2110277Y128251D01*
X2110343Y128220D01*
X2110408Y128185D01*
X2110471Y128146D01*
X2110531Y128105D01*
X2110589Y128060D01*
X2110645Y128012D01*
X2110698Y127961D01*
X2110748Y127907D01*
X2110795Y127851D01*
X2110839Y127792D01*
X2110880Y127731D01*
X2110918Y127668D01*
X2110952Y127603D01*
X2110983Y127536D01*
X2111009Y127468D01*
X2111033Y127398D01*
X2111052Y127327D01*
X2111068Y127256D01*
X2111080Y127183D01*
X2111088Y127110D01*
X2111092Y127037D01*
X2111092Y126963D01*
X2111088Y126890D01*
X2111080Y126817D01*
X2111068Y126744D01*
X2111052Y126673D01*
X2111033Y126602D01*
X2111009Y126532D01*
X2110983Y126464D01*
X2110952Y126397D01*
X2110918Y126332D01*
X2110880Y126269D01*
X2110839Y126208D01*
X2110795Y126149D01*
X2110748Y126093D01*
X2110698Y126039D01*
X2110645Y125988D01*
X2110589Y125940D01*
X2110531Y125895D01*
X2110471Y125854D01*
X2110408Y125815D01*
X2110343Y125780D01*
X2110277Y125749D01*
X2110209Y125721D01*
X2110140Y125697D01*
X2110069Y125676D01*
X2109998Y125660D01*
X2109925Y125647D01*
X2109852Y125638D01*
X2109779Y125633D01*
X2109706Y125632D01*
X2109632Y125635D01*
X2109559Y125642D01*
X2109486Y125653D01*
X2109414Y125667D01*
X2109343Y125686D01*
X2109273Y125708D01*
X2109205Y125734D01*
X2109138Y125764D01*
X2109072Y125797D01*
X2109008Y125834D01*
X2108947Y125874D01*
X2108888Y125917D01*
X2108831Y125964D01*
X2108776Y126013D01*
X2108725Y126066D01*
X2108676Y126121D01*
X2108630Y126178D01*
X2108588Y126238D01*
X2108549Y126300D01*
X2108513Y126364D01*
X2108480Y126430D01*
X2108452Y126498D01*
X2108426Y126567D01*
X2108405Y126637D01*
X2108387Y126708D01*
X2108374Y126781D01*
X2108364Y126853D01*
X2108358Y126927D01*
X2108356Y127000D01*
X2108902Y127000D02*
X2108904Y127048D01*
X2108910Y127095D01*
X2108920Y127141D01*
X2108934Y127187D01*
X2108951Y127231D01*
X2108972Y127274D01*
X2108997Y127314D01*
X2109025Y127353D01*
X2109056Y127389D01*
X2109090Y127422D01*
X2109127Y127452D01*
X2109166Y127480D01*
X2109207Y127503D01*
X2109250Y127524D01*
X2109294Y127540D01*
X2109340Y127553D01*
X2109387Y127562D01*
X2109434Y127567D01*
X2109482Y127568D01*
X2109529Y127565D01*
X2109576Y127558D01*
X2109623Y127547D01*
X2109668Y127532D01*
X2109712Y127514D01*
X2109754Y127492D01*
X2109794Y127466D01*
X2109832Y127438D01*
X2109867Y127406D01*
X2109900Y127371D01*
X2109930Y127334D01*
X2109956Y127294D01*
X2109979Y127253D01*
X2109998Y127209D01*
X2110014Y127164D01*
X2110026Y127118D01*
X2110034Y127071D01*
X2110038Y127024D01*
X2110038Y126976D01*
X2110034Y126929D01*
X2110026Y126882D01*
X2110014Y126836D01*
X2109998Y126791D01*
X2109979Y126747D01*
X2109956Y126706D01*
X2109930Y126666D01*
X2109900Y126629D01*
X2109867Y126594D01*
X2109832Y126562D01*
X2109794Y126534D01*
X2109754Y126508D01*
X2109712Y126486D01*
X2109668Y126468D01*
X2109623Y126453D01*
X2109576Y126442D01*
X2109529Y126435D01*
X2109482Y126432D01*
X2109434Y126433D01*
X2109387Y126438D01*
X2109340Y126447D01*
X2109294Y126460D01*
X2109250Y126476D01*
X2109207Y126497D01*
X2109166Y126520D01*
X2109127Y126548D01*
X2109090Y126578D01*
X2109056Y126611D01*
X2109025Y126647D01*
X2108997Y126686D01*
X2108972Y126726D01*
X2108951Y126769D01*
X2108934Y126813D01*
X2108920Y126859D01*
X2108910Y126905D01*
X2108904Y126952D01*
X2108902Y127000D01*
D12*
X167640Y469900D02*
X157480Y469900D01*
D10*
X180089Y478542D02*
X181190Y477440D01*
X180089Y478542D02*
X177886Y478542D01*
X176784Y477440D01*
X176784Y473034D01*
X177886Y471932D01*
X180089Y471932D01*
X181190Y473034D01*
X184268Y471932D02*
X188675Y471932D01*
X188675Y476338D02*
X184268Y471932D01*
X188675Y476338D02*
X188675Y477440D01*
X187573Y478542D01*
X185370Y478542D01*
X184268Y477440D01*
X195057Y478542D02*
X195057Y471932D01*
X191752Y475237D02*
X195057Y478542D01*
X196159Y475237D02*
X191752Y475237D01*
X655320Y358140D02*
X807720Y358140D01*
X655320Y358140D02*
X655320Y421640D01*
X807720Y421640D02*
X807720Y358140D01*
X807720Y345440D02*
X820420Y345440D01*
X642620Y345440D02*
X642620Y434340D01*
X820420Y434340D02*
X820420Y345440D01*
X662940Y421640D02*
X655320Y421640D01*
X711200Y414020D02*
X751840Y414020D01*
X751840Y421640D01*
X711200Y421640D02*
X711200Y414020D01*
X711200Y421640D02*
X711200Y424180D01*
X655320Y345440D02*
X655320Y342900D01*
X668020Y342900D01*
X668020Y345440D01*
X655320Y345440D02*
X642620Y345440D01*
X725170Y342900D02*
X737870Y342900D01*
X725170Y342900D02*
X725170Y345440D01*
X668020Y345440D01*
X737870Y345440D02*
X737870Y342900D01*
X795020Y342900D02*
X807720Y342900D01*
X807720Y345440D01*
X795020Y345440D02*
X795020Y342900D01*
X795020Y345440D02*
X737870Y345440D01*
X671830Y434340D02*
X642620Y434340D01*
X671830Y434340D02*
X689610Y434340D01*
X711200Y434340D01*
X751840Y434340D01*
X762000Y434340D01*
X662940Y424180D02*
X662940Y421640D01*
X698500Y421640D02*
X711200Y421640D01*
X698500Y421640D02*
X698500Y424180D01*
X698500Y421640D02*
X662940Y421640D01*
X668020Y429260D02*
X671830Y434340D01*
X689610Y434340D02*
X693420Y429260D01*
X698500Y429260D01*
D17*
X698500Y424180D02*
X662940Y424180D01*
X698500Y424180D02*
X711200Y424180D01*
D10*
X711200Y434340D01*
D17*
X662940Y424180D02*
X652780Y424180D01*
X652780Y355600D01*
X810260Y355600D01*
X810260Y424180D01*
X774700Y424180D01*
D10*
X662940Y424180D02*
X662940Y429260D01*
X668020Y429260D01*
X698500Y429260D02*
X698500Y424180D01*
X693420Y429260D02*
X668020Y429260D01*
X777240Y434340D02*
X820420Y434340D01*
X777240Y434340D02*
X777240Y433070D01*
X762000Y433070D01*
X762000Y434340D01*
X751840Y429260D02*
X751840Y424180D01*
X774700Y424180D02*
X774700Y429260D01*
D17*
X774700Y424180D02*
X751840Y424180D01*
D10*
X751840Y421640D01*
X774700Y421640D01*
X807720Y421640D01*
X774700Y421640D02*
X774700Y424180D01*
X751840Y429260D02*
X751840Y434340D01*
X763270Y429260D02*
X774700Y429260D01*
X763270Y429260D02*
X751840Y429260D01*
X762000Y434340D02*
X763270Y429260D01*
D16*
X726178Y429905D02*
X724271Y427998D01*
X726178Y429905D02*
X729991Y429905D01*
X731898Y427998D01*
X731898Y426092D01*
X729991Y424185D01*
X731898Y422278D01*
X731898Y420372D01*
X729991Y418465D01*
X726178Y418465D01*
X724271Y420372D01*
X724271Y422278D01*
X726178Y424185D01*
X724271Y426092D01*
X724271Y427998D01*
X726178Y424185D02*
X729991Y424185D01*
X783961Y404502D02*
X787774Y408315D01*
X787774Y396875D01*
X783961Y396875D02*
X791588Y396875D01*
X791588Y371475D02*
X783961Y371475D01*
X791588Y379102D01*
X791588Y381008D01*
X789681Y382915D01*
X785868Y382915D01*
X783961Y381008D01*
D18*
X637704Y439039D02*
X635034Y441708D01*
X637704Y439039D02*
X640373Y439039D01*
X643042Y441708D01*
X643042Y455055D01*
X640373Y455055D02*
X645711Y455055D01*
X651406Y455055D02*
X651406Y439039D01*
X651406Y455055D02*
X659414Y455055D01*
X662083Y452385D01*
X662083Y447047D01*
X659414Y444378D01*
X651406Y444378D01*
X667777Y439039D02*
X678455Y439039D01*
X678455Y449716D02*
X667777Y439039D01*
X678455Y449716D02*
X678455Y452385D01*
X675785Y455055D01*
X670447Y455055D01*
X667777Y452385D01*
D10*
X741426Y302514D02*
X750316Y302514D01*
X843534Y302514D02*
X843534Y293624D01*
X843534Y200406D02*
X834644Y200406D01*
X744728Y292862D02*
X751078Y299212D01*
X750316Y200406D02*
X741426Y200406D01*
X843534Y200406D02*
X843534Y209296D01*
X843534Y302514D02*
X834644Y302514D01*
X741426Y302514D02*
X741426Y293624D01*
X741426Y209296D02*
X741426Y200406D01*
D16*
X740791Y321819D02*
X740791Y327539D01*
X740791Y321819D02*
X741935Y320675D01*
X744223Y320675D01*
X745367Y321819D01*
X745367Y327539D01*
X748275Y326395D02*
X749419Y327539D01*
X751707Y327539D01*
X752851Y326395D01*
X752851Y325251D01*
X751707Y324107D01*
X752851Y322963D01*
X752851Y321819D01*
X751707Y320675D01*
X749419Y320675D01*
X748275Y321819D01*
X748275Y322963D01*
X749419Y324107D01*
X748275Y325251D01*
X748275Y326395D01*
X749419Y324107D02*
X751707Y324107D01*
X885088Y197104D02*
X885090Y197184D01*
X885096Y197265D01*
X885106Y197344D01*
X885120Y197424D01*
X885137Y197502D01*
X885159Y197580D01*
X885185Y197656D01*
X885214Y197731D01*
X885247Y197804D01*
X885283Y197876D01*
X885323Y197946D01*
X885366Y198014D01*
X885413Y198079D01*
X885463Y198142D01*
X885516Y198203D01*
X885571Y198261D01*
X885630Y198316D01*
X885691Y198368D01*
X885755Y198417D01*
X885821Y198463D01*
X885889Y198505D01*
X885960Y198544D01*
X886032Y198580D01*
X886106Y198612D01*
X886181Y198640D01*
X886258Y198665D01*
X886335Y198685D01*
X886414Y198702D01*
X886493Y198715D01*
X886573Y198724D01*
X886654Y198729D01*
X886734Y198730D01*
X886814Y198727D01*
X886895Y198720D01*
X886974Y198709D01*
X887053Y198694D01*
X887132Y198675D01*
X887209Y198653D01*
X887285Y198627D01*
X887359Y198596D01*
X887432Y198563D01*
X887504Y198525D01*
X887573Y198485D01*
X887640Y198440D01*
X887705Y198393D01*
X887768Y198342D01*
X887828Y198289D01*
X887885Y198232D01*
X887939Y198173D01*
X887991Y198111D01*
X888039Y198047D01*
X888084Y197980D01*
X888125Y197911D01*
X888164Y197840D01*
X888198Y197768D01*
X888229Y197694D01*
X888257Y197618D01*
X888280Y197541D01*
X888300Y197463D01*
X888316Y197384D01*
X888328Y197305D01*
X888336Y197225D01*
X888340Y197144D01*
X888340Y197064D01*
X888336Y196983D01*
X888328Y196903D01*
X888316Y196824D01*
X888300Y196745D01*
X888280Y196667D01*
X888257Y196590D01*
X888229Y196514D01*
X888198Y196440D01*
X888164Y196368D01*
X888125Y196297D01*
X888084Y196228D01*
X888039Y196161D01*
X887991Y196097D01*
X887939Y196035D01*
X887885Y195976D01*
X887828Y195919D01*
X887768Y195866D01*
X887705Y195815D01*
X887640Y195768D01*
X887573Y195723D01*
X887504Y195683D01*
X887432Y195645D01*
X887359Y195612D01*
X887285Y195581D01*
X887209Y195555D01*
X887132Y195533D01*
X887053Y195514D01*
X886974Y195499D01*
X886895Y195488D01*
X886814Y195481D01*
X886734Y195478D01*
X886654Y195479D01*
X886573Y195484D01*
X886493Y195493D01*
X886414Y195506D01*
X886335Y195523D01*
X886258Y195543D01*
X886181Y195568D01*
X886106Y195596D01*
X886032Y195628D01*
X885960Y195664D01*
X885889Y195703D01*
X885821Y195745D01*
X885755Y195791D01*
X885691Y195840D01*
X885630Y195892D01*
X885571Y195947D01*
X885516Y196005D01*
X885463Y196066D01*
X885413Y196129D01*
X885366Y196194D01*
X885323Y196262D01*
X885283Y196332D01*
X885247Y196404D01*
X885214Y196477D01*
X885185Y196552D01*
X885159Y196628D01*
X885137Y196706D01*
X885120Y196784D01*
X885106Y196864D01*
X885096Y196943D01*
X885090Y197024D01*
X885088Y197104D01*
X850140Y195380D02*
X850140Y170380D01*
X850140Y195380D02*
X882140Y195380D01*
X882140Y170380D01*
X850140Y170380D01*
X869696Y185166D02*
X881888Y185166D01*
X869696Y185166D02*
X869696Y195072D01*
D14*
X869402Y166128D02*
X877198Y154434D01*
X869402Y154434D02*
X877198Y166128D01*
X881096Y162230D02*
X884994Y166128D01*
X884994Y154434D01*
X881096Y154434D02*
X888892Y154434D01*
X892790Y154434D02*
X900586Y154434D01*
X892790Y154434D02*
X900586Y162230D01*
X900586Y164179D01*
X898637Y166128D01*
X894739Y166128D01*
X892790Y164179D01*
D19*
X682178Y251576D02*
X682178Y266076D01*
X682178Y251576D02*
X705678Y251576D01*
X705678Y266076D01*
X682178Y266076D01*
D15*
X655639Y263405D02*
X655639Y253999D01*
X655639Y263405D02*
X660342Y263405D01*
X661910Y261837D01*
X661910Y258702D01*
X660342Y257134D01*
X655639Y257134D01*
X658774Y257134D02*
X661910Y253999D01*
X669697Y253999D02*
X669697Y263405D01*
X664994Y258702D01*
X671265Y258702D01*
X674349Y261837D02*
X675917Y263405D01*
X679052Y263405D01*
X680620Y261837D01*
X680620Y260270D01*
X679052Y258702D01*
X677485Y258702D01*
X679052Y258702D02*
X680620Y257134D01*
X680620Y255567D01*
X679052Y253999D01*
X675917Y253999D01*
X674349Y255567D01*
D19*
X689798Y268086D02*
X689798Y282586D01*
X689798Y268086D02*
X713298Y268086D01*
X713298Y282586D01*
X689798Y282586D01*
D15*
X664021Y281693D02*
X664021Y272287D01*
X664021Y281693D02*
X668724Y281693D01*
X670292Y280125D01*
X670292Y276990D01*
X668724Y275422D01*
X664021Y275422D01*
X667156Y275422D02*
X670292Y272287D01*
X678079Y272287D02*
X678079Y281693D01*
X673376Y276990D01*
X679647Y276990D01*
X687434Y272287D02*
X687434Y281693D01*
X682731Y276990D01*
X689002Y276990D01*
D19*
X709534Y224486D02*
X723534Y224486D01*
X723534Y249986D01*
X709534Y249986D01*
X709534Y224486D01*
D15*
X700315Y230888D02*
X698747Y229320D01*
X698747Y226185D01*
X700315Y224617D01*
X706585Y224617D01*
X708153Y226185D01*
X708153Y229320D01*
X706585Y230888D01*
X698747Y233972D02*
X698747Y240243D01*
X700315Y240243D01*
X706585Y233972D01*
X708153Y233972D01*
X701882Y243327D02*
X698747Y246463D01*
X708153Y246463D01*
X708153Y249598D02*
X708153Y243327D01*
D19*
X695148Y289418D02*
X695148Y303418D01*
X695148Y289418D02*
X720648Y289418D01*
X720648Y303418D01*
X695148Y303418D01*
D15*
X674880Y299937D02*
X673312Y301505D01*
X670177Y301505D01*
X668609Y299937D01*
X668609Y293667D01*
X670177Y292099D01*
X673312Y292099D01*
X674880Y293667D01*
X677964Y301505D02*
X684235Y301505D01*
X684235Y299937D01*
X677964Y293667D01*
X677964Y292099D01*
X687319Y292099D02*
X693590Y292099D01*
X687319Y292099D02*
X693590Y298370D01*
X693590Y299937D01*
X692022Y301505D01*
X688887Y301505D01*
X687319Y299937D01*
D19*
X816214Y149302D02*
X830214Y149302D01*
X830214Y174802D01*
X816214Y174802D01*
X816214Y149302D01*
D15*
X835584Y156727D02*
X837152Y155159D01*
X835584Y156727D02*
X832449Y156727D01*
X830881Y155159D01*
X830881Y148889D01*
X832449Y147321D01*
X835584Y147321D01*
X837152Y148889D01*
X840237Y156727D02*
X846507Y156727D01*
X846507Y155159D01*
X840237Y148889D01*
X840237Y147321D01*
X849592Y155159D02*
X851159Y156727D01*
X854295Y156727D01*
X855863Y155159D01*
X855863Y153592D01*
X854295Y152024D01*
X852727Y152024D01*
X854295Y152024D02*
X855863Y150456D01*
X855863Y148889D01*
X854295Y147321D01*
X851159Y147321D01*
X849592Y148889D01*
D19*
X769000Y157430D02*
X755000Y157430D01*
X769000Y157430D02*
X769000Y182930D01*
X755000Y182930D01*
X755000Y157430D01*
D15*
X735806Y167859D02*
X734238Y169427D01*
X731103Y169427D01*
X729535Y167859D01*
X729535Y161589D01*
X731103Y160021D01*
X734238Y160021D01*
X735806Y161589D01*
X738891Y169427D02*
X745161Y169427D01*
X745161Y167859D01*
X738891Y161589D01*
X738891Y160021D01*
X752949Y160021D02*
X752949Y169427D01*
X748246Y164724D01*
X754517Y164724D01*
D19*
X876350Y293990D02*
X876350Y307990D01*
X850850Y307990D01*
X850850Y293990D01*
X876350Y293990D01*
D15*
X855186Y316449D02*
X853618Y318017D01*
X850483Y318017D01*
X848915Y316449D01*
X848915Y310179D01*
X850483Y308611D01*
X853618Y308611D01*
X855186Y310179D01*
X858271Y318017D02*
X864541Y318017D01*
X864541Y316449D01*
X858271Y310179D01*
X858271Y308611D01*
X867626Y318017D02*
X873897Y318017D01*
X867626Y318017D02*
X867626Y313314D01*
X870761Y314882D01*
X872329Y314882D01*
X873897Y313314D01*
X873897Y310179D01*
X872329Y308611D01*
X869193Y308611D01*
X867626Y310179D01*
D19*
X721818Y186832D02*
X721818Y172832D01*
X747318Y172832D01*
X747318Y186832D01*
X721818Y186832D01*
D15*
X723140Y196051D02*
X721572Y197619D01*
X718437Y197619D01*
X716869Y196051D01*
X716869Y189781D01*
X718437Y188213D01*
X721572Y188213D01*
X723140Y189781D01*
X726224Y197619D02*
X732495Y197619D01*
X732495Y196051D01*
X726224Y189781D01*
X726224Y188213D01*
X738715Y196051D02*
X741850Y197619D01*
X738715Y196051D02*
X735579Y192916D01*
X735579Y189781D01*
X737147Y188213D01*
X740282Y188213D01*
X741850Y189781D01*
X741850Y191348D01*
X740282Y192916D01*
X735579Y192916D01*
D10*
X779272Y142494D02*
X779272Y139192D01*
X779272Y170688D02*
X782574Y170688D01*
X807466Y139192D02*
X810768Y139192D01*
X810768Y170688D02*
X807466Y170688D01*
X779272Y170688D02*
X779272Y167386D01*
X779272Y139192D02*
X782574Y139192D01*
X810768Y139192D02*
X810768Y142494D01*
X810768Y167386D02*
X810768Y170688D01*
D20*
X810260Y139700D03*
D15*
X772541Y182039D02*
X773770Y183267D01*
X776227Y183267D01*
X777456Y182039D01*
X777456Y180810D01*
X776227Y179581D01*
X774998Y179581D01*
X776227Y179581D02*
X777456Y178352D01*
X777456Y177124D01*
X776227Y175895D01*
X773770Y175895D01*
X772541Y177124D01*
X780025Y183267D02*
X784940Y175895D01*
X780025Y175895D02*
X784940Y183267D01*
X787509Y182039D02*
X788738Y183267D01*
X791195Y183267D01*
X792424Y182039D01*
X792424Y180810D01*
X791195Y179581D01*
X789967Y179581D01*
X791195Y179581D02*
X792424Y178352D01*
X792424Y177124D01*
X791195Y175895D01*
X788738Y175895D01*
X787509Y177124D01*
X794993Y175895D02*
X794993Y183267D01*
X797451Y180810D01*
X799908Y183267D01*
X799908Y175895D01*
X802478Y175895D02*
X802478Y183267D01*
X804935Y180810D01*
X807392Y183267D01*
X807392Y175895D01*
X809962Y180810D02*
X812419Y183267D01*
X812419Y175895D01*
X809962Y175895D02*
X814877Y175895D01*
D19*
X793430Y50430D02*
X793430Y35930D01*
X816930Y35930D01*
X816930Y50430D01*
X793430Y50430D01*
D15*
X793561Y35567D02*
X793561Y26161D01*
X793561Y35567D02*
X798264Y35567D01*
X799832Y33999D01*
X799832Y30864D01*
X798264Y29296D01*
X793561Y29296D01*
X796696Y29296D02*
X799832Y26161D01*
X807619Y26161D02*
X807619Y35567D01*
X802916Y30864D01*
X809187Y30864D01*
X812271Y35567D02*
X818542Y35567D01*
X812271Y35567D02*
X812271Y30864D01*
X815407Y32432D01*
X816974Y32432D01*
X818542Y30864D01*
X818542Y27729D01*
X816974Y26161D01*
X813839Y26161D01*
X812271Y27729D01*
D19*
X819470Y117210D02*
X819470Y131710D01*
X795970Y131710D01*
X795970Y117210D01*
X819470Y117210D01*
D15*
X792035Y116087D02*
X792035Y106681D01*
X792035Y116087D02*
X796738Y116087D01*
X798306Y114519D01*
X798306Y111384D01*
X796738Y109816D01*
X792035Y109816D01*
X795171Y109816D02*
X798306Y106681D01*
X806094Y106681D02*
X806094Y116087D01*
X801391Y111384D01*
X807661Y111384D01*
X813881Y114519D02*
X817017Y116087D01*
X813881Y114519D02*
X810746Y111384D01*
X810746Y108249D01*
X812313Y106681D01*
X815449Y106681D01*
X817017Y108249D01*
X817017Y109816D01*
X815449Y111384D01*
X810746Y111384D01*
D16*
X694540Y74850D02*
X694540Y64850D01*
X699540Y59850D01*
X709540Y59850D01*
X714540Y64850D01*
X714540Y74850D01*
X714540Y64850D02*
X719540Y59850D01*
X729540Y59850D01*
X734540Y64850D01*
X734540Y74850D01*
X734540Y64850D02*
X739540Y59850D01*
X749540Y59850D01*
X754540Y64850D01*
X754540Y74850D01*
X754540Y64850D02*
X759540Y59850D01*
X769540Y59850D01*
X774540Y64850D01*
X774540Y74850D01*
X774540Y64850D02*
X779540Y59850D01*
X789540Y59850D01*
X794540Y64850D01*
X794540Y74850D01*
X794540Y64850D02*
X799540Y59850D01*
X809540Y59850D01*
X814540Y64850D01*
X814540Y74850D01*
X814540Y64850D02*
X819540Y59850D01*
X829540Y59850D01*
X834540Y64850D01*
X834540Y74850D01*
X829540Y79850D01*
X819540Y79850D01*
X814540Y74850D01*
X809540Y79850D01*
X799540Y79850D01*
X794540Y74850D01*
X789540Y79850D01*
X779540Y79850D01*
X774540Y74850D01*
X769540Y79850D01*
X759540Y79850D01*
X754540Y74850D01*
X749540Y79850D01*
X739540Y79850D01*
X734540Y74850D01*
X729540Y79850D01*
X719540Y79850D01*
X714540Y74850D01*
X709540Y79850D01*
X699540Y79850D01*
X694540Y74850D01*
X765300Y96460D02*
X765300Y152460D01*
X765300Y96460D02*
X733300Y96460D01*
X733300Y152460D01*
X765300Y152460D01*
X761300Y136460D02*
X761300Y124460D01*
X761300Y112460D01*
X737300Y124460D02*
X737300Y136460D01*
X737300Y124460D02*
X737300Y112460D01*
X737300Y124460D02*
X743300Y124460D01*
X755300Y124460D02*
X761300Y124460D01*
X753300Y128460D02*
X743300Y124460D01*
D10*
X698403Y104425D02*
X696963Y105865D01*
X694082Y105865D01*
X692641Y104425D01*
X692641Y102984D01*
X694082Y101544D01*
X696963Y101544D01*
X698403Y100103D01*
X698403Y98663D01*
X696963Y97222D01*
X694082Y97222D01*
X692641Y98663D01*
X701996Y97222D02*
X701996Y105865D01*
X704878Y100103D02*
X701996Y97222D01*
X704878Y100103D02*
X707759Y97222D01*
X707759Y105865D01*
X711352Y102984D02*
X714233Y105865D01*
X714233Y97222D01*
X711352Y97222D02*
X717114Y97222D01*
X720707Y98663D02*
X720707Y104425D01*
X722147Y105865D01*
X725028Y105865D01*
X726469Y104425D01*
X726469Y98663D01*
X725028Y97222D01*
X722147Y97222D01*
X720707Y98663D01*
X726469Y104425D01*
X3423412Y113284D02*
X3423412Y155956D01*
X3526028Y155956D02*
X3526028Y113284D01*
D15*
X3525098Y159040D02*
X3533064Y167005D01*
X3533064Y159040D02*
X3525098Y167005D01*
X3529081Y167005D02*
X3529081Y159040D01*
X3525098Y163022D02*
X3533064Y163022D01*
X3399155Y143139D02*
X3399155Y133182D01*
X3401146Y131191D01*
X3405129Y131191D01*
X3407120Y133182D01*
X3407120Y143139D01*
X3410849Y139156D02*
X3414832Y143139D01*
X3414832Y131191D01*
X3418814Y131191D02*
X3410849Y131191D01*
D10*
X3565652Y113284D02*
X3565652Y155956D01*
X3668268Y155956D02*
X3668268Y113284D01*
D15*
X3667338Y159040D02*
X3675304Y167005D01*
X3675304Y159040D02*
X3667338Y167005D01*
X3671321Y167005D02*
X3671321Y159040D01*
X3667338Y163022D02*
X3675304Y163022D01*
X3673475Y148219D02*
X3673475Y138262D01*
X3675466Y136271D01*
X3679449Y136271D01*
X3681440Y138262D01*
X3681440Y148219D01*
X3685169Y136271D02*
X3693134Y136271D01*
X3685169Y136271D02*
X3693134Y144236D01*
X3693134Y146228D01*
X3691143Y148219D01*
X3687160Y148219D01*
X3685169Y146228D01*
D16*
X1509649Y652780D02*
X1365631Y652780D01*
X1365631Y497586D01*
X1509649Y497586D01*
X1509649Y652780D01*
D14*
X1484610Y483787D02*
X1486559Y481838D01*
X1488508Y481838D01*
X1490457Y483787D01*
X1490457Y493532D01*
X1488508Y493532D02*
X1492406Y493532D01*
X1496304Y489634D02*
X1500202Y493532D01*
X1500202Y481838D01*
X1496304Y481838D02*
X1504100Y481838D01*
D16*
X533590Y589218D02*
X309690Y589218D01*
X309690Y681218D02*
X533590Y681218D01*
X533590Y589218D01*
X309690Y589218D02*
X309690Y681218D01*
D10*
X1592296Y681088D02*
X1592296Y521088D01*
X1747296Y521088D02*
X1747296Y681088D01*
X1592296Y681088D01*
X1592296Y521088D02*
X1601796Y521088D01*
X1641796Y521088D01*
X1697796Y521088D01*
X1737796Y521088D01*
X1747296Y521088D01*
X1601796Y521088D02*
X1601796Y473088D01*
X1641796Y473088D01*
X1641796Y521088D01*
X1697796Y521088D02*
X1697796Y473088D01*
X1737796Y473088D01*
X1737796Y521088D01*
X1589614Y515920D02*
X1576056Y515920D01*
X1589614Y515920D02*
X1592326Y518631D01*
X1592326Y524055D01*
X1589614Y526766D01*
X1576056Y526766D01*
X1589614Y532291D02*
X1592326Y535003D01*
X1592326Y540426D01*
X1589614Y543138D01*
X1586903Y543138D01*
X1584191Y540426D01*
X1584191Y535003D01*
X1581479Y532291D01*
X1578768Y532291D01*
X1576056Y535003D01*
X1576056Y540426D01*
X1578768Y543138D01*
X1573344Y537715D02*
X1595038Y537715D01*
X1581479Y548663D02*
X1576056Y554086D01*
X1592326Y554086D01*
X1592326Y548663D02*
X1592326Y559509D01*
X1589614Y565034D02*
X1592326Y567746D01*
X1592326Y573169D01*
X1589614Y575881D01*
X1578768Y575881D01*
X1576056Y573169D01*
X1576056Y567746D01*
X1578768Y565034D01*
X1581479Y565034D01*
X1584191Y567746D01*
X1584191Y575881D01*
X1802354Y521088D02*
X1802354Y681088D01*
X1957354Y681088D02*
X1957354Y521088D01*
X1957354Y681088D02*
X1802354Y681088D01*
X1802354Y521088D02*
X1811854Y521088D01*
X1851854Y521088D01*
X1907854Y521088D01*
X1947854Y521088D01*
X1957354Y521088D01*
X1811854Y521088D02*
X1811854Y473088D01*
X1851854Y473088D01*
X1851854Y521088D01*
X1907854Y521088D02*
X1907854Y473088D01*
X1947854Y473088D01*
X1947854Y521088D01*
X1799418Y524256D02*
X1785860Y524256D01*
X1799418Y524256D02*
X1802130Y526968D01*
X1802130Y532391D01*
X1799418Y535103D01*
X1785860Y535103D01*
X1799418Y540628D02*
X1802130Y543339D01*
X1802130Y548763D01*
X1799418Y551474D01*
X1796707Y551474D01*
X1793995Y548763D01*
X1793995Y543339D01*
X1791283Y540628D01*
X1788572Y540628D01*
X1785860Y543339D01*
X1785860Y548763D01*
X1788572Y551474D01*
X1783148Y546051D02*
X1804842Y546051D01*
X1788572Y556999D02*
X1785860Y559711D01*
X1785860Y565134D01*
X1788572Y567846D01*
X1791283Y567846D01*
X1793995Y565134D01*
X1793995Y562422D01*
X1793995Y565134D02*
X1796707Y567846D01*
X1799418Y567846D01*
X1802130Y565134D01*
X1802130Y559711D01*
X1799418Y556999D01*
X1802130Y581506D02*
X1785860Y581506D01*
X1793995Y573371D01*
X1793995Y584217D01*
X2012412Y521088D02*
X2012412Y681088D01*
X2167412Y681088D02*
X2167412Y521088D01*
X2167412Y681088D02*
X2012412Y681088D01*
X2012412Y521088D02*
X2021912Y521088D01*
X2061912Y521088D01*
X2117912Y521088D01*
X2157912Y521088D01*
X2167412Y521088D01*
X2021912Y521088D02*
X2021912Y473088D01*
X2061912Y473088D01*
X2061912Y521088D01*
X2117912Y521088D02*
X2117912Y473088D01*
X2157912Y473088D01*
X2157912Y521088D01*
X2007698Y520954D02*
X1994140Y520954D01*
X2007698Y520954D02*
X2010410Y523666D01*
X2010410Y529089D01*
X2007698Y531801D01*
X1994140Y531801D01*
X2007698Y537326D02*
X2010410Y540037D01*
X2010410Y545461D01*
X2007698Y548172D01*
X2004987Y548172D01*
X2002275Y545461D01*
X2002275Y540037D01*
X1999563Y537326D01*
X1996852Y537326D01*
X1994140Y540037D01*
X1994140Y545461D01*
X1996852Y548172D01*
X1991428Y542749D02*
X2013122Y542749D01*
X1996852Y553697D02*
X1994140Y556409D01*
X1994140Y561832D01*
X1996852Y564544D01*
X1999563Y564544D01*
X2002275Y561832D01*
X2002275Y559120D01*
X2002275Y561832D02*
X2004987Y564544D01*
X2007698Y564544D01*
X2010410Y561832D01*
X2010410Y556409D01*
X2007698Y553697D01*
X1994140Y570069D02*
X1994140Y580915D01*
X1994140Y570069D02*
X2002275Y570069D01*
X1999563Y575492D01*
X1999563Y578204D01*
X2002275Y580915D01*
X2007698Y580915D01*
X2010410Y578204D01*
X2010410Y572780D01*
X2007698Y570069D01*
X2222470Y521088D02*
X2222470Y681088D01*
X2377470Y681088D02*
X2377470Y521088D01*
X2377470Y681088D02*
X2222470Y681088D01*
X2222470Y521088D02*
X2231970Y521088D01*
X2271970Y521088D01*
X2327970Y521088D01*
X2367970Y521088D01*
X2377470Y521088D01*
X2231970Y521088D02*
X2231970Y473088D01*
X2271970Y473088D01*
X2271970Y521088D01*
X2327970Y521088D02*
X2327970Y473088D01*
X2367970Y473088D01*
X2367970Y521088D01*
X2215978Y522732D02*
X2202420Y522732D01*
X2215978Y522732D02*
X2218690Y525444D01*
X2218690Y530867D01*
X2215978Y533579D01*
X2202420Y533579D01*
X2215978Y539104D02*
X2218690Y541815D01*
X2218690Y547239D01*
X2215978Y549950D01*
X2213267Y549950D01*
X2210555Y547239D01*
X2210555Y541815D01*
X2207843Y539104D01*
X2205132Y539104D01*
X2202420Y541815D01*
X2202420Y547239D01*
X2205132Y549950D01*
X2199708Y544527D02*
X2221402Y544527D01*
X2205132Y555475D02*
X2202420Y558187D01*
X2202420Y563610D01*
X2205132Y566322D01*
X2207843Y566322D01*
X2210555Y563610D01*
X2210555Y560898D01*
X2210555Y563610D02*
X2213267Y566322D01*
X2215978Y566322D01*
X2218690Y563610D01*
X2218690Y558187D01*
X2215978Y555475D01*
X2205132Y577270D02*
X2202420Y582693D01*
X2205132Y577270D02*
X2210555Y571847D01*
X2215978Y571847D01*
X2218690Y574558D01*
X2218690Y579982D01*
X2215978Y582693D01*
X2213267Y582693D01*
X2210555Y579982D01*
X2210555Y571847D01*
X2432528Y521088D02*
X2432528Y681088D01*
X2587528Y681088D02*
X2587528Y521088D01*
X2587528Y681088D02*
X2432528Y681088D01*
X2432528Y521088D02*
X2442028Y521088D01*
X2482028Y521088D01*
X2538028Y521088D01*
X2578028Y521088D01*
X2587528Y521088D01*
X2442028Y521088D02*
X2442028Y473088D01*
X2482028Y473088D01*
X2482028Y521088D01*
X2538028Y521088D02*
X2538028Y473088D01*
X2578028Y473088D01*
X2578028Y521088D01*
X2424258Y524510D02*
X2410700Y524510D01*
X2424258Y524510D02*
X2426970Y527222D01*
X2426970Y532645D01*
X2424258Y535357D01*
X2410700Y535357D01*
X2424258Y540882D02*
X2426970Y543593D01*
X2426970Y549017D01*
X2424258Y551728D01*
X2421547Y551728D01*
X2418835Y549017D01*
X2418835Y543593D01*
X2416123Y540882D01*
X2413412Y540882D01*
X2410700Y543593D01*
X2410700Y549017D01*
X2413412Y551728D01*
X2407988Y546305D02*
X2429682Y546305D01*
X2413412Y557253D02*
X2410700Y559965D01*
X2410700Y565388D01*
X2413412Y568100D01*
X2416123Y568100D01*
X2418835Y565388D01*
X2418835Y562676D01*
X2418835Y565388D02*
X2421547Y568100D01*
X2424258Y568100D01*
X2426970Y565388D01*
X2426970Y559965D01*
X2424258Y557253D01*
X2410700Y573625D02*
X2410700Y584471D01*
X2413412Y584471D01*
X2424258Y573625D01*
X2426970Y573625D01*
X2642586Y521088D02*
X2642586Y681088D01*
X2797586Y681088D02*
X2797586Y521088D01*
X2797586Y681088D02*
X2642586Y681088D01*
X2642586Y521088D02*
X2652086Y521088D01*
X2692086Y521088D01*
X2748086Y521088D01*
X2788086Y521088D01*
X2797586Y521088D01*
X2652086Y521088D02*
X2652086Y473088D01*
X2692086Y473088D01*
X2692086Y521088D01*
X2748086Y521088D02*
X2748086Y473088D01*
X2788086Y473088D01*
X2788086Y521088D01*
X2637618Y521208D02*
X2624060Y521208D01*
X2637618Y521208D02*
X2640330Y523920D01*
X2640330Y529343D01*
X2637618Y532055D01*
X2624060Y532055D01*
X2637618Y537580D02*
X2640330Y540291D01*
X2640330Y545715D01*
X2637618Y548426D01*
X2634907Y548426D01*
X2632195Y545715D01*
X2632195Y540291D01*
X2629483Y537580D01*
X2626772Y537580D01*
X2624060Y540291D01*
X2624060Y545715D01*
X2626772Y548426D01*
X2621348Y543003D02*
X2643042Y543003D01*
X2626772Y553951D02*
X2624060Y556663D01*
X2624060Y562086D01*
X2626772Y564798D01*
X2629483Y564798D01*
X2632195Y562086D01*
X2632195Y559374D01*
X2632195Y562086D02*
X2634907Y564798D01*
X2637618Y564798D01*
X2640330Y562086D01*
X2640330Y556663D01*
X2637618Y553951D01*
X2626772Y570323D02*
X2624060Y573034D01*
X2624060Y578458D01*
X2626772Y581169D01*
X2629483Y581169D01*
X2632195Y578458D01*
X2634907Y581169D01*
X2637618Y581169D01*
X2640330Y578458D01*
X2640330Y573034D01*
X2637618Y570323D01*
X2634907Y570323D01*
X2632195Y573034D01*
X2629483Y570323D01*
X2626772Y570323D01*
X2632195Y573034D02*
X2632195Y578458D01*
X2852644Y521088D02*
X2852644Y681088D01*
X3007644Y681088D02*
X3007644Y521088D01*
X3007644Y681088D02*
X2852644Y681088D01*
X2852644Y521088D02*
X2862144Y521088D01*
X2902144Y521088D01*
X2958144Y521088D01*
X2998144Y521088D01*
X3007644Y521088D01*
X2862144Y521088D02*
X2862144Y473088D01*
X2902144Y473088D01*
X2902144Y521088D01*
X2958144Y521088D02*
X2958144Y473088D01*
X2998144Y473088D01*
X2998144Y521088D01*
X2845898Y522986D02*
X2832340Y522986D01*
X2845898Y522986D02*
X2848610Y525698D01*
X2848610Y531121D01*
X2845898Y533833D01*
X2832340Y533833D01*
X2845898Y539358D02*
X2848610Y542069D01*
X2848610Y547493D01*
X2845898Y550204D01*
X2843187Y550204D01*
X2840475Y547493D01*
X2840475Y542069D01*
X2837763Y539358D01*
X2835052Y539358D01*
X2832340Y542069D01*
X2832340Y547493D01*
X2835052Y550204D01*
X2829628Y544781D02*
X2851322Y544781D01*
X2835052Y555729D02*
X2832340Y558441D01*
X2832340Y563864D01*
X2835052Y566576D01*
X2837763Y566576D01*
X2840475Y563864D01*
X2840475Y561152D01*
X2840475Y563864D02*
X2843187Y566576D01*
X2845898Y566576D01*
X2848610Y563864D01*
X2848610Y558441D01*
X2845898Y555729D01*
X2845898Y572101D02*
X2848610Y574812D01*
X2848610Y580236D01*
X2845898Y582947D01*
X2835052Y582947D01*
X2832340Y580236D01*
X2832340Y574812D01*
X2835052Y572101D01*
X2837763Y572101D01*
X2840475Y574812D01*
X2840475Y582947D01*
X3062702Y521088D02*
X3062702Y681088D01*
X3217702Y681088D02*
X3217702Y521088D01*
X3217702Y681088D02*
X3062702Y681088D01*
X3062702Y521088D02*
X3072202Y521088D01*
X3112202Y521088D01*
X3168202Y521088D01*
X3208202Y521088D01*
X3217702Y521088D01*
X3072202Y521088D02*
X3072202Y473088D01*
X3112202Y473088D01*
X3112202Y521088D01*
X3168202Y521088D02*
X3168202Y473088D01*
X3208202Y473088D01*
X3208202Y521088D01*
X3054178Y519684D02*
X3040620Y519684D01*
X3054178Y519684D02*
X3056890Y522396D01*
X3056890Y527819D01*
X3054178Y530531D01*
X3040620Y530531D01*
X3054178Y536056D02*
X3056890Y538767D01*
X3056890Y544191D01*
X3054178Y546902D01*
X3051467Y546902D01*
X3048755Y544191D01*
X3048755Y538767D01*
X3046043Y536056D01*
X3043332Y536056D01*
X3040620Y538767D01*
X3040620Y544191D01*
X3043332Y546902D01*
X3037908Y541479D02*
X3059602Y541479D01*
X3056890Y560562D02*
X3040620Y560562D01*
X3048755Y552427D01*
X3048755Y563274D01*
X3054178Y568799D02*
X3043332Y568799D01*
X3040620Y571510D01*
X3040620Y576934D01*
X3043332Y579645D01*
X3054178Y579645D01*
X3056890Y576934D01*
X3056890Y571510D01*
X3054178Y568799D01*
X3043332Y579645D01*
X3272760Y521088D02*
X3272760Y681088D01*
X3427760Y681088D02*
X3427760Y521088D01*
X3427760Y681088D02*
X3272760Y681088D01*
X3272760Y521088D02*
X3282260Y521088D01*
X3322260Y521088D01*
X3378260Y521088D01*
X3418260Y521088D01*
X3427760Y521088D01*
X3282260Y521088D02*
X3282260Y473088D01*
X3322260Y473088D01*
X3322260Y521088D01*
X3378260Y521088D02*
X3378260Y473088D01*
X3418260Y473088D01*
X3418260Y521088D01*
X3267538Y521462D02*
X3253980Y521462D01*
X3267538Y521462D02*
X3270250Y524174D01*
X3270250Y529597D01*
X3267538Y532309D01*
X3253980Y532309D01*
X3267538Y537834D02*
X3270250Y540545D01*
X3270250Y545969D01*
X3267538Y548680D01*
X3264827Y548680D01*
X3262115Y545969D01*
X3262115Y540545D01*
X3259403Y537834D01*
X3256692Y537834D01*
X3253980Y540545D01*
X3253980Y545969D01*
X3256692Y548680D01*
X3251268Y543257D02*
X3272962Y543257D01*
X3270250Y562340D02*
X3253980Y562340D01*
X3262115Y554205D01*
X3262115Y565052D01*
X3259403Y570577D02*
X3253980Y576000D01*
X3270250Y576000D01*
X3270250Y570577D02*
X3270250Y581423D01*
X3482818Y521088D02*
X3482818Y681088D01*
X3637818Y681088D02*
X3637818Y521088D01*
X3637818Y681088D02*
X3482818Y681088D01*
X3482818Y521088D02*
X3492318Y521088D01*
X3532318Y521088D01*
X3588318Y521088D01*
X3628318Y521088D01*
X3637818Y521088D01*
X3492318Y521088D02*
X3492318Y473088D01*
X3532318Y473088D01*
X3532318Y521088D01*
X3588318Y521088D02*
X3588318Y473088D01*
X3628318Y473088D01*
X3628318Y521088D01*
X3475818Y523240D02*
X3462260Y523240D01*
X3475818Y523240D02*
X3478530Y525952D01*
X3478530Y531375D01*
X3475818Y534087D01*
X3462260Y534087D01*
X3475818Y539612D02*
X3478530Y542323D01*
X3478530Y547747D01*
X3475818Y550458D01*
X3473107Y550458D01*
X3470395Y547747D01*
X3470395Y542323D01*
X3467683Y539612D01*
X3464972Y539612D01*
X3462260Y542323D01*
X3462260Y547747D01*
X3464972Y550458D01*
X3459548Y545035D02*
X3481242Y545035D01*
X3478530Y564118D02*
X3462260Y564118D01*
X3470395Y555983D01*
X3470395Y566830D01*
X3478530Y572355D02*
X3478530Y583201D01*
X3478530Y572355D02*
X3467683Y583201D01*
X3464972Y583201D01*
X3462260Y580490D01*
X3462260Y575066D01*
X3464972Y572355D01*
D16*
X1103249Y652780D02*
X959231Y652780D01*
X959231Y497586D01*
X1103249Y497586D01*
X1103249Y652780D01*
D14*
X1078210Y483787D02*
X1080159Y481838D01*
X1082108Y481838D01*
X1084057Y483787D01*
X1084057Y493532D01*
X1082108Y493532D02*
X1086006Y493532D01*
X1089904Y481838D02*
X1097700Y481838D01*
X1089904Y481838D02*
X1097700Y489634D01*
X1097700Y491583D01*
X1095751Y493532D01*
X1091853Y493532D01*
X1089904Y491583D01*
X1316218Y369550D02*
X1327912Y369550D01*
X1316218Y369550D02*
X1316218Y375397D01*
X1318167Y377346D01*
X1322065Y377346D01*
X1324014Y375397D01*
X1324014Y369550D01*
X1324014Y373448D02*
X1327912Y377346D01*
X1327912Y381244D02*
X1327912Y389040D01*
X1327912Y381244D02*
X1320116Y389040D01*
X1318167Y389040D01*
X1316218Y387091D01*
X1316218Y383193D01*
X1318167Y381244D01*
D13*
X1390904Y372364D02*
X1390904Y364236D01*
X1384316Y364236D01*
X1362456Y364236D02*
X1362456Y372364D01*
X1362456Y364236D02*
X1369044Y364236D01*
D18*
X1366417Y345672D02*
X1366417Y340066D01*
X1366417Y345672D02*
X1367818Y347073D01*
X1370621Y347073D01*
X1372023Y345672D01*
X1372023Y340066D01*
X1370621Y338664D01*
X1367818Y338664D01*
X1366417Y340066D01*
X1369220Y341467D02*
X1372023Y338664D01*
X1375790Y344270D02*
X1378594Y347073D01*
X1378594Y338664D01*
X1381397Y338664D02*
X1375790Y338664D01*
D13*
X1521206Y466344D02*
X1529334Y466344D01*
X1529334Y459756D01*
X1529334Y437896D02*
X1521206Y437896D01*
X1529334Y437896D02*
X1529334Y444484D01*
D14*
X1538478Y464737D02*
X1538478Y472533D01*
X1540427Y474482D01*
X1544325Y474482D01*
X1546274Y472533D01*
X1546274Y464737D01*
X1544325Y462788D01*
X1540427Y462788D01*
X1538478Y464737D01*
X1542376Y466686D02*
X1546274Y462788D01*
X1550172Y462788D02*
X1557968Y462788D01*
X1550172Y462788D02*
X1557968Y470584D01*
X1557968Y472533D01*
X1556019Y474482D01*
X1552121Y474482D01*
X1550172Y472533D01*
X1405128Y390916D02*
X1405128Y379222D01*
X1405128Y390916D02*
X1410975Y390916D01*
X1412924Y388967D01*
X1412924Y385069D01*
X1410975Y383120D01*
X1405128Y383120D01*
X1409026Y383120D02*
X1412924Y379222D01*
X1416822Y388967D02*
X1418771Y390916D01*
X1422669Y390916D01*
X1424618Y388967D01*
X1424618Y387018D01*
X1422669Y385069D01*
X1420720Y385069D01*
X1422669Y385069D02*
X1424618Y383120D01*
X1424618Y381171D01*
X1422669Y379222D01*
X1418771Y379222D01*
X1416822Y381171D01*
X1455400Y479552D02*
X1455400Y491246D01*
X1461247Y491246D01*
X1463196Y489297D01*
X1463196Y485399D01*
X1461247Y483450D01*
X1455400Y483450D01*
X1459298Y483450D02*
X1463196Y479552D01*
X1472941Y479552D02*
X1472941Y491246D01*
X1467094Y485399D01*
X1474890Y485399D01*
X1372362Y406380D02*
X1360668Y406380D01*
X1360668Y412227D01*
X1362617Y414176D01*
X1366515Y414176D01*
X1368464Y412227D01*
X1368464Y406380D01*
X1368464Y410278D02*
X1372362Y414176D01*
X1360668Y418074D02*
X1360668Y425870D01*
X1360668Y418074D02*
X1366515Y418074D01*
X1364566Y421972D01*
X1364566Y423921D01*
X1366515Y425870D01*
X1370413Y425870D01*
X1372362Y423921D01*
X1372362Y420023D01*
X1370413Y418074D01*
X1408410Y466598D02*
X1408410Y478292D01*
X1414257Y478292D01*
X1416206Y476343D01*
X1416206Y472445D01*
X1414257Y470496D01*
X1408410Y470496D01*
X1412308Y470496D02*
X1416206Y466598D01*
X1424002Y476343D02*
X1427900Y478292D01*
X1424002Y476343D02*
X1420104Y472445D01*
X1420104Y468547D01*
X1422053Y466598D01*
X1425951Y466598D01*
X1427900Y468547D01*
X1427900Y470496D01*
X1425951Y472445D01*
X1420104Y472445D01*
D10*
X1572768Y407416D02*
X1572768Y329184D01*
X1572768Y407416D02*
X1569466Y407416D01*
X1465072Y407416D02*
X1465072Y329184D01*
X1468374Y329184D01*
X1569466Y329184D02*
X1572768Y329184D01*
X1468374Y407416D02*
X1465072Y407416D01*
D15*
X1467780Y323052D02*
X1459814Y315087D01*
X1459814Y323052D02*
X1467780Y315087D01*
X1463797Y315087D02*
X1463797Y323052D01*
X1467780Y319070D02*
X1459814Y319070D01*
X1514983Y307731D02*
X1514983Y297774D01*
X1516974Y295783D01*
X1520957Y295783D01*
X1522948Y297774D01*
X1522948Y307731D01*
X1526677Y305740D02*
X1528668Y307731D01*
X1532651Y307731D01*
X1534642Y305740D01*
X1534642Y303748D01*
X1532651Y301757D01*
X1530660Y301757D01*
X1532651Y301757D02*
X1534642Y299766D01*
X1534642Y297774D01*
X1532651Y295783D01*
X1528668Y295783D01*
X1526677Y297774D01*
X1318720Y310604D02*
X1317364Y309248D01*
X1317364Y306537D01*
X1318720Y305181D01*
X1324143Y305181D01*
X1325499Y306537D01*
X1325499Y309248D01*
X1324143Y310604D01*
X1325499Y317434D02*
X1317364Y317434D01*
X1321432Y313367D01*
X1321432Y318790D01*
X1401184Y299088D02*
X1402540Y300444D01*
X1401184Y299088D02*
X1401184Y296377D01*
X1402540Y295021D01*
X1407963Y295021D01*
X1409319Y296377D01*
X1409319Y299088D01*
X1407963Y300444D01*
X1409319Y303207D02*
X1409319Y308630D01*
X1409319Y303207D02*
X1403896Y308630D01*
X1402540Y308630D01*
X1401184Y307274D01*
X1401184Y304563D01*
X1402540Y303207D01*
X1401184Y311393D02*
X1401184Y316816D01*
X1401184Y311393D02*
X1405252Y311393D01*
X1403896Y314104D01*
X1403896Y315460D01*
X1405252Y316816D01*
X1407963Y316816D01*
X1409319Y315460D01*
X1409319Y312748D01*
X1407963Y311393D01*
X1439634Y398320D02*
X1438278Y399676D01*
X1435567Y399676D01*
X1434211Y398320D01*
X1434211Y392897D01*
X1435567Y391541D01*
X1438278Y391541D01*
X1439634Y392897D01*
X1442397Y391541D02*
X1447820Y391541D01*
X1442397Y391541D02*
X1447820Y396964D01*
X1447820Y398320D01*
X1446464Y399676D01*
X1443753Y399676D01*
X1442397Y398320D01*
X1450583Y399676D02*
X1456006Y399676D01*
X1456006Y398320D01*
X1450583Y392897D01*
X1450583Y391541D01*
X1440391Y281566D02*
X1441747Y280210D01*
X1440391Y281566D02*
X1437679Y281566D01*
X1436324Y280210D01*
X1436324Y274787D01*
X1437679Y273431D01*
X1440391Y273431D01*
X1441747Y274787D01*
X1444509Y273431D02*
X1449933Y273431D01*
X1449933Y278854D02*
X1444509Y273431D01*
X1449933Y278854D02*
X1449933Y280210D01*
X1448577Y281566D01*
X1445865Y281566D01*
X1444509Y280210D01*
X1452695Y280210D02*
X1454051Y281566D01*
X1456763Y281566D01*
X1458118Y280210D01*
X1458118Y278854D01*
X1456763Y277498D01*
X1458118Y276143D01*
X1458118Y274787D01*
X1456763Y273431D01*
X1454051Y273431D01*
X1452695Y274787D01*
X1452695Y276143D01*
X1454051Y277498D01*
X1452695Y278854D01*
X1452695Y280210D01*
X1454051Y277498D02*
X1456763Y277498D01*
D14*
X1166094Y462788D02*
X1166094Y474482D01*
X1171941Y474482D01*
X1173890Y472533D01*
X1173890Y468635D01*
X1171941Y466686D01*
X1166094Y466686D01*
X1169992Y466686D02*
X1173890Y462788D01*
X1177788Y470584D02*
X1181686Y474482D01*
X1181686Y462788D01*
X1177788Y462788D02*
X1185584Y462788D01*
D13*
X1178814Y397256D02*
X1170686Y397256D01*
X1170686Y403844D01*
X1170686Y425704D02*
X1178814Y425704D01*
X1170686Y425704D02*
X1170686Y419116D01*
D18*
X1147469Y422362D02*
X1147469Y427968D01*
X1148870Y429369D01*
X1151673Y429369D01*
X1153075Y427968D01*
X1153075Y422362D01*
X1151673Y420960D01*
X1148870Y420960D01*
X1147469Y422362D01*
X1150272Y423763D02*
X1153075Y420960D01*
X1156842Y427968D02*
X1158244Y429369D01*
X1161047Y429369D01*
X1162449Y427968D01*
X1162449Y426566D01*
X1161047Y425165D01*
X1159646Y425165D01*
X1161047Y425165D02*
X1162449Y423763D01*
X1162449Y422362D01*
X1161047Y420960D01*
X1158244Y420960D01*
X1156842Y422362D01*
D13*
X1286764Y288544D02*
X1286764Y280416D01*
X1280176Y280416D01*
X1258316Y280416D02*
X1258316Y288544D01*
X1258316Y280416D02*
X1264904Y280416D01*
D14*
X1283950Y275683D02*
X1283950Y267887D01*
X1283950Y275683D02*
X1285899Y277632D01*
X1289797Y277632D01*
X1291746Y275683D01*
X1291746Y267887D01*
X1289797Y265938D01*
X1285899Y265938D01*
X1283950Y267887D01*
X1287848Y269836D02*
X1291746Y265938D01*
X1301491Y265938D02*
X1301491Y277632D01*
X1295644Y271785D01*
X1303440Y271785D01*
X1154430Y365252D02*
X1154430Y376946D01*
X1160277Y376946D01*
X1162226Y374997D01*
X1162226Y371099D01*
X1160277Y369150D01*
X1154430Y369150D01*
X1158328Y369150D02*
X1162226Y365252D01*
X1166124Y374997D02*
X1168073Y376946D01*
X1171971Y376946D01*
X1173920Y374997D01*
X1173920Y373048D01*
X1171971Y371099D01*
X1173920Y369150D01*
X1173920Y367201D01*
X1171971Y365252D01*
X1168073Y365252D01*
X1166124Y367201D01*
X1166124Y369150D01*
X1168073Y371099D01*
X1166124Y373048D01*
X1166124Y374997D01*
X1168073Y371099D02*
X1171971Y371099D01*
X1277346Y346720D02*
X1277346Y335026D01*
X1277346Y346720D02*
X1283193Y346720D01*
X1285142Y344771D01*
X1285142Y340873D01*
X1283193Y338924D01*
X1277346Y338924D01*
X1281244Y338924D02*
X1285142Y335026D01*
X1289040Y336975D02*
X1290989Y335026D01*
X1294887Y335026D01*
X1296836Y336975D01*
X1296836Y344771D01*
X1294887Y346720D01*
X1290989Y346720D01*
X1289040Y344771D01*
X1289040Y342822D01*
X1290989Y340873D01*
X1296836Y340873D01*
X1215106Y423418D02*
X1215106Y435112D01*
X1220953Y435112D01*
X1222902Y433163D01*
X1222902Y429265D01*
X1220953Y427316D01*
X1215106Y427316D01*
X1219004Y427316D02*
X1222902Y423418D01*
X1226800Y431214D02*
X1230698Y435112D01*
X1230698Y423418D01*
X1226800Y423418D02*
X1234596Y423418D01*
X1238494Y425367D02*
X1238494Y433163D01*
X1240443Y435112D01*
X1244341Y435112D01*
X1246290Y433163D01*
X1246290Y425367D01*
X1244341Y423418D01*
X1240443Y423418D01*
X1238494Y425367D01*
X1246290Y433163D01*
X1258570Y396758D02*
X1258570Y385064D01*
X1258570Y396758D02*
X1264417Y396758D01*
X1266366Y394809D01*
X1266366Y390911D01*
X1264417Y388962D01*
X1258570Y388962D01*
X1262468Y388962D02*
X1266366Y385064D01*
X1270264Y392860D02*
X1274162Y396758D01*
X1274162Y385064D01*
X1270264Y385064D02*
X1278060Y385064D01*
X1281958Y392860D02*
X1285856Y396758D01*
X1285856Y385064D01*
X1281958Y385064D02*
X1289754Y385064D01*
D10*
X1210056Y217932D02*
X1131824Y217932D01*
X1210056Y217932D02*
X1210056Y221234D01*
X1210056Y325628D02*
X1131824Y325628D01*
X1131824Y322326D01*
X1131824Y221234D02*
X1131824Y217932D01*
X1210056Y322326D02*
X1210056Y325628D01*
D15*
X1125692Y322920D02*
X1117727Y330886D01*
X1125692Y330886D02*
X1117727Y322920D01*
X1117727Y326903D02*
X1125692Y326903D01*
X1121710Y322920D02*
X1121710Y330886D01*
X1134745Y332318D02*
X1134745Y342275D01*
X1134745Y332318D02*
X1136736Y330327D01*
X1140719Y330327D01*
X1142710Y332318D01*
X1142710Y342275D01*
X1152413Y342275D02*
X1152413Y330327D01*
X1146439Y336301D02*
X1152413Y342275D01*
X1154404Y336301D02*
X1146439Y336301D01*
X1097496Y390954D02*
X1096140Y392310D01*
X1093429Y392310D01*
X1092073Y390954D01*
X1092073Y385531D01*
X1093429Y384175D01*
X1096140Y384175D01*
X1097496Y385531D01*
X1100259Y384175D02*
X1105682Y384175D01*
X1100259Y384175D02*
X1105682Y389598D01*
X1105682Y390954D01*
X1104326Y392310D01*
X1101615Y392310D01*
X1100259Y390954D01*
X1108445Y385531D02*
X1109800Y384175D01*
X1112512Y384175D01*
X1113868Y385531D01*
X1113868Y390954D01*
X1112512Y392310D01*
X1109800Y392310D01*
X1108445Y390954D01*
X1108445Y389598D01*
X1109800Y388242D01*
X1113868Y388242D01*
X1098766Y452676D02*
X1097410Y454032D01*
X1094699Y454032D01*
X1093343Y452676D01*
X1093343Y447253D01*
X1094699Y445897D01*
X1097410Y445897D01*
X1098766Y447253D01*
X1101529Y452676D02*
X1102885Y454032D01*
X1105596Y454032D01*
X1106952Y452676D01*
X1106952Y451320D01*
X1105596Y449964D01*
X1104240Y449964D01*
X1105596Y449964D02*
X1106952Y448609D01*
X1106952Y447253D01*
X1105596Y445897D01*
X1102885Y445897D01*
X1101529Y447253D01*
X1109715Y447253D02*
X1109715Y452676D01*
X1111070Y454032D01*
X1113782Y454032D01*
X1115138Y452676D01*
X1115138Y447253D01*
X1113782Y445897D01*
X1111070Y445897D01*
X1109715Y447253D01*
X1115138Y452676D01*
X1183851Y343288D02*
X1185207Y341932D01*
X1183851Y343288D02*
X1181139Y343288D01*
X1179784Y341932D01*
X1179784Y336509D01*
X1181139Y335153D01*
X1183851Y335153D01*
X1185207Y336509D01*
X1187969Y341932D02*
X1189325Y343288D01*
X1192037Y343288D01*
X1193393Y341932D01*
X1193393Y340576D01*
X1192037Y339220D01*
X1190681Y339220D01*
X1192037Y339220D02*
X1193393Y337865D01*
X1193393Y336509D01*
X1192037Y335153D01*
X1189325Y335153D01*
X1187969Y336509D01*
X1196155Y340576D02*
X1198867Y343288D01*
X1198867Y335153D01*
X1201578Y335153D02*
X1196155Y335153D01*
X1090120Y287744D02*
X1088764Y286388D01*
X1088764Y283677D01*
X1090120Y282321D01*
X1095543Y282321D01*
X1096899Y283677D01*
X1096899Y286388D01*
X1095543Y287744D01*
X1090120Y290507D02*
X1088764Y291863D01*
X1088764Y294574D01*
X1090120Y295930D01*
X1091476Y295930D01*
X1092832Y294574D01*
X1092832Y293218D01*
X1092832Y294574D02*
X1094187Y295930D01*
X1095543Y295930D01*
X1096899Y294574D01*
X1096899Y291863D01*
X1095543Y290507D01*
X1096899Y298693D02*
X1096899Y304116D01*
X1096899Y298693D02*
X1091476Y304116D01*
X1090120Y304116D01*
X1088764Y302760D01*
X1088764Y300048D01*
X1090120Y298693D01*
X3537588Y87256D02*
X3538944Y85900D01*
X3537588Y87256D02*
X3534877Y87256D01*
X3533521Y85900D01*
X3533521Y80477D01*
X3534877Y79121D01*
X3537588Y79121D01*
X3538944Y80477D01*
X3541707Y84544D02*
X3544418Y87256D01*
X3544418Y79121D01*
X3541707Y79121D02*
X3547130Y79121D01*
X3674748Y77096D02*
X3676104Y75740D01*
X3674748Y77096D02*
X3672037Y77096D01*
X3670681Y75740D01*
X3670681Y70317D01*
X3672037Y68961D01*
X3674748Y68961D01*
X3676104Y70317D01*
X3678867Y75740D02*
X3680223Y77096D01*
X3682934Y77096D01*
X3684290Y75740D01*
X3684290Y74384D01*
X3682934Y73028D01*
X3681578Y73028D01*
X3682934Y73028D02*
X3684290Y71673D01*
X3684290Y70317D01*
X3682934Y68961D01*
X3680223Y68961D01*
X3678867Y70317D01*
X3687053Y75740D02*
X3688408Y77096D01*
X3691120Y77096D01*
X3692476Y75740D01*
X3692476Y74384D01*
X3691120Y73028D01*
X3689764Y73028D01*
X3691120Y73028D02*
X3692476Y71673D01*
X3692476Y70317D01*
X3691120Y68961D01*
X3688408Y68961D01*
X3687053Y70317D01*
X312039Y521081D02*
X303904Y521081D01*
X303904Y525148D01*
X305260Y526504D01*
X307972Y526504D01*
X309327Y525148D01*
X309327Y521081D01*
X309327Y523793D02*
X312039Y526504D01*
X303904Y529267D02*
X303904Y534690D01*
X305260Y534690D01*
X310683Y529267D01*
X312039Y529267D01*
X344544Y510921D02*
X352679Y510921D01*
X344544Y510921D02*
X344544Y514988D01*
X345900Y516344D01*
X348612Y516344D01*
X349967Y514988D01*
X349967Y510921D01*
X349967Y513633D02*
X352679Y516344D01*
X347256Y519107D02*
X344544Y521818D01*
X352679Y521818D01*
X352679Y519107D02*
X352679Y524530D01*
X352679Y527293D02*
X352679Y532716D01*
X352679Y527293D02*
X347256Y532716D01*
X345900Y532716D01*
X344544Y531360D01*
X344544Y528648D01*
X345900Y527293D01*
X385184Y510921D02*
X393319Y510921D01*
X385184Y510921D02*
X385184Y514988D01*
X386540Y516344D01*
X389252Y516344D01*
X390607Y514988D01*
X390607Y510921D01*
X390607Y513633D02*
X393319Y516344D01*
X387896Y519107D02*
X385184Y521818D01*
X393319Y521818D01*
X393319Y519107D02*
X393319Y524530D01*
X386540Y527293D02*
X385184Y528648D01*
X385184Y531360D01*
X386540Y532716D01*
X387896Y532716D01*
X389252Y531360D01*
X389252Y530004D01*
X389252Y531360D02*
X390607Y532716D01*
X391963Y532716D01*
X393319Y531360D01*
X393319Y528648D01*
X391963Y527293D01*
X425824Y510921D02*
X433959Y510921D01*
X425824Y510921D02*
X425824Y514988D01*
X427180Y516344D01*
X429892Y516344D01*
X431247Y514988D01*
X431247Y510921D01*
X431247Y513633D02*
X433959Y516344D01*
X428536Y519107D02*
X425824Y521818D01*
X433959Y521818D01*
X433959Y519107D02*
X433959Y524530D01*
X433959Y531360D02*
X425824Y531360D01*
X429892Y527293D01*
X429892Y532716D01*
X1398989Y445650D02*
X1400345Y444294D01*
X1398989Y445650D02*
X1396277Y445650D01*
X1394922Y444294D01*
X1394922Y438871D01*
X1396277Y437515D01*
X1398989Y437515D01*
X1400345Y438871D01*
X1403107Y444294D02*
X1404463Y445650D01*
X1407175Y445650D01*
X1408531Y444294D01*
X1408531Y442938D01*
X1407175Y441582D01*
X1405819Y441582D01*
X1407175Y441582D02*
X1408531Y440227D01*
X1408531Y438871D01*
X1407175Y437515D01*
X1404463Y437515D01*
X1403107Y438871D01*
X1415361Y437515D02*
X1415361Y445650D01*
X1411293Y441582D01*
X1416716Y441582D01*
X1208575Y380540D02*
X1207219Y381896D01*
X1204507Y381896D01*
X1203152Y380540D01*
X1203152Y375117D01*
X1204507Y373761D01*
X1207219Y373761D01*
X1208575Y375117D01*
X1211337Y380540D02*
X1212693Y381896D01*
X1215405Y381896D01*
X1216761Y380540D01*
X1216761Y379184D01*
X1215405Y377828D01*
X1214049Y377828D01*
X1215405Y377828D02*
X1216761Y376473D01*
X1216761Y375117D01*
X1215405Y373761D01*
X1212693Y373761D01*
X1211337Y375117D01*
X1219523Y381896D02*
X1224946Y381896D01*
X1219523Y381896D02*
X1219523Y377828D01*
X1222235Y379184D01*
X1223591Y379184D01*
X1224946Y377828D01*
X1224946Y375117D01*
X1223591Y373761D01*
X1220879Y373761D01*
X1219523Y375117D01*
X1031700Y287744D02*
X1030344Y286388D01*
X1030344Y283677D01*
X1031700Y282321D01*
X1037123Y282321D01*
X1038479Y283677D01*
X1038479Y286388D01*
X1037123Y287744D01*
X1031700Y290507D02*
X1030344Y291863D01*
X1030344Y294574D01*
X1031700Y295930D01*
X1033056Y295930D01*
X1034412Y294574D01*
X1034412Y293218D01*
X1034412Y294574D02*
X1035767Y295930D01*
X1037123Y295930D01*
X1038479Y294574D01*
X1038479Y291863D01*
X1037123Y290507D01*
X1031700Y301404D02*
X1030344Y304116D01*
X1031700Y301404D02*
X1034412Y298693D01*
X1037123Y298693D01*
X1038479Y300048D01*
X1038479Y302760D01*
X1037123Y304116D01*
X1035767Y304116D01*
X1034412Y302760D01*
X1034412Y298693D01*
X1438359Y254642D02*
X1439715Y253286D01*
X1438359Y254642D02*
X1435647Y254642D01*
X1434292Y253286D01*
X1434292Y247863D01*
X1435647Y246507D01*
X1438359Y246507D01*
X1439715Y247863D01*
X1442477Y253286D02*
X1443833Y254642D01*
X1446545Y254642D01*
X1447901Y253286D01*
X1447901Y251930D01*
X1446545Y250574D01*
X1445189Y250574D01*
X1446545Y250574D02*
X1447901Y249219D01*
X1447901Y247863D01*
X1446545Y246507D01*
X1443833Y246507D01*
X1442477Y247863D01*
X1450663Y254642D02*
X1456086Y254642D01*
X1456086Y253286D01*
X1450663Y247863D01*
X1450663Y246507D01*
X1629113Y104782D02*
X1630469Y103426D01*
X1629113Y104782D02*
X1626401Y104782D01*
X1625046Y103426D01*
X1625046Y98003D01*
X1626401Y96647D01*
X1629113Y96647D01*
X1630469Y98003D01*
X1633231Y104782D02*
X1638655Y104782D01*
X1638655Y103426D01*
X1633231Y98003D01*
X1633231Y96647D01*
X1641417Y104782D02*
X1646840Y104782D01*
X1646840Y103426D01*
X1641417Y98003D01*
X1641417Y96647D01*
X1630637Y77604D02*
X1631993Y76248D01*
X1630637Y77604D02*
X1627925Y77604D01*
X1626570Y76248D01*
X1626570Y70825D01*
X1627925Y69469D01*
X1630637Y69469D01*
X1631993Y70825D01*
X1634755Y77604D02*
X1640179Y77604D01*
X1640179Y76248D01*
X1634755Y70825D01*
X1634755Y69469D01*
X1642941Y76248D02*
X1644297Y77604D01*
X1647009Y77604D01*
X1648364Y76248D01*
X1648364Y74892D01*
X1647009Y73536D01*
X1648364Y72181D01*
X1648364Y70825D01*
X1647009Y69469D01*
X1644297Y69469D01*
X1642941Y70825D01*
X1642941Y72181D01*
X1644297Y73536D01*
X1642941Y74892D01*
X1642941Y76248D01*
X1644297Y73536D02*
X1647009Y73536D01*
X1573573Y264462D02*
X1572217Y265818D01*
X1569505Y265818D01*
X1568150Y264462D01*
X1568150Y259039D01*
X1569505Y257683D01*
X1572217Y257683D01*
X1573573Y259039D01*
X1576335Y265818D02*
X1581759Y265818D01*
X1581759Y264462D01*
X1576335Y259039D01*
X1576335Y257683D01*
X1584521Y259039D02*
X1585877Y257683D01*
X1588589Y257683D01*
X1589944Y259039D01*
X1589944Y264462D01*
X1588589Y265818D01*
X1585877Y265818D01*
X1584521Y264462D01*
X1584521Y263106D01*
X1585877Y261750D01*
X1589944Y261750D01*
X1574589Y292148D02*
X1573233Y293504D01*
X1570521Y293504D01*
X1569166Y292148D01*
X1569166Y286725D01*
X1570521Y285369D01*
X1573233Y285369D01*
X1574589Y286725D01*
X1577351Y292148D02*
X1578707Y293504D01*
X1581419Y293504D01*
X1582775Y292148D01*
X1582775Y290792D01*
X1581419Y289436D01*
X1582775Y288081D01*
X1582775Y286725D01*
X1581419Y285369D01*
X1578707Y285369D01*
X1577351Y286725D01*
X1577351Y288081D01*
X1578707Y289436D01*
X1577351Y290792D01*
X1577351Y292148D01*
X1578707Y289436D02*
X1581419Y289436D01*
X1585537Y286725D02*
X1585537Y292148D01*
X1586893Y293504D01*
X1589605Y293504D01*
X1590960Y292148D01*
X1590960Y286725D01*
X1589605Y285369D01*
X1586893Y285369D01*
X1585537Y286725D01*
X1590960Y292148D01*
D21*
X1469520Y85020D02*
X1469522Y85083D01*
X1469528Y85145D01*
X1469538Y85207D01*
X1469551Y85269D01*
X1469569Y85329D01*
X1469590Y85388D01*
X1469615Y85446D01*
X1469644Y85502D01*
X1469676Y85556D01*
X1469711Y85608D01*
X1469749Y85657D01*
X1469791Y85705D01*
X1469835Y85749D01*
X1469883Y85791D01*
X1469932Y85829D01*
X1469984Y85864D01*
X1470038Y85896D01*
X1470094Y85925D01*
X1470152Y85950D01*
X1470211Y85971D01*
X1470271Y85989D01*
X1470333Y86002D01*
X1470395Y86012D01*
X1470457Y86018D01*
X1470520Y86020D01*
X1470583Y86018D01*
X1470645Y86012D01*
X1470707Y86002D01*
X1470769Y85989D01*
X1470829Y85971D01*
X1470888Y85950D01*
X1470946Y85925D01*
X1471002Y85896D01*
X1471056Y85864D01*
X1471108Y85829D01*
X1471157Y85791D01*
X1471205Y85749D01*
X1471249Y85705D01*
X1471291Y85657D01*
X1471329Y85608D01*
X1471364Y85556D01*
X1471396Y85502D01*
X1471425Y85446D01*
X1471450Y85388D01*
X1471471Y85329D01*
X1471489Y85269D01*
X1471502Y85207D01*
X1471512Y85145D01*
X1471518Y85083D01*
X1471520Y85020D01*
X1471518Y84957D01*
X1471512Y84895D01*
X1471502Y84833D01*
X1471489Y84771D01*
X1471471Y84711D01*
X1471450Y84652D01*
X1471425Y84594D01*
X1471396Y84538D01*
X1471364Y84484D01*
X1471329Y84432D01*
X1471291Y84383D01*
X1471249Y84335D01*
X1471205Y84291D01*
X1471157Y84249D01*
X1471108Y84211D01*
X1471056Y84176D01*
X1471002Y84144D01*
X1470946Y84115D01*
X1470888Y84090D01*
X1470829Y84069D01*
X1470769Y84051D01*
X1470707Y84038D01*
X1470645Y84028D01*
X1470583Y84022D01*
X1470520Y84020D01*
X1470457Y84022D01*
X1470395Y84028D01*
X1470333Y84038D01*
X1470271Y84051D01*
X1470211Y84069D01*
X1470152Y84090D01*
X1470094Y84115D01*
X1470038Y84144D01*
X1469984Y84176D01*
X1469932Y84211D01*
X1469883Y84249D01*
X1469835Y84291D01*
X1469791Y84335D01*
X1469749Y84383D01*
X1469711Y84432D01*
X1469676Y84484D01*
X1469644Y84538D01*
X1469615Y84594D01*
X1469590Y84652D01*
X1469569Y84711D01*
X1469551Y84771D01*
X1469538Y84833D01*
X1469528Y84895D01*
X1469522Y84957D01*
X1469520Y85020D01*
D16*
X1464185Y111040D02*
X1460020Y111040D01*
X1460020Y148040D01*
X1475735Y148040D01*
X1522855Y111040D02*
X1527020Y111040D01*
X1527020Y148040D01*
X1511305Y148040D01*
X1432909Y149426D02*
X1432909Y139884D01*
X1434817Y137976D01*
X1438634Y137976D01*
X1440542Y139884D01*
X1440542Y149426D01*
X1448429Y147517D02*
X1452246Y149426D01*
X1448429Y147517D02*
X1444612Y143701D01*
X1444612Y139884D01*
X1446521Y137976D01*
X1450337Y137976D01*
X1452246Y139884D01*
X1452246Y141792D01*
X1450337Y143701D01*
X1444612Y143701D01*
D15*
X1551135Y82430D02*
X1552491Y81074D01*
X1551135Y82430D02*
X1548423Y82430D01*
X1547068Y81074D01*
X1547068Y75651D01*
X1548423Y74295D01*
X1551135Y74295D01*
X1552491Y75651D01*
X1555253Y81074D02*
X1556609Y82430D01*
X1559321Y82430D01*
X1560677Y81074D01*
X1560677Y79718D01*
X1559321Y78362D01*
X1557965Y78362D01*
X1559321Y78362D02*
X1560677Y77007D01*
X1560677Y75651D01*
X1559321Y74295D01*
X1556609Y74295D01*
X1555253Y75651D01*
X1563439Y81074D02*
X1564795Y82430D01*
X1567507Y82430D01*
X1568862Y81074D01*
X1568862Y79718D01*
X1567507Y78362D01*
X1568862Y77007D01*
X1568862Y75651D01*
X1567507Y74295D01*
X1564795Y74295D01*
X1563439Y75651D01*
X1563439Y77007D01*
X1564795Y78362D01*
X1563439Y79718D01*
X1563439Y81074D01*
X1564795Y78362D02*
X1567507Y78362D01*
X1445476Y72692D02*
X1444120Y74048D01*
X1441409Y74048D01*
X1440053Y72692D01*
X1440053Y67269D01*
X1441409Y65913D01*
X1444120Y65913D01*
X1445476Y67269D01*
X1448239Y72692D02*
X1449595Y74048D01*
X1452306Y74048D01*
X1453662Y72692D01*
X1453662Y71336D01*
X1452306Y69980D01*
X1450950Y69980D01*
X1452306Y69980D02*
X1453662Y68625D01*
X1453662Y67269D01*
X1452306Y65913D01*
X1449595Y65913D01*
X1448239Y67269D01*
X1456425Y67269D02*
X1457780Y65913D01*
X1460492Y65913D01*
X1461848Y67269D01*
X1461848Y72692D01*
X1460492Y74048D01*
X1457780Y74048D01*
X1456425Y72692D01*
X1456425Y71336D01*
X1457780Y69980D01*
X1461848Y69980D01*
D16*
X1278509Y652780D02*
X1134491Y652780D01*
X1134491Y497586D01*
X1278509Y497586D01*
X1278509Y652780D01*
D14*
X1268710Y478707D02*
X1270659Y476758D01*
X1272608Y476758D01*
X1274557Y478707D01*
X1274557Y488452D01*
X1272608Y488452D02*
X1276506Y488452D01*
X1286251Y488452D02*
X1286251Y476758D01*
X1280404Y482605D02*
X1286251Y488452D01*
X1288200Y482605D02*
X1280404Y482605D01*
D22*
X364846Y279254D02*
X364848Y279374D01*
X364854Y279493D01*
X364864Y279612D01*
X364878Y279731D01*
X364896Y279850D01*
X364917Y279967D01*
X364943Y280084D01*
X364973Y280200D01*
X365006Y280315D01*
X365043Y280429D01*
X365084Y280541D01*
X365129Y280652D01*
X365177Y280762D01*
X365229Y280870D01*
X365284Y280976D01*
X365343Y281080D01*
X365406Y281182D01*
X365472Y281282D01*
X365541Y281380D01*
X365613Y281475D01*
X365688Y281568D01*
X365767Y281658D01*
X365848Y281746D01*
X365932Y281831D01*
X366019Y281913D01*
X366109Y281992D01*
X366201Y282069D01*
X366296Y282142D01*
X366393Y282212D01*
X366493Y282278D01*
X366594Y282341D01*
X366698Y282401D01*
X366804Y282458D01*
X366911Y282510D01*
X367020Y282560D01*
X367131Y282605D01*
X367243Y282647D01*
X367356Y282685D01*
X367471Y282719D01*
X367587Y282750D01*
X367703Y282777D01*
X367821Y282799D01*
X367939Y282818D01*
X368058Y282833D01*
X368177Y282844D01*
X368296Y282851D01*
X368416Y282854D01*
X368536Y282853D01*
X368655Y282848D01*
X368775Y282839D01*
X368894Y282826D01*
X369012Y282809D01*
X369130Y282788D01*
X369247Y282764D01*
X369363Y282735D01*
X369478Y282703D01*
X369593Y282667D01*
X369705Y282627D01*
X369817Y282583D01*
X369927Y282535D01*
X370035Y282484D01*
X370141Y282430D01*
X370246Y282372D01*
X370349Y282310D01*
X370449Y282245D01*
X370547Y282177D01*
X370643Y282106D01*
X370737Y282031D01*
X370828Y281953D01*
X370916Y281873D01*
X371002Y281789D01*
X371085Y281703D01*
X371165Y281614D01*
X371242Y281522D01*
X371316Y281428D01*
X371386Y281331D01*
X371454Y281232D01*
X371518Y281131D01*
X371579Y281028D01*
X371636Y280923D01*
X371689Y280816D01*
X371740Y280707D01*
X371786Y280597D01*
X371829Y280485D01*
X371868Y280372D01*
X371903Y280258D01*
X371935Y280142D01*
X371962Y280026D01*
X371986Y279909D01*
X372006Y279791D01*
X372022Y279672D01*
X372034Y279553D01*
X372042Y279433D01*
X372046Y279314D01*
X372046Y279194D01*
X372042Y279075D01*
X372034Y278955D01*
X372022Y278836D01*
X372006Y278717D01*
X371986Y278599D01*
X371962Y278482D01*
X371935Y278366D01*
X371903Y278250D01*
X371868Y278136D01*
X371829Y278023D01*
X371786Y277911D01*
X371740Y277801D01*
X371689Y277692D01*
X371636Y277585D01*
X371579Y277480D01*
X371518Y277377D01*
X371454Y277276D01*
X371386Y277177D01*
X371316Y277080D01*
X371242Y276986D01*
X371165Y276894D01*
X371085Y276805D01*
X371002Y276719D01*
X370916Y276635D01*
X370828Y276555D01*
X370737Y276477D01*
X370643Y276402D01*
X370547Y276331D01*
X370449Y276263D01*
X370349Y276198D01*
X370246Y276136D01*
X370141Y276078D01*
X370035Y276024D01*
X369927Y275973D01*
X369817Y275925D01*
X369705Y275881D01*
X369593Y275841D01*
X369478Y275805D01*
X369363Y275773D01*
X369247Y275744D01*
X369130Y275720D01*
X369012Y275699D01*
X368894Y275682D01*
X368775Y275669D01*
X368655Y275660D01*
X368536Y275655D01*
X368416Y275654D01*
X368296Y275657D01*
X368177Y275664D01*
X368058Y275675D01*
X367939Y275690D01*
X367821Y275709D01*
X367703Y275731D01*
X367587Y275758D01*
X367471Y275789D01*
X367356Y275823D01*
X367243Y275861D01*
X367131Y275903D01*
X367020Y275948D01*
X366911Y275998D01*
X366804Y276050D01*
X366698Y276107D01*
X366594Y276167D01*
X366493Y276230D01*
X366393Y276296D01*
X366296Y276366D01*
X366201Y276439D01*
X366109Y276516D01*
X366019Y276595D01*
X365932Y276677D01*
X365848Y276762D01*
X365767Y276850D01*
X365688Y276940D01*
X365613Y277033D01*
X365541Y277128D01*
X365472Y277226D01*
X365406Y277326D01*
X365343Y277428D01*
X365284Y277532D01*
X365229Y277638D01*
X365177Y277746D01*
X365129Y277856D01*
X365084Y277967D01*
X365043Y278079D01*
X365006Y278193D01*
X364973Y278308D01*
X364943Y278424D01*
X364917Y278541D01*
X364896Y278658D01*
X364878Y278777D01*
X364864Y278896D01*
X364854Y279015D01*
X364848Y279134D01*
X364846Y279254D01*
D23*
X428446Y289254D02*
X428446Y219254D01*
X358446Y219254D01*
X358446Y289254D01*
X428446Y289254D01*
D14*
X388914Y311641D02*
X388914Y321386D01*
X388914Y311641D02*
X390863Y309692D01*
X394761Y309692D01*
X396710Y311641D01*
X396710Y321386D01*
X400608Y321386D02*
X408404Y321386D01*
X408404Y319437D01*
X400608Y311641D01*
X400608Y309692D01*
D19*
X265988Y251094D02*
X265988Y237094D01*
X265988Y251094D02*
X240488Y251094D01*
X240488Y237094D01*
X265988Y237094D01*
D15*
X214344Y244313D02*
X212776Y245881D01*
X209641Y245881D01*
X208073Y244313D01*
X208073Y238043D01*
X209641Y236475D01*
X212776Y236475D01*
X214344Y238043D01*
X217429Y245881D02*
X223699Y245881D01*
X217429Y245881D02*
X217429Y241178D01*
X220564Y242746D01*
X222132Y242746D01*
X223699Y241178D01*
X223699Y238043D01*
X222132Y236475D01*
X218996Y236475D01*
X217429Y238043D01*
X226784Y236475D02*
X233055Y236475D01*
X226784Y236475D02*
X233055Y242746D01*
X233055Y244313D01*
X231487Y245881D01*
X228351Y245881D01*
X226784Y244313D01*
D19*
X265988Y235854D02*
X265988Y221854D01*
X265988Y235854D02*
X240488Y235854D01*
X240488Y221854D01*
X265988Y221854D01*
D15*
X214344Y229073D02*
X212776Y230641D01*
X209641Y230641D01*
X208073Y229073D01*
X208073Y222803D01*
X209641Y221235D01*
X212776Y221235D01*
X214344Y222803D01*
X217429Y230641D02*
X223699Y230641D01*
X217429Y230641D02*
X217429Y225938D01*
X220564Y227506D01*
X222132Y227506D01*
X223699Y225938D01*
X223699Y222803D01*
X222132Y221235D01*
X218996Y221235D01*
X217429Y222803D01*
X226784Y229073D02*
X228351Y230641D01*
X231487Y230641D01*
X233055Y229073D01*
X233055Y227506D01*
X231487Y225938D01*
X229919Y225938D01*
X231487Y225938D02*
X233055Y224370D01*
X233055Y222803D01*
X231487Y221235D01*
X228351Y221235D01*
X226784Y222803D01*
D19*
X305628Y222112D02*
X305628Y236612D01*
X282128Y236612D01*
X282128Y222112D01*
X305628Y222112D01*
D15*
X283273Y220989D02*
X283273Y211583D01*
X283273Y220989D02*
X287976Y220989D01*
X289544Y219421D01*
X289544Y216286D01*
X287976Y214718D01*
X283273Y214718D01*
X286409Y214718D02*
X289544Y211583D01*
X292629Y211583D02*
X298899Y211583D01*
X292629Y211583D02*
X298899Y217854D01*
X298899Y219421D01*
X297332Y220989D01*
X294196Y220989D01*
X292629Y219421D01*
X301984Y220989D02*
X308255Y220989D01*
X301984Y220989D02*
X301984Y216286D01*
X305119Y217854D01*
X306687Y217854D01*
X308255Y216286D01*
X308255Y213151D01*
X306687Y211583D01*
X303551Y211583D01*
X301984Y213151D01*
D19*
X281824Y239964D02*
X267324Y239964D01*
X281824Y239964D02*
X281824Y263464D01*
X267324Y263464D01*
X267324Y239964D01*
D15*
X244157Y261875D02*
X244157Y271281D01*
X248860Y271281D01*
X250428Y269713D01*
X250428Y266578D01*
X248860Y265010D01*
X244157Y265010D01*
X247293Y265010D02*
X250428Y261875D01*
X253513Y261875D02*
X259783Y261875D01*
X253513Y261875D02*
X259783Y268146D01*
X259783Y269713D01*
X258216Y271281D01*
X255080Y271281D01*
X253513Y269713D01*
X266003Y269713D02*
X269139Y271281D01*
X266003Y269713D02*
X262868Y266578D01*
X262868Y263443D01*
X264435Y261875D01*
X267571Y261875D01*
X269139Y263443D01*
X269139Y265010D01*
X267571Y266578D01*
X262868Y266578D01*
D19*
X179716Y195514D02*
X165216Y195514D01*
X179716Y195514D02*
X179716Y219014D01*
X165216Y219014D01*
X165216Y195514D01*
D15*
X167449Y222251D02*
X167449Y231657D01*
X172152Y231657D01*
X173720Y230089D01*
X173720Y226954D01*
X172152Y225386D01*
X167449Y225386D01*
X170585Y225386D02*
X173720Y222251D01*
X176805Y222251D02*
X183075Y222251D01*
X176805Y222251D02*
X183075Y228522D01*
X183075Y230089D01*
X181508Y231657D01*
X178372Y231657D01*
X176805Y230089D01*
X186160Y231657D02*
X192431Y231657D01*
X192431Y230089D01*
X186160Y223819D01*
X186160Y222251D01*
D19*
X436996Y201742D02*
X451496Y201742D01*
X436996Y201742D02*
X436996Y178242D01*
X451496Y178242D01*
X451496Y201742D01*
D15*
X448817Y148907D02*
X439411Y148907D01*
X439411Y153610D01*
X440979Y155178D01*
X444114Y155178D01*
X445682Y153610D01*
X445682Y148907D01*
X445682Y152043D02*
X448817Y155178D01*
X448817Y158263D02*
X448817Y164533D01*
X448817Y158263D02*
X442546Y164533D01*
X440979Y164533D01*
X439411Y162966D01*
X439411Y159830D01*
X440979Y158263D01*
X447249Y167618D02*
X448817Y169185D01*
X448817Y172321D01*
X447249Y173889D01*
X440979Y173889D01*
X439411Y172321D01*
X439411Y169185D01*
X440979Y167618D01*
X442546Y167618D01*
X444114Y169185D01*
X444114Y173889D01*
D19*
X452490Y201742D02*
X466990Y201742D01*
X452490Y201742D02*
X452490Y178242D01*
X466990Y178242D01*
X466990Y201742D01*
D15*
X464311Y150177D02*
X454905Y150177D01*
X454905Y154880D01*
X456473Y156448D01*
X459608Y156448D01*
X461176Y154880D01*
X461176Y150177D01*
X461176Y153313D02*
X464311Y156448D01*
X456473Y159533D02*
X454905Y161100D01*
X454905Y164236D01*
X456473Y165803D01*
X458040Y165803D01*
X459608Y164236D01*
X459608Y162668D01*
X459608Y164236D02*
X461176Y165803D01*
X462743Y165803D01*
X464311Y164236D01*
X464311Y161100D01*
X462743Y159533D01*
X462743Y168888D02*
X456473Y168888D01*
X454905Y170455D01*
X454905Y173591D01*
X456473Y175159D01*
X462743Y175159D01*
X464311Y173591D01*
X464311Y170455D01*
X462743Y168888D01*
X456473Y175159D01*
D19*
X305882Y236590D02*
X305882Y251090D01*
X282382Y251090D01*
X282382Y236590D01*
X305882Y236590D01*
D15*
X286067Y251715D02*
X286067Y261121D01*
X290770Y261121D01*
X292338Y259553D01*
X292338Y256418D01*
X290770Y254850D01*
X286067Y254850D01*
X289203Y254850D02*
X292338Y251715D01*
X295423Y259553D02*
X296990Y261121D01*
X300126Y261121D01*
X301693Y259553D01*
X301693Y257986D01*
X300126Y256418D01*
X298558Y256418D01*
X300126Y256418D02*
X301693Y254850D01*
X301693Y253283D01*
X300126Y251715D01*
X296990Y251715D01*
X295423Y253283D01*
X304778Y257986D02*
X307913Y261121D01*
X307913Y251715D01*
X304778Y251715D02*
X311049Y251715D01*
D19*
X335092Y276976D02*
X335092Y291476D01*
X311592Y291476D01*
X311592Y276976D01*
X335092Y276976D01*
D15*
X311151Y273115D02*
X301745Y273115D01*
X301745Y277818D01*
X303313Y279386D01*
X306448Y279386D01*
X308016Y277818D01*
X308016Y273115D01*
X308016Y276250D02*
X311151Y279386D01*
X303313Y282470D02*
X301745Y284038D01*
X301745Y287173D01*
X303313Y288741D01*
X304880Y288741D01*
X306448Y287173D01*
X306448Y285606D01*
X306448Y287173D02*
X308016Y288741D01*
X309583Y288741D01*
X311151Y287173D01*
X311151Y284038D01*
X309583Y282470D01*
X311151Y291825D02*
X311151Y298096D01*
X311151Y291825D02*
X304880Y298096D01*
X303313Y298096D01*
X301745Y296528D01*
X301745Y293393D01*
X303313Y291825D01*
D19*
X335092Y291454D02*
X335092Y305954D01*
X311592Y305954D01*
X311592Y291454D01*
X335092Y291454D01*
D15*
X312737Y306325D02*
X312737Y315731D01*
X317440Y315731D01*
X319008Y314163D01*
X319008Y311028D01*
X317440Y309460D01*
X312737Y309460D01*
X315873Y309460D02*
X319008Y306325D01*
X322093Y314163D02*
X323660Y315731D01*
X326796Y315731D01*
X328363Y314163D01*
X328363Y312596D01*
X326796Y311028D01*
X325228Y311028D01*
X326796Y311028D02*
X328363Y309460D01*
X328363Y307893D01*
X326796Y306325D01*
X323660Y306325D01*
X322093Y307893D01*
X331448Y314163D02*
X333015Y315731D01*
X336151Y315731D01*
X337719Y314163D01*
X337719Y312596D01*
X336151Y311028D01*
X334583Y311028D01*
X336151Y311028D02*
X337719Y309460D01*
X337719Y307893D01*
X336151Y306325D01*
X333015Y306325D01*
X331448Y307893D01*
D16*
X159368Y192152D02*
X141368Y192152D01*
X159368Y192152D02*
X159368Y208152D01*
X141368Y208152D01*
X141368Y192152D01*
D15*
X134398Y218945D02*
X132830Y220513D01*
X129695Y220513D01*
X128127Y218945D01*
X128127Y212675D01*
X129695Y211107D01*
X132830Y211107D01*
X134398Y212675D01*
X137483Y220513D02*
X143753Y220513D01*
X137483Y220513D02*
X137483Y215810D01*
X140618Y217378D01*
X142186Y217378D01*
X143753Y215810D01*
X143753Y212675D01*
X142186Y211107D01*
X139050Y211107D01*
X137483Y212675D01*
X151541Y211107D02*
X151541Y220513D01*
X146838Y215810D01*
X153109Y215810D01*
D19*
X267324Y234508D02*
X281824Y234508D01*
X267324Y234508D02*
X267324Y211008D01*
X281824Y211008D01*
X281824Y234508D01*
D15*
X237299Y216163D02*
X237299Y206757D01*
X237299Y216163D02*
X242002Y216163D01*
X243570Y214595D01*
X243570Y211460D01*
X242002Y209892D01*
X237299Y209892D01*
X240435Y209892D02*
X243570Y206757D01*
X246655Y206757D02*
X252925Y206757D01*
X246655Y206757D02*
X252925Y213028D01*
X252925Y214595D01*
X251358Y216163D01*
X248222Y216163D01*
X246655Y214595D01*
X256010Y214595D02*
X257577Y216163D01*
X260713Y216163D01*
X262281Y214595D01*
X262281Y213028D01*
X260713Y211460D01*
X262281Y209892D01*
X262281Y208325D01*
X260713Y206757D01*
X257577Y206757D01*
X256010Y208325D01*
X256010Y209892D01*
X257577Y211460D01*
X256010Y213028D01*
X256010Y214595D01*
X257577Y211460D02*
X260713Y211460D01*
D19*
X286374Y315280D02*
X300874Y315280D01*
X286374Y315280D02*
X286374Y291780D01*
X300874Y291780D01*
X300874Y315280D01*
D15*
X260669Y302521D02*
X260669Y293115D01*
X260669Y302521D02*
X265372Y302521D01*
X266940Y300953D01*
X266940Y297818D01*
X265372Y296250D01*
X260669Y296250D01*
X263804Y296250D02*
X266940Y293115D01*
X270024Y300953D02*
X271592Y302521D01*
X274727Y302521D01*
X276295Y300953D01*
X276295Y299386D01*
X274727Y297818D01*
X273160Y297818D01*
X274727Y297818D02*
X276295Y296250D01*
X276295Y294683D01*
X274727Y293115D01*
X271592Y293115D01*
X270024Y294683D01*
X284082Y293115D02*
X284082Y302521D01*
X279379Y297818D01*
X285650Y297818D01*
D19*
X286120Y265872D02*
X300620Y265872D01*
X300620Y289372D01*
X286120Y289372D01*
X286120Y265872D01*
D15*
X255333Y275591D02*
X255333Y284997D01*
X260036Y284997D01*
X261604Y283429D01*
X261604Y280294D01*
X260036Y278726D01*
X255333Y278726D01*
X258469Y278726D02*
X261604Y275591D01*
X264689Y283429D02*
X266256Y284997D01*
X269392Y284997D01*
X270959Y283429D01*
X270959Y281862D01*
X269392Y280294D01*
X267824Y280294D01*
X269392Y280294D02*
X270959Y278726D01*
X270959Y277159D01*
X269392Y275591D01*
X266256Y275591D01*
X264689Y277159D01*
X274044Y284997D02*
X280315Y284997D01*
X274044Y284997D02*
X274044Y280294D01*
X277179Y281862D01*
X278747Y281862D01*
X280315Y280294D01*
X280315Y277159D01*
X278747Y275591D01*
X275611Y275591D01*
X274044Y277159D01*
D19*
X498398Y264556D02*
X498398Y250556D01*
X498398Y264556D02*
X472898Y264556D01*
X472898Y250556D01*
X498398Y250556D01*
D15*
X482314Y273015D02*
X480746Y274583D01*
X477611Y274583D01*
X476043Y273015D01*
X476043Y266745D01*
X477611Y265177D01*
X480746Y265177D01*
X482314Y266745D01*
X485399Y274583D02*
X491669Y274583D01*
X485399Y274583D02*
X485399Y269880D01*
X488534Y271448D01*
X490102Y271448D01*
X491669Y269880D01*
X491669Y266745D01*
X490102Y265177D01*
X486966Y265177D01*
X485399Y266745D01*
X494754Y274583D02*
X501025Y274583D01*
X494754Y274583D02*
X494754Y269880D01*
X497889Y271448D01*
X499457Y271448D01*
X501025Y269880D01*
X501025Y266745D01*
X499457Y265177D01*
X496321Y265177D01*
X494754Y266745D01*
D16*
X474728Y228948D02*
X474728Y207948D01*
X487728Y243948D02*
X493728Y243948D01*
X493728Y193948D02*
X487728Y193948D01*
X506728Y208948D02*
X506728Y229948D01*
X502728Y186948D02*
X512728Y186948D01*
X512728Y196948D01*
D14*
X514828Y212696D02*
X507032Y224390D01*
X514828Y224390D02*
X507032Y212696D01*
X518726Y220492D02*
X522624Y224390D01*
X522624Y212696D01*
X518726Y212696D02*
X526522Y212696D01*
D19*
X482296Y186832D02*
X482296Y172832D01*
X507796Y172832D01*
X507796Y186832D01*
X482296Y186832D01*
D15*
X487130Y172219D02*
X488698Y170651D01*
X487130Y172219D02*
X483995Y172219D01*
X482427Y170651D01*
X482427Y164381D01*
X483995Y162813D01*
X487130Y162813D01*
X488698Y164381D01*
X491782Y172219D02*
X498053Y172219D01*
X491782Y172219D02*
X491782Y167516D01*
X494918Y169084D01*
X496485Y169084D01*
X498053Y167516D01*
X498053Y164381D01*
X496485Y162813D01*
X493350Y162813D01*
X491782Y164381D01*
X504273Y170651D02*
X507408Y172219D01*
X504273Y170651D02*
X501137Y167516D01*
X501137Y164381D01*
X502705Y162813D01*
X505840Y162813D01*
X507408Y164381D01*
X507408Y165948D01*
X505840Y167516D01*
X501137Y167516D01*
D19*
X469784Y226248D02*
X455284Y226248D01*
X469784Y226248D02*
X469784Y249748D01*
X455284Y249748D01*
X455284Y226248D01*
D15*
X454907Y251779D02*
X464313Y251779D01*
X454907Y251779D02*
X454907Y256482D01*
X456475Y258050D01*
X459610Y258050D01*
X461178Y256482D01*
X461178Y251779D01*
X461178Y254914D02*
X464313Y258050D01*
X456475Y261134D02*
X454907Y262702D01*
X454907Y265837D01*
X456475Y267405D01*
X458042Y267405D01*
X459610Y265837D01*
X459610Y264270D01*
X459610Y265837D02*
X461178Y267405D01*
X462745Y267405D01*
X464313Y265837D01*
X464313Y262702D01*
X462745Y261134D01*
X456475Y273625D02*
X454907Y276760D01*
X456475Y273625D02*
X459610Y270489D01*
X462745Y270489D01*
X464313Y272057D01*
X464313Y275192D01*
X462745Y276760D01*
X461178Y276760D01*
X459610Y275192D01*
X459610Y270489D01*
D19*
X454294Y240080D02*
X440294Y240080D01*
X440294Y214580D01*
X454294Y214580D01*
X454294Y240080D01*
D15*
X444537Y249684D02*
X442969Y248116D01*
X442969Y244981D01*
X444537Y243413D01*
X450807Y243413D01*
X452375Y244981D01*
X452375Y248116D01*
X450807Y249684D01*
X442969Y252768D02*
X442969Y259039D01*
X442969Y252768D02*
X447672Y252768D01*
X446104Y255904D01*
X446104Y257471D01*
X447672Y259039D01*
X450807Y259039D01*
X452375Y257471D01*
X452375Y254336D01*
X450807Y252768D01*
X450807Y262123D02*
X452375Y263691D01*
X452375Y266826D01*
X450807Y268394D01*
X444537Y268394D01*
X442969Y266826D01*
X442969Y263691D01*
X444537Y262123D01*
X446104Y262123D01*
X447672Y263691D01*
X447672Y268394D01*
D19*
X415432Y200964D02*
X401432Y200964D01*
X401432Y175464D01*
X415432Y175464D01*
X415432Y200964D01*
D15*
X405165Y153638D02*
X403597Y152070D01*
X403597Y148935D01*
X405165Y147367D01*
X411435Y147367D01*
X413003Y148935D01*
X413003Y152070D01*
X411435Y153638D01*
X405165Y159858D02*
X403597Y162993D01*
X405165Y159858D02*
X408300Y156723D01*
X411435Y156723D01*
X413003Y158290D01*
X413003Y161426D01*
X411435Y162993D01*
X409868Y162993D01*
X408300Y161426D01*
X408300Y156723D01*
X411435Y166078D02*
X405165Y166078D01*
X403597Y167645D01*
X403597Y170781D01*
X405165Y172349D01*
X411435Y172349D01*
X413003Y170781D01*
X413003Y167645D01*
X411435Y166078D01*
X405165Y172349D01*
D19*
X384444Y200710D02*
X370444Y200710D01*
X370444Y175210D01*
X384444Y175210D01*
X384444Y200710D01*
D15*
X372145Y149066D02*
X370577Y147498D01*
X370577Y144363D01*
X372145Y142795D01*
X378415Y142795D01*
X379983Y144363D01*
X379983Y147498D01*
X378415Y149066D01*
X372145Y155286D02*
X370577Y158421D01*
X372145Y155286D02*
X375280Y152151D01*
X378415Y152151D01*
X379983Y153718D01*
X379983Y156854D01*
X378415Y158421D01*
X376848Y158421D01*
X375280Y156854D01*
X375280Y152151D01*
X373712Y161506D02*
X370577Y164641D01*
X379983Y164641D01*
X379983Y161506D02*
X379983Y167777D01*
D19*
X369204Y200964D02*
X355204Y200964D01*
X355204Y175464D01*
X369204Y175464D01*
X369204Y200964D01*
D15*
X351825Y154400D02*
X350257Y152832D01*
X350257Y149697D01*
X351825Y148129D01*
X358095Y148129D01*
X359663Y149697D01*
X359663Y152832D01*
X358095Y154400D01*
X351825Y160620D02*
X350257Y163755D01*
X351825Y160620D02*
X354960Y157485D01*
X358095Y157485D01*
X359663Y159052D01*
X359663Y162188D01*
X358095Y163755D01*
X356528Y163755D01*
X354960Y162188D01*
X354960Y157485D01*
X359663Y166840D02*
X359663Y173111D01*
X359663Y166840D02*
X353392Y173111D01*
X351825Y173111D01*
X350257Y171543D01*
X350257Y168407D01*
X351825Y166840D01*
D19*
X345328Y233730D02*
X331328Y233730D01*
X331328Y208230D01*
X345328Y208230D01*
X345328Y233730D01*
D15*
X335492Y207017D02*
X337060Y205449D01*
X335492Y207017D02*
X332357Y207017D01*
X330789Y205449D01*
X330789Y199179D01*
X332357Y197611D01*
X335492Y197611D01*
X337060Y199179D01*
X343280Y205449D02*
X346415Y207017D01*
X343280Y205449D02*
X340144Y202314D01*
X340144Y199179D01*
X341712Y197611D01*
X344847Y197611D01*
X346415Y199179D01*
X346415Y200746D01*
X344847Y202314D01*
X340144Y202314D01*
X354202Y197611D02*
X354202Y207017D01*
X349499Y202314D01*
X355770Y202314D01*
D19*
X339394Y262494D02*
X339394Y276494D01*
X313894Y276494D01*
X313894Y262494D01*
X339394Y262494D01*
D15*
X325596Y261077D02*
X324028Y262645D01*
X320893Y262645D01*
X319325Y261077D01*
X319325Y254807D01*
X320893Y253239D01*
X324028Y253239D01*
X325596Y254807D01*
X331816Y261077D02*
X334951Y262645D01*
X331816Y261077D02*
X328681Y257942D01*
X328681Y254807D01*
X330248Y253239D01*
X333384Y253239D01*
X334951Y254807D01*
X334951Y256374D01*
X333384Y257942D01*
X328681Y257942D01*
X338036Y262645D02*
X344307Y262645D01*
X338036Y262645D02*
X338036Y257942D01*
X341171Y259510D01*
X342739Y259510D01*
X344307Y257942D01*
X344307Y254807D01*
X342739Y253239D01*
X339603Y253239D01*
X338036Y254807D01*
D16*
X282558Y201040D02*
X264558Y201040D01*
X264558Y185040D01*
X282558Y185040D01*
X282558Y201040D01*
D15*
X265164Y181651D02*
X266732Y180083D01*
X265164Y181651D02*
X262029Y181651D01*
X260461Y180083D01*
X260461Y173813D01*
X262029Y172245D01*
X265164Y172245D01*
X266732Y173813D01*
X272952Y180083D02*
X276087Y181651D01*
X272952Y180083D02*
X269817Y176948D01*
X269817Y173813D01*
X271384Y172245D01*
X274520Y172245D01*
X276087Y173813D01*
X276087Y175380D01*
X274520Y176948D01*
X269817Y176948D01*
X279172Y180083D02*
X280739Y181651D01*
X283875Y181651D01*
X285443Y180083D01*
X285443Y178516D01*
X283875Y176948D01*
X285443Y175380D01*
X285443Y173813D01*
X283875Y172245D01*
X280739Y172245D01*
X279172Y173813D01*
X279172Y175380D01*
X280739Y176948D01*
X279172Y178516D01*
X279172Y180083D01*
X280739Y176948D02*
X283875Y176948D01*
D16*
X339770Y193100D02*
X345770Y193100D01*
X345770Y137100D01*
X339770Y137100D01*
X297770Y193100D02*
X291770Y193100D01*
X291770Y137100D01*
X297770Y137100D01*
D17*
X292914Y132002D02*
X292914Y125504D01*
X297246Y125504D01*
X299360Y129836D02*
X301525Y132002D01*
X301525Y125504D01*
X299360Y125504D02*
X303691Y125504D01*
X305805Y126587D02*
X305805Y130919D01*
X306888Y132002D01*
X309054Y132002D01*
X310137Y130919D01*
X310137Y126587D01*
X309054Y125504D01*
X306888Y125504D01*
X305805Y126587D01*
X310137Y130919D01*
D19*
X316346Y225232D02*
X330846Y225232D01*
X330846Y248732D01*
X316346Y248732D01*
X316346Y225232D01*
D15*
X316737Y224345D02*
X307331Y224345D01*
X307331Y229048D01*
X308899Y230616D01*
X312034Y230616D01*
X313602Y229048D01*
X313602Y224345D01*
X313602Y227481D02*
X316737Y230616D01*
X310466Y233701D02*
X307331Y236836D01*
X316737Y236836D01*
X316737Y233701D02*
X316737Y239971D01*
X315169Y243056D02*
X316737Y244623D01*
X316737Y247759D01*
X315169Y249327D01*
X308899Y249327D01*
X307331Y247759D01*
X307331Y244623D01*
X308899Y243056D01*
X310466Y243056D01*
X312034Y244623D01*
X312034Y249327D01*
D19*
X386192Y200456D02*
X400192Y200456D01*
X386192Y200456D02*
X386192Y174956D01*
X400192Y174956D01*
X400192Y200456D01*
D15*
X389671Y152114D02*
X388103Y150546D01*
X388103Y147411D01*
X389671Y145843D01*
X395941Y145843D01*
X397509Y147411D01*
X397509Y150546D01*
X395941Y152114D01*
X389671Y158334D02*
X388103Y161469D01*
X389671Y158334D02*
X392806Y155199D01*
X395941Y155199D01*
X397509Y156766D01*
X397509Y159902D01*
X395941Y161469D01*
X394374Y161469D01*
X392806Y159902D01*
X392806Y155199D01*
X389671Y167689D02*
X388103Y170825D01*
X389671Y167689D02*
X392806Y164554D01*
X395941Y164554D01*
X397509Y166121D01*
X397509Y169257D01*
X395941Y170825D01*
X394374Y170825D01*
X392806Y169257D01*
X392806Y164554D01*
D24*
X473860Y348720D02*
X473860Y377720D01*
X473860Y348720D02*
X460860Y348720D01*
X460860Y377720D01*
X473860Y377720D01*
D19*
X495670Y351470D02*
X510170Y351470D01*
X510170Y374970D01*
X495670Y374970D01*
X495670Y351470D01*
D15*
X513833Y351345D02*
X523239Y351345D01*
X513833Y351345D02*
X513833Y356048D01*
X515401Y357616D01*
X518536Y357616D01*
X520104Y356048D01*
X520104Y351345D01*
X520104Y354481D02*
X523239Y357616D01*
X523239Y360701D02*
X523239Y366971D01*
X523239Y360701D02*
X516968Y366971D01*
X515401Y366971D01*
X513833Y365404D01*
X513833Y362268D01*
X515401Y360701D01*
X515401Y370056D02*
X521671Y370056D01*
X515401Y370056D02*
X513833Y371623D01*
X513833Y374759D01*
X515401Y376327D01*
X521671Y376327D01*
X523239Y374759D01*
X523239Y371623D01*
X521671Y370056D01*
X515401Y376327D01*
D21*
X600180Y53700D02*
X600182Y53763D01*
X600188Y53825D01*
X600198Y53887D01*
X600211Y53949D01*
X600229Y54009D01*
X600250Y54068D01*
X600275Y54126D01*
X600304Y54182D01*
X600336Y54236D01*
X600371Y54288D01*
X600409Y54337D01*
X600451Y54385D01*
X600495Y54429D01*
X600543Y54471D01*
X600592Y54509D01*
X600644Y54544D01*
X600698Y54576D01*
X600754Y54605D01*
X600812Y54630D01*
X600871Y54651D01*
X600931Y54669D01*
X600993Y54682D01*
X601055Y54692D01*
X601117Y54698D01*
X601180Y54700D01*
X601243Y54698D01*
X601305Y54692D01*
X601367Y54682D01*
X601429Y54669D01*
X601489Y54651D01*
X601548Y54630D01*
X601606Y54605D01*
X601662Y54576D01*
X601716Y54544D01*
X601768Y54509D01*
X601817Y54471D01*
X601865Y54429D01*
X601909Y54385D01*
X601951Y54337D01*
X601989Y54288D01*
X602024Y54236D01*
X602056Y54182D01*
X602085Y54126D01*
X602110Y54068D01*
X602131Y54009D01*
X602149Y53949D01*
X602162Y53887D01*
X602172Y53825D01*
X602178Y53763D01*
X602180Y53700D01*
X602178Y53637D01*
X602172Y53575D01*
X602162Y53513D01*
X602149Y53451D01*
X602131Y53391D01*
X602110Y53332D01*
X602085Y53274D01*
X602056Y53218D01*
X602024Y53164D01*
X601989Y53112D01*
X601951Y53063D01*
X601909Y53015D01*
X601865Y52971D01*
X601817Y52929D01*
X601768Y52891D01*
X601716Y52856D01*
X601662Y52824D01*
X601606Y52795D01*
X601548Y52770D01*
X601489Y52749D01*
X601429Y52731D01*
X601367Y52718D01*
X601305Y52708D01*
X601243Y52702D01*
X601180Y52700D01*
X601117Y52702D01*
X601055Y52708D01*
X600993Y52718D01*
X600931Y52731D01*
X600871Y52749D01*
X600812Y52770D01*
X600754Y52795D01*
X600698Y52824D01*
X600644Y52856D01*
X600592Y52891D01*
X600543Y52929D01*
X600495Y52971D01*
X600451Y53015D01*
X600409Y53063D01*
X600371Y53112D01*
X600336Y53164D01*
X600304Y53218D01*
X600275Y53274D01*
X600250Y53332D01*
X600229Y53391D01*
X600211Y53451D01*
X600198Y53513D01*
X600188Y53575D01*
X600182Y53637D01*
X600180Y53700D01*
D16*
X577680Y41200D02*
X577680Y23650D01*
X651680Y23650D02*
X651680Y41200D01*
X579480Y41200D02*
X577680Y41200D01*
X649880Y41200D02*
X651680Y41200D01*
X577680Y900D02*
X577680Y-1800D01*
X651680Y-1800D02*
X651680Y900D01*
X651680Y-1800D02*
X577680Y-1800D01*
D14*
X576696Y57099D02*
X574745Y59050D01*
X576696Y57099D02*
X578647Y57099D01*
X580598Y59050D01*
X580598Y68806D01*
X578647Y68806D02*
X582549Y68806D01*
X590352Y66854D02*
X594254Y68806D01*
X590352Y66854D02*
X586450Y62952D01*
X586450Y59050D01*
X588401Y57099D01*
X592303Y57099D01*
X594254Y59050D01*
X594254Y61001D01*
X592303Y62952D01*
X586450Y62952D01*
D16*
X783971Y652780D02*
X927989Y652780D01*
X783971Y652780D02*
X783971Y497586D01*
X927989Y497586D01*
X927989Y652780D01*
D14*
X902950Y478707D02*
X904899Y476758D01*
X906848Y476758D01*
X908797Y478707D01*
X908797Y488452D01*
X906848Y488452D02*
X910746Y488452D01*
X914644Y488452D02*
X922440Y488452D01*
X922440Y486503D01*
X914644Y478707D01*
X914644Y476758D01*
D16*
X752729Y652780D02*
X608711Y652780D01*
X608711Y497586D01*
X752729Y497586D01*
X752729Y652780D01*
D14*
X727690Y478707D02*
X729639Y476758D01*
X731588Y476758D01*
X733537Y478707D01*
X733537Y488452D01*
X731588Y488452D02*
X735486Y488452D01*
X739384Y486503D02*
X741333Y488452D01*
X745231Y488452D01*
X747180Y486503D01*
X747180Y484554D01*
X745231Y482605D01*
X747180Y480656D01*
X747180Y478707D01*
X745231Y476758D01*
X741333Y476758D01*
X739384Y478707D01*
X739384Y480656D01*
X741333Y482605D01*
X739384Y484554D01*
X739384Y486503D01*
X741333Y482605D02*
X745231Y482605D01*
D25*
X97800Y185240D02*
X97800Y127240D01*
X97800Y185240D02*
X257800Y185240D01*
X257800Y127240D01*
X97800Y92240D02*
X97800Y-27760D01*
X257800Y-27760D01*
X257800Y92240D01*
D21*
X91800Y142240D02*
X91862Y142242D01*
X91923Y142248D01*
X91984Y142257D01*
X92044Y142270D01*
X92103Y142287D01*
X92161Y142308D01*
X92218Y142332D01*
X92273Y142359D01*
X92326Y142390D01*
X92378Y142424D01*
X92427Y142461D01*
X92474Y142501D01*
X92518Y142544D01*
X92559Y142589D01*
X92598Y142637D01*
X92634Y142688D01*
X92666Y142740D01*
X92695Y142794D01*
X92721Y142850D01*
X92743Y142908D01*
X92762Y142966D01*
X92777Y143026D01*
X92788Y143087D01*
X92796Y143148D01*
X92800Y143209D01*
X92800Y143271D01*
X92796Y143332D01*
X92788Y143393D01*
X92777Y143454D01*
X92762Y143514D01*
X92743Y143572D01*
X92721Y143630D01*
X92695Y143686D01*
X92666Y143740D01*
X92634Y143792D01*
X92598Y143843D01*
X92559Y143891D01*
X92518Y143936D01*
X92474Y143979D01*
X92427Y144019D01*
X92378Y144056D01*
X92326Y144090D01*
X92273Y144121D01*
X92218Y144148D01*
X92161Y144172D01*
X92103Y144193D01*
X92044Y144210D01*
X91984Y144223D01*
X91923Y144232D01*
X91862Y144238D01*
X91800Y144240D01*
X91738Y144238D01*
X91677Y144232D01*
X91616Y144223D01*
X91556Y144210D01*
X91497Y144193D01*
X91439Y144172D01*
X91382Y144148D01*
X91327Y144121D01*
X91274Y144090D01*
X91222Y144056D01*
X91173Y144019D01*
X91126Y143979D01*
X91082Y143936D01*
X91041Y143891D01*
X91002Y143843D01*
X90966Y143792D01*
X90934Y143740D01*
X90905Y143686D01*
X90879Y143630D01*
X90857Y143572D01*
X90838Y143514D01*
X90823Y143454D01*
X90812Y143393D01*
X90804Y143332D01*
X90800Y143271D01*
X90800Y143209D01*
X90804Y143148D01*
X90812Y143087D01*
X90823Y143026D01*
X90838Y142966D01*
X90857Y142908D01*
X90879Y142850D01*
X90905Y142794D01*
X90934Y142740D01*
X90966Y142688D01*
X91002Y142637D01*
X91041Y142589D01*
X91082Y142544D01*
X91126Y142501D01*
X91173Y142461D01*
X91222Y142424D01*
X91274Y142390D01*
X91327Y142359D01*
X91382Y142332D01*
X91439Y142308D01*
X91497Y142287D01*
X91556Y142270D01*
X91616Y142257D01*
X91677Y142248D01*
X91738Y142242D01*
X91800Y142240D01*
D14*
X92363Y189738D02*
X90414Y191687D01*
X92363Y189738D02*
X94312Y189738D01*
X96261Y191687D01*
X96261Y201432D01*
X94312Y201432D02*
X98210Y201432D01*
X102108Y191687D02*
X104057Y189738D01*
X107955Y189738D01*
X109904Y191687D01*
X109904Y199483D01*
X107955Y201432D01*
X104057Y201432D01*
X102108Y199483D01*
X102108Y197534D01*
X104057Y195585D01*
X109904Y195585D01*
D26*
X964960Y361360D03*
D14*
X971960Y355360D02*
X971960Y452360D01*
X927960Y452360D01*
X927960Y355360D01*
X971960Y355360D01*
D15*
X993097Y353956D02*
X994453Y352600D01*
X993097Y353956D02*
X990385Y353956D01*
X989030Y352600D01*
X989030Y347177D01*
X990385Y345821D01*
X993097Y345821D01*
X994453Y347177D01*
X1001283Y345821D02*
X1001283Y353956D01*
X997215Y349888D01*
X1002639Y349888D01*
X1005401Y351244D02*
X1008113Y353956D01*
X1008113Y345821D01*
X1010824Y345821D02*
X1005401Y345821D01*
X989450Y381211D02*
X990806Y382567D01*
X989450Y381211D02*
X989450Y378499D01*
X990806Y377144D01*
X996229Y377144D01*
X997585Y378499D01*
X997585Y381211D01*
X996229Y382567D01*
X997585Y389397D02*
X989450Y389397D01*
X993518Y385329D01*
X993518Y390753D01*
X990806Y393515D02*
X989450Y394871D01*
X989450Y397583D01*
X990806Y398938D01*
X992162Y398938D01*
X993518Y397583D01*
X993518Y396227D01*
X993518Y397583D02*
X994873Y398938D01*
X996229Y398938D01*
X997585Y397583D01*
X997585Y394871D01*
X996229Y393515D01*
X854245Y389684D02*
X852889Y391040D01*
X850177Y391040D01*
X848822Y389684D01*
X848822Y384261D01*
X850177Y382905D01*
X852889Y382905D01*
X854245Y384261D01*
X861075Y382905D02*
X861075Y391040D01*
X857007Y386972D01*
X862431Y386972D01*
X869261Y382905D02*
X869261Y391040D01*
X865193Y386972D01*
X870616Y386972D01*
X866270Y364370D02*
X867626Y363014D01*
X866270Y364370D02*
X863559Y364370D01*
X862203Y363014D01*
X862203Y357591D01*
X863559Y356235D01*
X866270Y356235D01*
X867626Y357591D01*
X874456Y356235D02*
X874456Y364370D01*
X870389Y360302D01*
X875812Y360302D01*
X881286Y363014D02*
X883998Y364370D01*
X881286Y363014D02*
X878575Y360302D01*
X878575Y357591D01*
X879930Y356235D01*
X882642Y356235D01*
X883998Y357591D01*
X883998Y358947D01*
X882642Y360302D01*
X878575Y360302D01*
X1041611Y367418D02*
X1042967Y366062D01*
X1041611Y367418D02*
X1038899Y367418D01*
X1037544Y366062D01*
X1037544Y360639D01*
X1038899Y359283D01*
X1041611Y359283D01*
X1042967Y360639D01*
X1049797Y359283D02*
X1049797Y367418D01*
X1045729Y363350D01*
X1051153Y363350D01*
X1053915Y367418D02*
X1059338Y367418D01*
X1059338Y366062D01*
X1053915Y360639D01*
X1053915Y359283D01*
X916559Y322961D02*
X908424Y322961D01*
X916559Y322961D02*
X916559Y328384D01*
X911136Y331147D02*
X908424Y333858D01*
X916559Y333858D01*
X916559Y331147D02*
X916559Y336570D01*
X989704Y317881D02*
X997839Y317881D01*
X997839Y323304D01*
X997839Y326067D02*
X997839Y331490D01*
X997839Y326067D02*
X992416Y331490D01*
X991060Y331490D01*
X989704Y330134D01*
X989704Y327423D01*
X991060Y326067D01*
X940524Y291640D02*
X939168Y292996D01*
X936457Y292996D01*
X935101Y291640D01*
X935101Y286217D01*
X936457Y284861D01*
X939168Y284861D01*
X940524Y286217D01*
X943287Y292996D02*
X948710Y292996D01*
X943287Y292996D02*
X943287Y288928D01*
X945998Y290284D01*
X947354Y290284D01*
X948710Y288928D01*
X948710Y286217D01*
X947354Y284861D01*
X944643Y284861D01*
X943287Y286217D01*
X951473Y291640D02*
X952828Y292996D01*
X955540Y292996D01*
X956896Y291640D01*
X956896Y290284D01*
X955540Y288928D01*
X956896Y287573D01*
X956896Y286217D01*
X955540Y284861D01*
X952828Y284861D01*
X951473Y286217D01*
X951473Y287573D01*
X952828Y288928D01*
X951473Y290284D01*
X951473Y291640D01*
X952828Y288928D02*
X955540Y288928D01*
D10*
X1849120Y60960D02*
X2001520Y60960D01*
X1849120Y60960D02*
X1849120Y124460D01*
X2001520Y124460D02*
X2001520Y60960D01*
X2001520Y48260D02*
X2014220Y48260D01*
X1836420Y48260D02*
X1836420Y137160D01*
X2014220Y137160D02*
X2014220Y48260D01*
X1856740Y124460D02*
X1849120Y124460D01*
X1905000Y116840D02*
X1945640Y116840D01*
X1945640Y124460D01*
X1905000Y124460D02*
X1905000Y116840D01*
X1905000Y124460D02*
X1905000Y127000D01*
X1849120Y48260D02*
X1849120Y45720D01*
X1861820Y45720D01*
X1861820Y48260D01*
X1849120Y48260D02*
X1836420Y48260D01*
X1918970Y45720D02*
X1931670Y45720D01*
X1918970Y45720D02*
X1918970Y48260D01*
X1861820Y48260D01*
X1931670Y48260D02*
X1931670Y45720D01*
X1988820Y45720D02*
X2001520Y45720D01*
X2001520Y48260D01*
X1988820Y48260D02*
X1988820Y45720D01*
X1988820Y48260D02*
X1931670Y48260D01*
X1865630Y137160D02*
X1836420Y137160D01*
X1865630Y137160D02*
X1883410Y137160D01*
X1905000Y137160D01*
X1945640Y137160D01*
X1955800Y137160D01*
X1856740Y127000D02*
X1856740Y124460D01*
X1892300Y124460D02*
X1905000Y124460D01*
X1892300Y124460D02*
X1892300Y127000D01*
X1892300Y124460D02*
X1856740Y124460D01*
X1861820Y132080D02*
X1865630Y137160D01*
X1883410Y137160D02*
X1887220Y132080D01*
X1892300Y132080D01*
D17*
X1892300Y127000D02*
X1856740Y127000D01*
X1892300Y127000D02*
X1905000Y127000D01*
D10*
X1905000Y137160D01*
D17*
X1856740Y127000D02*
X1846580Y127000D01*
X1846580Y58420D01*
X2004060Y58420D01*
X2004060Y127000D01*
X1968500Y127000D01*
D10*
X1856740Y127000D02*
X1856740Y132080D01*
X1861820Y132080D01*
X1892300Y132080D02*
X1892300Y127000D01*
X1887220Y132080D02*
X1861820Y132080D01*
X1971040Y137160D02*
X2014220Y137160D01*
X1971040Y137160D02*
X1971040Y135890D01*
X1955800Y135890D01*
X1955800Y137160D01*
X1945640Y132080D02*
X1945640Y127000D01*
X1968500Y127000D02*
X1968500Y132080D01*
D17*
X1968500Y127000D02*
X1945640Y127000D01*
D10*
X1945640Y124460D01*
X1968500Y124460D01*
X2001520Y124460D01*
X1968500Y124460D02*
X1968500Y127000D01*
X1945640Y132080D02*
X1945640Y137160D01*
X1957070Y132080D02*
X1968500Y132080D01*
X1957070Y132080D02*
X1945640Y132080D01*
X1955800Y137160D02*
X1957070Y132080D01*
D16*
X1919978Y132725D02*
X1918071Y130818D01*
X1919978Y132725D02*
X1923791Y132725D01*
X1925698Y130818D01*
X1925698Y128912D01*
X1923791Y127005D01*
X1925698Y125098D01*
X1925698Y123192D01*
X1923791Y121285D01*
X1919978Y121285D01*
X1918071Y123192D01*
X1918071Y125098D01*
X1919978Y127005D01*
X1918071Y128912D01*
X1918071Y130818D01*
X1919978Y127005D02*
X1923791Y127005D01*
X1977761Y107322D02*
X1981574Y111135D01*
X1981574Y99695D01*
X1977761Y99695D02*
X1985388Y99695D01*
X1985388Y74295D02*
X1977761Y74295D01*
X1985388Y81922D01*
X1985388Y83828D01*
X1983481Y85735D01*
X1979668Y85735D01*
X1977761Y83828D01*
D18*
X1965994Y27688D02*
X1968664Y25019D01*
X1971333Y25019D01*
X1974002Y27688D01*
X1974002Y41035D01*
X1971333Y41035D02*
X1976671Y41035D01*
X1982366Y41035D02*
X1982366Y25019D01*
X1982366Y41035D02*
X1990374Y41035D01*
X1993043Y38365D01*
X1993043Y33027D01*
X1990374Y30358D01*
X1982366Y30358D01*
X1998737Y38365D02*
X2001407Y41035D01*
X2006745Y41035D01*
X2009415Y38365D01*
X2009415Y35696D01*
X2006745Y33027D01*
X2004076Y33027D01*
X2006745Y33027D02*
X2009415Y30358D01*
X2009415Y27688D01*
X2006745Y25019D01*
X2001407Y25019D01*
X1998737Y27688D01*
D16*
X481090Y61022D02*
X362190Y61022D01*
X362190Y-30978D02*
X481090Y-30978D01*
X362190Y-30978D02*
X362190Y61022D01*
X481090Y61022D02*
X481090Y-30978D01*
D10*
X1704848Y141224D02*
X1704848Y219456D01*
X1701292Y219456D01*
X1597152Y219456D02*
X1597152Y141224D01*
X1600708Y141224D01*
X1701292Y141224D02*
X1704848Y141224D01*
X1600708Y219456D02*
X1597152Y219456D01*
D15*
X1600368Y135600D02*
X1592402Y127635D01*
X1592402Y135600D02*
X1600368Y127635D01*
X1596385Y127635D02*
X1596385Y135600D01*
X1600368Y131618D02*
X1592402Y131618D01*
X1569085Y215986D02*
X1569085Y225943D01*
X1569085Y215986D02*
X1571076Y213995D01*
X1575059Y213995D01*
X1577050Y215986D01*
X1577050Y225943D01*
X1580779Y225943D02*
X1588744Y225943D01*
X1580779Y225943D02*
X1580779Y219969D01*
X1584762Y221960D01*
X1586753Y221960D01*
X1588744Y219969D01*
X1588744Y215986D01*
X1586753Y213995D01*
X1582770Y213995D01*
X1580779Y215986D01*
X2796751Y113926D02*
X2798107Y112570D01*
X2796751Y113926D02*
X2794039Y113926D01*
X2792684Y112570D01*
X2792684Y107147D01*
X2794039Y105791D01*
X2796751Y105791D01*
X2798107Y107147D01*
X2803581Y112570D02*
X2806293Y113926D01*
X2803581Y112570D02*
X2800869Y109858D01*
X2800869Y107147D01*
X2802225Y105791D01*
X2804937Y105791D01*
X2806293Y107147D01*
X2806293Y108503D01*
X2804937Y109858D01*
X2800869Y109858D01*
X2809055Y112570D02*
X2810411Y113926D01*
X2813123Y113926D01*
X2814478Y112570D01*
X2814478Y111214D01*
X2813123Y109858D01*
X2811767Y109858D01*
X2813123Y109858D02*
X2814478Y108503D01*
X2814478Y107147D01*
X2813123Y105791D01*
X2810411Y105791D01*
X2809055Y107147D01*
D10*
X3033620Y124140D02*
X3033620Y62640D01*
X3012120Y145640D02*
X2972120Y145640D01*
X2950620Y124140D02*
X2950620Y62640D01*
X3033620Y62640D01*
X3033620Y124140D02*
X3012120Y145640D01*
X2972120Y145640D02*
X2950620Y124140D01*
X2990002Y52592D02*
X2992714Y49880D01*
X2990002Y52592D02*
X2984579Y52592D01*
X2981867Y49880D01*
X2981867Y39034D01*
X2984579Y36322D01*
X2990002Y36322D01*
X2992714Y39034D01*
X2998239Y36322D02*
X2998239Y52592D01*
X3006374Y52592D01*
X3009085Y49880D01*
X3009085Y44457D01*
X3006374Y41745D01*
X2998239Y41745D01*
X3014610Y47169D02*
X3020034Y52592D01*
X3020034Y36322D01*
X3025457Y36322D02*
X3014610Y36322D01*
D15*
X422608Y149568D02*
X421252Y148212D01*
X421252Y145501D01*
X422608Y144145D01*
X428031Y144145D01*
X429387Y145501D01*
X429387Y148212D01*
X428031Y149568D01*
X429387Y156398D02*
X421252Y156398D01*
X425320Y152331D01*
X425320Y157754D01*
X428031Y160517D02*
X422608Y160517D01*
X421252Y161872D01*
X421252Y164584D01*
X422608Y165940D01*
X428031Y165940D01*
X429387Y164584D01*
X429387Y161872D01*
X428031Y160517D01*
X422608Y165940D01*
D19*
X693028Y165288D02*
X707528Y165288D01*
X707528Y188788D01*
X693028Y188788D01*
X693028Y165288D01*
D15*
X691897Y165419D02*
X682491Y165419D01*
X682491Y170122D01*
X684059Y171690D01*
X687194Y171690D01*
X688762Y170122D01*
X688762Y165419D01*
X688762Y168554D02*
X691897Y171690D01*
X685626Y174774D02*
X682491Y177910D01*
X691897Y177910D01*
X691897Y181045D02*
X691897Y174774D01*
X682491Y184129D02*
X682491Y190400D01*
X682491Y184129D02*
X687194Y184129D01*
X685626Y187265D01*
X685626Y188832D01*
X687194Y190400D01*
X690329Y190400D01*
X691897Y188832D01*
X691897Y185697D01*
X690329Y184129D01*
M02*
