G04 EAGLE Gerber RS-274X export*
G75*
%MOMM*%
%FSLAX34Y34*%
%LPD*%
%INSoldermask Top*%
%IPPOS*%
%AMOC8*
5,1,8,0,0,1.08239X$1,22.5*%
G01*
%ADD10C,3.149600*%
%ADD11R,1.503200X1.703200*%
%ADD12R,0.803200X2.403200*%
%ADD13R,1.703200X1.503200*%
%ADD14R,1.803200X1.503200*%
%ADD15C,2.003200*%
%ADD16C,1.711200*%
%ADD17P,1.759533X8X202.500000*%
%ADD18R,1.676400X0.482600*%
%ADD19R,0.482600X1.676400*%
%ADD20R,1.503200X1.253200*%
%ADD21R,0.803200X1.103200*%
%ADD22R,1.003200X1.003200*%
%ADD23R,1.016000X0.508000*%
%ADD24R,0.508000X1.016000*%
%ADD25R,1.905000X1.905000*%
%ADD26P,1.635708X8X112.500000*%
%ADD27R,0.853200X1.253200*%
%ADD28R,0.685800X1.803400*%
%ADD29C,1.611200*%
%ADD30C,3.419200*%
%ADD31C,2.153200*%
%ADD32R,2.858200X2.858200*%
%ADD33R,1.203200X1.603200*%
%ADD34R,1.603200X1.203200*%
%ADD35R,0.762000X2.501900*%
%ADD36R,2.501900X0.762000*%
%ADD37R,1.103200X2.063200*%
%ADD38R,3.393200X2.063200*%
%ADD39R,1.043200X0.463200*%
%ADD40R,0.463200X1.043200*%
%ADD41R,1.103200X0.803200*%
%ADD42R,1.703200X0.703200*%
%ADD43R,1.603200X1.803200*%
%ADD44R,1.603200X1.833200*%
%ADD45R,4.000000X1.500000*%
%ADD46R,0.738200X1.028200*%
%ADD47R,0.738200X0.603200*%
%ADD48R,0.603200X1.553200*%
%ADD49C,1.261200*%
%ADD50R,1.703200X1.753200*%
%ADD51R,1.611200X1.611200*%
%ADD52C,1.733200*%
%ADD53C,2.603200*%
%ADD54C,3.453200*%
%ADD55R,1.753200X0.453200*%
%ADD56R,0.711200X2.197100*%
%ADD57R,1.103200X3.603200*%
%ADD58C,1.703200*%
%ADD59R,1.209600X1.209600*%

G36*
X650680Y3946D02*
X650680Y3946D01*
X650681Y3945D01*
X651793Y4071D01*
X651794Y4071D01*
X652851Y4441D01*
X652852Y4441D01*
X653800Y5037D01*
X653800Y5038D01*
X653801Y5038D01*
X654593Y5829D01*
X654593Y5830D01*
X655189Y6778D01*
X655189Y6779D01*
X655559Y7836D01*
X655559Y7837D01*
X655560Y7840D01*
X655560Y7844D01*
X655561Y7849D01*
X655561Y7854D01*
X655563Y7868D01*
X655563Y7873D01*
X655564Y7878D01*
X655564Y7882D01*
X655565Y7882D01*
X655564Y7882D01*
X655565Y7887D01*
X655566Y7892D01*
X655567Y7906D01*
X655568Y7911D01*
X655568Y7916D01*
X655569Y7920D01*
X655569Y7925D01*
X655570Y7930D01*
X655571Y7944D01*
X655572Y7949D01*
X655573Y7954D01*
X655573Y7958D01*
X655574Y7963D01*
X655574Y7968D01*
X655576Y7982D01*
X655576Y7987D01*
X655577Y7992D01*
X655577Y7996D01*
X655578Y8001D01*
X655579Y8015D01*
X655580Y8015D01*
X655579Y8015D01*
X655580Y8020D01*
X655581Y8025D01*
X655581Y8030D01*
X655582Y8034D01*
X655582Y8039D01*
X655584Y8053D01*
X655584Y8058D01*
X655585Y8063D01*
X655585Y8068D01*
X655586Y8072D01*
X655586Y8077D01*
X655588Y8091D01*
X655589Y8096D01*
X655589Y8101D01*
X655590Y8106D01*
X655590Y8110D01*
X655591Y8115D01*
X655592Y8129D01*
X655593Y8134D01*
X655593Y8139D01*
X655594Y8144D01*
X655594Y8148D01*
X655597Y8167D01*
X655597Y8172D01*
X655598Y8177D01*
X655598Y8182D01*
X655599Y8186D01*
X655600Y8201D01*
X655601Y8205D01*
X655601Y8210D01*
X655602Y8215D01*
X655602Y8220D01*
X655603Y8220D01*
X655602Y8220D01*
X655603Y8224D01*
X655605Y8239D01*
X655605Y8243D01*
X655606Y8248D01*
X655606Y8253D01*
X655607Y8258D01*
X655607Y8262D01*
X655609Y8277D01*
X655609Y8281D01*
X655610Y8286D01*
X655611Y8291D01*
X655611Y8296D01*
X655612Y8300D01*
X655613Y8315D01*
X655614Y8319D01*
X655614Y8324D01*
X655615Y8329D01*
X655615Y8334D01*
X655617Y8353D01*
X655618Y8353D01*
X655617Y8353D01*
X655618Y8357D01*
X655619Y8362D01*
X655619Y8367D01*
X655620Y8372D01*
X655621Y8386D01*
X655622Y8391D01*
X655622Y8395D01*
X655623Y8400D01*
X655623Y8405D01*
X655624Y8410D01*
X655626Y8424D01*
X655626Y8429D01*
X655627Y8433D01*
X655627Y8438D01*
X655628Y8443D01*
X655628Y8448D01*
X655630Y8462D01*
X655630Y8467D01*
X655631Y8471D01*
X655631Y8476D01*
X655632Y8481D01*
X655632Y8486D01*
X655634Y8500D01*
X655635Y8505D01*
X655635Y8509D01*
X655636Y8514D01*
X655636Y8519D01*
X655638Y8533D01*
X655638Y8538D01*
X655639Y8543D01*
X655639Y8547D01*
X655640Y8552D01*
X655640Y8557D01*
X655641Y8557D01*
X655640Y8557D01*
X655642Y8571D01*
X655643Y8576D01*
X655643Y8581D01*
X655644Y8585D01*
X655644Y8590D01*
X655645Y8595D01*
X655646Y8609D01*
X655647Y8614D01*
X655647Y8619D01*
X655648Y8623D01*
X655649Y8628D01*
X655649Y8633D01*
X655651Y8647D01*
X655651Y8652D01*
X655652Y8657D01*
X655652Y8661D01*
X655653Y8666D01*
X655655Y8685D01*
X655655Y8690D01*
X655656Y8690D01*
X655655Y8690D01*
X655656Y8695D01*
X655657Y8699D01*
X655657Y8704D01*
X655659Y8718D01*
X655659Y8723D01*
X655660Y8728D01*
X655660Y8733D01*
X655661Y8737D01*
X655661Y8742D01*
X655663Y8756D01*
X655664Y8761D01*
X655664Y8766D01*
X655665Y8771D01*
X655665Y8775D01*
X655666Y8780D01*
X655667Y8794D01*
X655668Y8799D01*
X655668Y8804D01*
X655669Y8809D01*
X655669Y8813D01*
X655670Y8818D01*
X655672Y8832D01*
X655672Y8837D01*
X655673Y8842D01*
X655673Y8847D01*
X655674Y8851D01*
X655676Y8870D01*
X655676Y8875D01*
X655677Y8880D01*
X655677Y8885D01*
X655678Y8889D01*
X655680Y8904D01*
X655680Y8908D01*
X655681Y8913D01*
X655681Y8918D01*
X655682Y8923D01*
X655682Y8927D01*
X655684Y8942D01*
X655684Y8946D01*
X655685Y8949D01*
X655685Y8950D01*
X655685Y16450D01*
X655685Y16451D01*
X655559Y17563D01*
X655559Y17564D01*
X655189Y18621D01*
X655189Y18622D01*
X654593Y19570D01*
X654592Y19570D01*
X654593Y19571D01*
X653801Y20363D01*
X653800Y20363D01*
X652852Y20959D01*
X652851Y20959D01*
X651794Y21329D01*
X651793Y21329D01*
X650681Y21455D01*
X650680Y21455D01*
X636680Y21455D01*
X636675Y21451D01*
X636676Y21450D01*
X636675Y21450D01*
X636675Y3950D01*
X636679Y3945D01*
X636680Y3946D01*
X636680Y3945D01*
X650680Y3945D01*
X650680Y3946D01*
G37*
G36*
X592685Y3949D02*
X592685Y3949D01*
X592684Y3950D01*
X592685Y3950D01*
X592685Y21450D01*
X592681Y21455D01*
X592680Y21454D01*
X592680Y21455D01*
X578680Y21455D01*
X578679Y21455D01*
X577567Y21329D01*
X577566Y21329D01*
X576509Y20959D01*
X576508Y20959D01*
X575560Y20363D01*
X575560Y20362D01*
X575559Y20363D01*
X574768Y19571D01*
X574767Y19570D01*
X574171Y18622D01*
X574171Y18621D01*
X573801Y17564D01*
X573801Y17563D01*
X573799Y17550D01*
X573799Y17545D01*
X573798Y17540D01*
X573798Y17536D01*
X573797Y17531D01*
X573795Y17517D01*
X573795Y17512D01*
X573794Y17507D01*
X573794Y17502D01*
X573793Y17498D01*
X573793Y17493D01*
X573791Y17479D01*
X573791Y17474D01*
X573790Y17469D01*
X573790Y17464D01*
X573789Y17460D01*
X573788Y17455D01*
X573787Y17441D01*
X573786Y17436D01*
X573786Y17431D01*
X573785Y17426D01*
X573785Y17422D01*
X573784Y17417D01*
X573783Y17403D01*
X573782Y17398D01*
X573782Y17393D01*
X573781Y17393D01*
X573782Y17393D01*
X573781Y17388D01*
X573780Y17384D01*
X573778Y17365D01*
X573778Y17360D01*
X573777Y17355D01*
X573777Y17350D01*
X573776Y17346D01*
X573775Y17331D01*
X573774Y17327D01*
X573773Y17322D01*
X573773Y17317D01*
X573772Y17312D01*
X573772Y17308D01*
X573770Y17293D01*
X573770Y17289D01*
X573769Y17284D01*
X573769Y17279D01*
X573768Y17274D01*
X573768Y17270D01*
X573766Y17255D01*
X573765Y17251D01*
X573765Y17246D01*
X573764Y17241D01*
X573764Y17236D01*
X573763Y17232D01*
X573762Y17217D01*
X573761Y17213D01*
X573761Y17208D01*
X573760Y17203D01*
X573760Y17198D01*
X573758Y17184D01*
X573757Y17179D01*
X573757Y17175D01*
X573756Y17170D01*
X573756Y17165D01*
X573755Y17160D01*
X573754Y17146D01*
X573753Y17141D01*
X573753Y17137D01*
X573752Y17132D01*
X573752Y17127D01*
X573751Y17122D01*
X573749Y17108D01*
X573749Y17103D01*
X573748Y17099D01*
X573748Y17094D01*
X573747Y17089D01*
X573747Y17084D01*
X573745Y17070D01*
X573745Y17065D01*
X573744Y17061D01*
X573744Y17056D01*
X573743Y17056D01*
X573744Y17056D01*
X573743Y17051D01*
X573741Y17032D01*
X573740Y17027D01*
X573740Y17023D01*
X573739Y17018D01*
X573739Y17013D01*
X573737Y16999D01*
X573737Y16994D01*
X573736Y16989D01*
X573735Y16985D01*
X573735Y16980D01*
X573734Y16975D01*
X573733Y16961D01*
X573732Y16956D01*
X573732Y16951D01*
X573731Y16947D01*
X573731Y16942D01*
X573730Y16937D01*
X573729Y16923D01*
X573728Y16923D01*
X573729Y16923D01*
X573728Y16918D01*
X573727Y16913D01*
X573727Y16909D01*
X573726Y16904D01*
X573726Y16899D01*
X573724Y16885D01*
X573724Y16880D01*
X573723Y16875D01*
X573723Y16871D01*
X573722Y16866D01*
X573720Y16847D01*
X573719Y16842D01*
X573719Y16837D01*
X573718Y16833D01*
X573718Y16828D01*
X573716Y16814D01*
X573716Y16809D01*
X573715Y16804D01*
X573715Y16799D01*
X573714Y16795D01*
X573714Y16790D01*
X573712Y16776D01*
X573711Y16771D01*
X573711Y16766D01*
X573710Y16761D01*
X573710Y16757D01*
X573709Y16752D01*
X573708Y16738D01*
X573707Y16733D01*
X573707Y16728D01*
X573706Y16723D01*
X573706Y16719D01*
X573705Y16719D01*
X573706Y16719D01*
X573705Y16714D01*
X573703Y16700D01*
X573703Y16695D01*
X573702Y16690D01*
X573702Y16685D01*
X573701Y16681D01*
X573700Y16666D01*
X573699Y16662D01*
X573699Y16657D01*
X573698Y16652D01*
X573697Y16647D01*
X573697Y16643D01*
X573695Y16628D01*
X573695Y16624D01*
X573694Y16619D01*
X573694Y16614D01*
X573693Y16609D01*
X573693Y16605D01*
X573691Y16590D01*
X573691Y16586D01*
X573690Y16586D01*
X573691Y16586D01*
X573690Y16581D01*
X573689Y16576D01*
X573689Y16571D01*
X573688Y16567D01*
X573687Y16552D01*
X573686Y16548D01*
X573686Y16543D01*
X573685Y16538D01*
X573685Y16533D01*
X573682Y16514D01*
X573682Y16510D01*
X573681Y16505D01*
X573681Y16500D01*
X573680Y16495D01*
X573679Y16481D01*
X573678Y16476D01*
X573678Y16472D01*
X573677Y16467D01*
X573677Y16462D01*
X573676Y16457D01*
X573675Y16451D01*
X573676Y16450D01*
X573675Y16450D01*
X573675Y8950D01*
X573676Y8950D01*
X573675Y8949D01*
X573801Y7837D01*
X573801Y7836D01*
X574171Y6779D01*
X574171Y6778D01*
X574767Y5830D01*
X574768Y5830D01*
X574768Y5829D01*
X575559Y5038D01*
X575560Y5037D01*
X576508Y4441D01*
X576509Y4441D01*
X577566Y4071D01*
X577567Y4071D01*
X578679Y3945D01*
X578680Y3946D01*
X578680Y3945D01*
X592680Y3945D01*
X592685Y3949D01*
G37*
D10*
X53340Y127000D03*
X53340Y584200D03*
X3736340Y127000D03*
X3736340Y584200D03*
D11*
X1664566Y450454D03*
X1683566Y450454D03*
D12*
X1691894Y411572D03*
X1679194Y411572D03*
X1666494Y411572D03*
X1653794Y411572D03*
X1653794Y359572D03*
X1666494Y359572D03*
X1679194Y359572D03*
X1691894Y359572D03*
D13*
X1635760Y411886D03*
X1635760Y430886D03*
D14*
X2919520Y110960D03*
X2919520Y90960D03*
D11*
X2875640Y120500D03*
X2894640Y120500D03*
X1874760Y451500D03*
X1893760Y451500D03*
D12*
X1901770Y411572D03*
X1889070Y411572D03*
X1876370Y411572D03*
X1863670Y411572D03*
X1863670Y359572D03*
X1876370Y359572D03*
X1889070Y359572D03*
X1901770Y359572D03*
D13*
X1843720Y416000D03*
X1843720Y435000D03*
D11*
X2083220Y450500D03*
X2102220Y450500D03*
D12*
X2111770Y411572D03*
X2099070Y411572D03*
X2086370Y411572D03*
X2073670Y411572D03*
X2073670Y359572D03*
X2086370Y359572D03*
X2099070Y359572D03*
X2111770Y359572D03*
D13*
X2052720Y421000D03*
X2052720Y440000D03*
D11*
X2298220Y453500D03*
X2317220Y453500D03*
D12*
X2326770Y411572D03*
X2314070Y411572D03*
X2301370Y411572D03*
X2288670Y411572D03*
X2288670Y359572D03*
X2301370Y359572D03*
X2314070Y359572D03*
X2326770Y359572D03*
D13*
X2273720Y422000D03*
X2273720Y441000D03*
D11*
X2506420Y453700D03*
X2525420Y453700D03*
D12*
X2536770Y411572D03*
X2524070Y411572D03*
X2511370Y411572D03*
X2498670Y411572D03*
X2498670Y359572D03*
X2511370Y359572D03*
X2524070Y359572D03*
X2536770Y359572D03*
D13*
X2482420Y420700D03*
X2482420Y439700D03*
D11*
X2728920Y454500D03*
X2747920Y454500D03*
D12*
X2757970Y411572D03*
X2745270Y411572D03*
X2732570Y411572D03*
X2719870Y411572D03*
X2719870Y359572D03*
X2732570Y359572D03*
X2745270Y359572D03*
X2757970Y359572D03*
D13*
X2702240Y420000D03*
X2702240Y439000D03*
D11*
X2930620Y452000D03*
X2949620Y452000D03*
D12*
X2960770Y411572D03*
X2948070Y411572D03*
X2935370Y411572D03*
X2922670Y411572D03*
X2922670Y359572D03*
X2935370Y359572D03*
X2948070Y359572D03*
X2960770Y359572D03*
D13*
X2905220Y420900D03*
X2905220Y439900D03*
D11*
X3141220Y452500D03*
X3160220Y452500D03*
D12*
X3169770Y411572D03*
X3157070Y411572D03*
X3144370Y411572D03*
X3131670Y411572D03*
X3131670Y359572D03*
X3144370Y359572D03*
X3157070Y359572D03*
X3169770Y359572D03*
D13*
X3111720Y419000D03*
X3111720Y438000D03*
D11*
X3356220Y452500D03*
X3375220Y452500D03*
D12*
X3383770Y411572D03*
X3371070Y411572D03*
X3358370Y411572D03*
X3345670Y411572D03*
X3345670Y359572D03*
X3358370Y359572D03*
X3371070Y359572D03*
X3383770Y359572D03*
D13*
X3327720Y421000D03*
X3327720Y440000D03*
D11*
X3574220Y450500D03*
X3593220Y450500D03*
D12*
X3603770Y411572D03*
X3591070Y411572D03*
X3578370Y411572D03*
X3565670Y411572D03*
X3565670Y359572D03*
X3578370Y359572D03*
X3591070Y359572D03*
X3603770Y359572D03*
D13*
X3547720Y420000D03*
X3547720Y439000D03*
D15*
X3167100Y113140D02*
X3167100Y95140D01*
X3132100Y95140D02*
X3132100Y113140D01*
D16*
X192640Y594360D03*
X142640Y594360D03*
X167640Y594360D03*
X192640Y531860D03*
X142640Y531860D03*
D13*
X127000Y460400D03*
X127000Y479400D03*
X243840Y528980D03*
X243840Y547980D03*
X162560Y460400D03*
X162560Y479400D03*
D17*
X769620Y402590D03*
X769620Y377190D03*
X744220Y402590D03*
X744220Y377190D03*
X718820Y402590D03*
X718820Y377190D03*
X693420Y402590D03*
X693420Y377190D03*
D18*
X735330Y289052D03*
X735330Y283972D03*
X735330Y278892D03*
X735330Y274066D03*
X735330Y268986D03*
X735330Y263906D03*
X735330Y259080D03*
X735330Y254000D03*
X735330Y248920D03*
X735330Y243840D03*
X735330Y239014D03*
X735330Y233934D03*
X735330Y228854D03*
X735330Y224028D03*
X735330Y218948D03*
X735330Y213868D03*
D19*
X754888Y194310D03*
X759968Y194310D03*
X765048Y194310D03*
X769874Y194310D03*
X774954Y194310D03*
X780034Y194310D03*
X784860Y194310D03*
X789940Y194310D03*
X795020Y194310D03*
X800100Y194310D03*
X804926Y194310D03*
X810006Y194310D03*
X815086Y194310D03*
X819912Y194310D03*
X824992Y194310D03*
X830072Y194310D03*
D18*
X849630Y213868D03*
X849630Y218948D03*
X849630Y224028D03*
X849630Y228854D03*
X849630Y233934D03*
X849630Y239014D03*
X849630Y243840D03*
X849630Y248920D03*
X849630Y254000D03*
X849630Y259080D03*
X849630Y263906D03*
X849630Y268986D03*
X849630Y274066D03*
X849630Y278892D03*
X849630Y283972D03*
X849630Y289052D03*
D19*
X830072Y308610D03*
X824992Y308610D03*
X819912Y308610D03*
X815086Y308610D03*
X810006Y308610D03*
X804926Y308610D03*
X800100Y308610D03*
X795020Y308610D03*
X789940Y308610D03*
X784860Y308610D03*
X780034Y308610D03*
X774954Y308610D03*
X769874Y308610D03*
X765048Y308610D03*
X759968Y308610D03*
X754888Y308610D03*
D20*
X877640Y192130D03*
X854640Y192130D03*
X854640Y173630D03*
X877640Y173630D03*
D21*
X686428Y258826D03*
X701428Y258826D03*
X694048Y275336D03*
X709048Y275336D03*
D22*
X716534Y229736D03*
X716534Y244736D03*
X700398Y296418D03*
X715398Y296418D03*
X823214Y154552D03*
X823214Y169552D03*
X762000Y162680D03*
X762000Y177680D03*
X871100Y300990D03*
X856100Y300990D03*
X727068Y179832D03*
X742068Y179832D03*
D23*
X809752Y147320D03*
X809752Y152400D03*
X809752Y157480D03*
X809752Y162560D03*
D24*
X802640Y169672D03*
X797560Y169672D03*
X792480Y169672D03*
X787400Y169672D03*
D23*
X780288Y162560D03*
X780288Y157480D03*
X780288Y152400D03*
X780288Y147320D03*
D24*
X787400Y140208D03*
X792480Y140208D03*
X797560Y140208D03*
X802640Y140208D03*
D25*
X795020Y154940D03*
D21*
X797680Y43180D03*
X812680Y43180D03*
X815220Y124460D03*
X800220Y124460D03*
D26*
X704540Y69850D03*
X724540Y69850D03*
X744540Y69850D03*
X764540Y69850D03*
X784540Y69850D03*
X804540Y69850D03*
X824540Y69850D03*
D27*
X760050Y145210D03*
X760050Y103710D03*
X738550Y145210D03*
X738550Y103710D03*
D28*
X3519170Y159131D03*
X3506470Y159131D03*
X3493770Y159131D03*
X3481070Y159131D03*
X3468370Y159131D03*
X3455670Y159131D03*
X3442970Y159131D03*
X3430270Y159131D03*
X3430270Y110109D03*
X3442970Y110109D03*
X3455670Y110109D03*
X3468370Y110109D03*
X3481070Y110109D03*
X3493770Y110109D03*
X3506470Y110109D03*
X3519170Y110109D03*
X3661410Y159131D03*
X3648710Y159131D03*
X3636010Y159131D03*
X3623310Y159131D03*
X3610610Y159131D03*
X3597910Y159131D03*
X3585210Y159131D03*
X3572510Y159131D03*
X3572510Y110109D03*
X3585210Y110109D03*
X3597910Y110109D03*
X3610610Y110109D03*
X3623310Y110109D03*
X3636010Y110109D03*
X3648710Y110109D03*
X3661410Y110109D03*
D29*
X1437640Y533654D03*
X1463040Y508254D03*
X1437640Y508254D03*
X1412240Y508254D03*
D30*
X1488440Y597154D03*
X1386840Y597154D03*
D31*
X334140Y591468D02*
X334140Y610968D01*
X369140Y610968D02*
X369140Y591468D01*
X404140Y591468D02*
X404140Y610968D01*
X439140Y610968D02*
X439140Y591468D01*
X474140Y591468D02*
X474140Y610968D01*
X509140Y610968D02*
X509140Y591468D01*
D32*
X1601796Y497088D03*
X1737796Y497088D03*
X1590796Y633088D03*
X1748796Y633088D03*
X1811854Y497088D03*
X1947854Y497088D03*
X1800854Y633088D03*
X1958854Y633088D03*
X2021912Y497088D03*
X2157912Y497088D03*
X2010912Y633088D03*
X2168912Y633088D03*
X2231970Y497088D03*
X2367970Y497088D03*
X2220970Y633088D03*
X2378970Y633088D03*
X2442028Y497088D03*
X2578028Y497088D03*
X2431028Y633088D03*
X2589028Y633088D03*
X2652086Y497088D03*
X2788086Y497088D03*
X2641086Y633088D03*
X2799086Y633088D03*
X2862144Y497088D03*
X2998144Y497088D03*
X2851144Y633088D03*
X3009144Y633088D03*
X3072202Y497088D03*
X3208202Y497088D03*
X3061202Y633088D03*
X3219202Y633088D03*
X3282260Y497088D03*
X3418260Y497088D03*
X3271260Y633088D03*
X3429260Y633088D03*
X3492318Y497088D03*
X3628318Y497088D03*
X3481318Y633088D03*
X3639318Y633088D03*
D29*
X1031240Y533654D03*
X1056640Y508254D03*
X1031240Y508254D03*
X1005840Y508254D03*
D30*
X1082040Y597154D03*
X980440Y597154D03*
D13*
X1338580Y385420D03*
X1338580Y366420D03*
D33*
X1386180Y381840D03*
X1367180Y381840D03*
X1376680Y359840D03*
D34*
X1511730Y461620D03*
X1511730Y442620D03*
X1533730Y452120D03*
D11*
X1409090Y368300D03*
X1428090Y368300D03*
D13*
X1475740Y469240D03*
X1475740Y450240D03*
X1383030Y422250D03*
X1383030Y403250D03*
X1441450Y450240D03*
X1441450Y469240D03*
D35*
X1474470Y323025D03*
X1487170Y323025D03*
X1499870Y323025D03*
X1512570Y323025D03*
X1525270Y323025D03*
X1537970Y323025D03*
X1550670Y323025D03*
X1563370Y323025D03*
X1563370Y413576D03*
X1550670Y413576D03*
X1537970Y413576D03*
X1525270Y413576D03*
X1512570Y413576D03*
X1499870Y413576D03*
X1487170Y413576D03*
X1474470Y413576D03*
D13*
X1338580Y310540D03*
X1338580Y329540D03*
X1422400Y310540D03*
X1422400Y329540D03*
X1442720Y428600D03*
X1442720Y409600D03*
D11*
X1490320Y271780D03*
X1471320Y271780D03*
X1196950Y449580D03*
X1177950Y449580D03*
D34*
X1188290Y401980D03*
X1188290Y420980D03*
X1166290Y411480D03*
D33*
X1282040Y298020D03*
X1263040Y298020D03*
X1272540Y276020D03*
D13*
X1186180Y377800D03*
X1186180Y358800D03*
D11*
X1269340Y340360D03*
X1250340Y340360D03*
X1242670Y412750D03*
X1223670Y412750D03*
X1251610Y373380D03*
X1270610Y373380D03*
D36*
X1125665Y316230D03*
X1125665Y303530D03*
X1125665Y290830D03*
X1125665Y278130D03*
X1125665Y265430D03*
X1125665Y252730D03*
X1125665Y240030D03*
X1125665Y227330D03*
X1216216Y227330D03*
X1216216Y240030D03*
X1216216Y252730D03*
X1216216Y265430D03*
X1216216Y278130D03*
X1216216Y290830D03*
X1216216Y303530D03*
X1216216Y316230D03*
D11*
X1100480Y403860D03*
X1119480Y403860D03*
X1100480Y434340D03*
X1119480Y434340D03*
X1231240Y339090D03*
X1212240Y339090D03*
D13*
X1079500Y297840D03*
X1079500Y316840D03*
X3540760Y118720D03*
X3540760Y99720D03*
X3677920Y108560D03*
X3677920Y89560D03*
X325120Y526440D03*
X325120Y545440D03*
X365760Y526440D03*
X365760Y545440D03*
X406400Y526440D03*
X406400Y545440D03*
X447040Y526440D03*
X447040Y545440D03*
X1417320Y428600D03*
X1417320Y409600D03*
D11*
X1228700Y363220D03*
X1209700Y363220D03*
D13*
X1051560Y297840D03*
X1051560Y316840D03*
D11*
X1489050Y246380D03*
X1470050Y246380D03*
X1617320Y99060D03*
X1598320Y99060D03*
X1617320Y73660D03*
X1598320Y73660D03*
X1622400Y257810D03*
X1603400Y257810D03*
X1622400Y283210D03*
X1603400Y283210D03*
D37*
X1470520Y98790D03*
X1493520Y98790D03*
X1516520Y98790D03*
D38*
X1493520Y160290D03*
D11*
X1538580Y73660D03*
X1519580Y73660D03*
X1473860Y73660D03*
X1492860Y73660D03*
D29*
X1206500Y533654D03*
X1231900Y508254D03*
X1206500Y508254D03*
X1181100Y508254D03*
D30*
X1257300Y597154D03*
X1155700Y597154D03*
D39*
X351446Y281754D03*
X351446Y276754D03*
X351446Y271754D03*
X351446Y266754D03*
X351446Y261754D03*
X351446Y256754D03*
X351446Y251754D03*
X351446Y246754D03*
X351446Y241754D03*
X351446Y236754D03*
X351446Y231754D03*
X351446Y226754D03*
D40*
X365946Y212254D03*
X370946Y212254D03*
X375946Y212254D03*
X380946Y212254D03*
X385946Y212254D03*
X390946Y212254D03*
X395946Y212254D03*
X400946Y212254D03*
X405946Y212254D03*
X410946Y212254D03*
X415946Y212254D03*
X420946Y212254D03*
D39*
X435446Y226754D03*
X435446Y231754D03*
X435446Y236754D03*
X435446Y241754D03*
X435446Y246754D03*
X435446Y251754D03*
X435446Y256754D03*
X435446Y261754D03*
X435446Y266754D03*
X435446Y271754D03*
X435446Y276754D03*
X435446Y281754D03*
D40*
X420946Y296254D03*
X415946Y296254D03*
X410946Y296254D03*
X405946Y296254D03*
X400946Y296254D03*
X395946Y296254D03*
X390946Y296254D03*
X385946Y296254D03*
X380946Y296254D03*
X375946Y296254D03*
X370946Y296254D03*
X365946Y296254D03*
D22*
X260738Y244094D03*
X245738Y244094D03*
X260738Y228854D03*
X245738Y228854D03*
D21*
X301378Y229362D03*
X286378Y229362D03*
D41*
X274574Y244214D03*
X274574Y259214D03*
X172466Y199764D03*
X172466Y214764D03*
X444246Y197492D03*
X444246Y182492D03*
X459740Y197492D03*
X459740Y182492D03*
D21*
X301632Y243840D03*
X286632Y243840D03*
X330842Y284226D03*
X315842Y284226D03*
X330842Y298704D03*
X315842Y298704D03*
D42*
X150368Y196152D03*
X150368Y204152D03*
D41*
X274574Y230258D03*
X274574Y215258D03*
X293624Y311030D03*
X293624Y296030D03*
X293370Y270122D03*
X293370Y285122D03*
D22*
X493148Y257556D03*
X478148Y257556D03*
D43*
X502728Y197948D03*
X502728Y239948D03*
D44*
X478728Y239948D03*
D43*
X478728Y197948D03*
D22*
X487546Y179832D03*
X502546Y179832D03*
D41*
X462534Y230498D03*
X462534Y245498D03*
D22*
X447294Y234830D03*
X447294Y219830D03*
X408432Y195714D03*
X408432Y180714D03*
X377444Y195460D03*
X377444Y180460D03*
X362204Y195714D03*
X362204Y180714D03*
X338328Y228480D03*
X338328Y213480D03*
X334144Y269494D03*
X319144Y269494D03*
D42*
X273558Y197040D03*
X273558Y189040D03*
D45*
X318770Y147600D03*
X318770Y182600D03*
D41*
X323596Y229482D03*
X323596Y244482D03*
D22*
X393192Y195206D03*
X393192Y180206D03*
D46*
X458185Y370820D03*
D47*
X458185Y353620D03*
X476535Y353620D03*
X476535Y372820D03*
D41*
X502920Y355720D03*
X502920Y370720D03*
D48*
X601680Y39700D03*
X608180Y39700D03*
X614680Y39700D03*
X621180Y39700D03*
X627680Y39700D03*
D49*
X594970Y39700D02*
X584390Y39700D01*
X634390Y39700D02*
X644970Y39700D01*
D50*
X604680Y12700D03*
X624680Y12700D03*
D29*
X855980Y533654D03*
X881380Y508254D03*
X855980Y508254D03*
X830580Y508254D03*
D30*
X906780Y597154D03*
X805180Y597154D03*
D29*
X680720Y533654D03*
X706120Y508254D03*
X680720Y508254D03*
X655320Y508254D03*
D30*
X731520Y597154D03*
X629920Y597154D03*
D51*
X133350Y143240D03*
D29*
X146050Y168640D03*
X158750Y143240D03*
X171450Y168640D03*
X184150Y143240D03*
X196850Y168640D03*
X209550Y143240D03*
X222250Y168640D03*
D52*
X114550Y28940D03*
X139950Y45940D03*
X215650Y28940D03*
X241050Y45940D03*
D53*
X99050Y110240D03*
X256550Y110240D03*
D54*
X120650Y79740D03*
X234950Y79740D03*
D55*
X977960Y358860D03*
X977960Y363860D03*
X977960Y368860D03*
X977960Y373860D03*
X977960Y378860D03*
X977960Y383860D03*
X977960Y388860D03*
X977960Y393860D03*
X977960Y398860D03*
X977960Y403860D03*
X977960Y408860D03*
X977960Y413860D03*
X977960Y418860D03*
X977960Y423860D03*
X977960Y428860D03*
X977960Y433860D03*
X977960Y438860D03*
X977960Y443860D03*
X977960Y448860D03*
X921960Y448860D03*
X921960Y443860D03*
X921960Y438860D03*
X921960Y433860D03*
X921960Y428860D03*
X921960Y423860D03*
X921960Y418860D03*
X921960Y413860D03*
X921960Y408860D03*
X921960Y403860D03*
X921960Y398860D03*
X921960Y393860D03*
X921960Y388860D03*
X921960Y383860D03*
X921960Y378860D03*
X921960Y373860D03*
X921960Y368860D03*
X921960Y363860D03*
X921960Y358860D03*
D11*
X1021690Y363220D03*
X1002690Y363220D03*
X1025500Y391160D03*
X1006500Y391160D03*
X879500Y398780D03*
X898500Y398780D03*
X874420Y373380D03*
X893420Y373380D03*
X1059790Y377190D03*
X1040790Y377190D03*
D13*
X929640Y323240D03*
X929640Y342240D03*
X980440Y323240D03*
X980440Y342240D03*
D11*
X945540Y302260D03*
X964540Y302260D03*
D17*
X1963420Y105410D03*
X1963420Y80010D03*
X1938020Y105410D03*
X1938020Y80010D03*
X1912620Y105410D03*
X1912620Y80010D03*
X1887220Y105410D03*
X1887220Y80010D03*
D31*
X456640Y58772D02*
X456640Y39272D01*
X421640Y39272D02*
X421640Y58772D01*
X386640Y58772D02*
X386640Y39272D01*
D56*
X1606550Y135573D03*
X1619250Y135573D03*
X1631950Y135573D03*
X1644650Y135573D03*
X1657350Y135573D03*
X1670050Y135573D03*
X1682750Y135573D03*
X1695450Y135573D03*
X1695450Y225108D03*
X1682750Y225108D03*
X1670050Y225108D03*
X1657350Y225108D03*
X1644650Y225108D03*
X1631950Y225108D03*
X1619250Y225108D03*
X1606550Y225108D03*
D13*
X2829560Y89560D03*
X2829560Y108560D03*
D57*
X2992120Y71640D03*
X2992120Y136640D03*
D13*
X425704Y175666D03*
X425704Y194666D03*
D41*
X700278Y169538D03*
X700278Y184538D03*
D58*
X369824Y115824D03*
D59*
X3060700Y83820D03*
X2778760Y58420D03*
X2910840Y68580D03*
X238760Y617220D03*
D58*
X319278Y213360D03*
M02*
