G04 EAGLE Gerber RS-274X export*
G75*
%MOMM*%
%FSLAX34Y34*%
%LPD*%
%INSoldermask Bottom*%
%IPPOS*%
%AMOC8*
5,1,8,0,0,1.08239X$1,22.5*%
G01*
%ADD10C,3.149600*%
%ADD11C,2.003200*%
%ADD12C,1.711200*%
%ADD13P,1.759533X8X202.500000*%
%ADD14P,1.635708X8X112.500000*%
%ADD15C,1.611200*%
%ADD16C,3.419200*%
%ADD17C,2.153200*%
%ADD18R,2.858200X2.858200*%
%ADD19C,1.261200*%
%ADD20R,1.611200X1.611200*%
%ADD21C,1.733200*%
%ADD22C,2.603200*%
%ADD23C,3.453200*%
%ADD24C,1.703200*%
%ADD25R,1.209600X1.209600*%


D10*
X53340Y127000D03*
X53340Y584200D03*
X3736340Y127000D03*
X3736340Y584200D03*
D11*
X3167100Y113140D02*
X3167100Y95140D01*
X3132100Y95140D02*
X3132100Y113140D01*
D12*
X192640Y594360D03*
X142640Y594360D03*
X167640Y594360D03*
X192640Y531860D03*
X142640Y531860D03*
D13*
X769620Y402590D03*
X769620Y377190D03*
X744220Y402590D03*
X744220Y377190D03*
X718820Y402590D03*
X718820Y377190D03*
X693420Y402590D03*
X693420Y377190D03*
D14*
X704540Y69850D03*
X724540Y69850D03*
X744540Y69850D03*
X764540Y69850D03*
X784540Y69850D03*
X804540Y69850D03*
X824540Y69850D03*
D15*
X1437640Y533654D03*
X1463040Y508254D03*
X1437640Y508254D03*
X1412240Y508254D03*
D16*
X1488440Y597154D03*
X1386840Y597154D03*
D17*
X334140Y591468D02*
X334140Y610968D01*
X369140Y610968D02*
X369140Y591468D01*
X404140Y591468D02*
X404140Y610968D01*
X439140Y610968D02*
X439140Y591468D01*
X474140Y591468D02*
X474140Y610968D01*
X509140Y610968D02*
X509140Y591468D01*
D18*
X1601796Y497088D03*
X1737796Y497088D03*
X1590796Y633088D03*
X1748796Y633088D03*
X1811854Y497088D03*
X1947854Y497088D03*
X1800854Y633088D03*
X1958854Y633088D03*
X2021912Y497088D03*
X2157912Y497088D03*
X2010912Y633088D03*
X2168912Y633088D03*
X2231970Y497088D03*
X2367970Y497088D03*
X2220970Y633088D03*
X2378970Y633088D03*
X2442028Y497088D03*
X2578028Y497088D03*
X2431028Y633088D03*
X2589028Y633088D03*
X2652086Y497088D03*
X2788086Y497088D03*
X2641086Y633088D03*
X2799086Y633088D03*
X2862144Y497088D03*
X2998144Y497088D03*
X2851144Y633088D03*
X3009144Y633088D03*
X3072202Y497088D03*
X3208202Y497088D03*
X3061202Y633088D03*
X3219202Y633088D03*
X3282260Y497088D03*
X3418260Y497088D03*
X3271260Y633088D03*
X3429260Y633088D03*
X3492318Y497088D03*
X3628318Y497088D03*
X3481318Y633088D03*
X3639318Y633088D03*
D15*
X1031240Y533654D03*
X1056640Y508254D03*
X1031240Y508254D03*
X1005840Y508254D03*
D16*
X1082040Y597154D03*
X980440Y597154D03*
D15*
X1206500Y533654D03*
X1231900Y508254D03*
X1206500Y508254D03*
X1181100Y508254D03*
D16*
X1257300Y597154D03*
X1155700Y597154D03*
D19*
X594970Y39700D02*
X584390Y39700D01*
X634390Y39700D02*
X644970Y39700D01*
D15*
X855980Y533654D03*
X881380Y508254D03*
X855980Y508254D03*
X830580Y508254D03*
D16*
X906780Y597154D03*
X805180Y597154D03*
D15*
X680720Y533654D03*
X706120Y508254D03*
X680720Y508254D03*
X655320Y508254D03*
D16*
X731520Y597154D03*
X629920Y597154D03*
D20*
X133350Y143240D03*
D15*
X146050Y168640D03*
X158750Y143240D03*
X171450Y168640D03*
X184150Y143240D03*
X196850Y168640D03*
X209550Y143240D03*
X222250Y168640D03*
D21*
X114550Y28940D03*
X139950Y45940D03*
X215650Y28940D03*
X241050Y45940D03*
D22*
X99050Y110240D03*
X256550Y110240D03*
D23*
X120650Y79740D03*
X234950Y79740D03*
D13*
X1963420Y105410D03*
X1963420Y80010D03*
X1938020Y105410D03*
X1938020Y80010D03*
X1912620Y105410D03*
X1912620Y80010D03*
X1887220Y105410D03*
X1887220Y80010D03*
D17*
X456640Y58772D02*
X456640Y39272D01*
X421640Y39272D02*
X421640Y58772D01*
X386640Y58772D02*
X386640Y39272D01*
D24*
X369824Y115824D03*
D25*
X3060700Y83820D03*
X2778760Y58420D03*
X2910840Y68580D03*
X238760Y617220D03*
D24*
X319278Y213360D03*
M02*
