G04 EAGLE Gerber RS-274X export*
G75*
%MOMM*%
%FSLAX34Y34*%
%LPD*%
%INSolderpaste Top*%
%IPPOS*%
%AMOC8*
5,1,8,0,0,1.08239X$1,22.5*%
G01*
%ADD10R,1.300000X1.500000*%
%ADD11R,0.600000X2.200000*%
%ADD12R,1.500000X1.300000*%
%ADD13R,1.600000X1.300000*%
%ADD14R,1.473200X0.279400*%
%ADD15R,0.279400X1.473200*%
%ADD16R,1.300000X1.050000*%
%ADD17R,0.600000X0.900000*%
%ADD18R,0.800000X0.800000*%
%ADD19R,0.812800X0.304800*%
%ADD20R,0.304800X0.812800*%
%ADD21R,1.701800X1.701800*%
%ADD22R,0.650000X1.050000*%
%ADD23R,0.482600X1.600200*%
%ADD24R,1.000000X1.400000*%
%ADD25R,1.400000X1.000000*%
%ADD26R,0.558800X2.298700*%
%ADD27R,2.298700X0.558800*%
%ADD28R,0.900000X1.860000*%
%ADD29R,3.190000X1.860000*%
%ADD30R,0.840000X0.260000*%
%ADD31R,0.260000X0.840000*%
%ADD32R,0.900000X0.600000*%
%ADD33R,1.500000X0.500000*%
%ADD34R,1.400000X1.600000*%
%ADD35R,1.400000X1.630000*%
%ADD36R,4.000000X1.500000*%
%ADD37R,0.535000X0.825000*%
%ADD38R,0.535000X0.400000*%
%ADD39C,0.000100*%
%ADD40R,0.400000X1.350000*%
%ADD41R,1.500000X1.550000*%
%ADD42R,1.550000X0.250000*%
%ADD43R,0.508000X1.993900*%
%ADD44R,0.900000X3.400000*%

G36*
X649680Y4946D02*
X649680Y4946D01*
X649681Y4945D01*
X650793Y5071D01*
X650794Y5071D01*
X651851Y5441D01*
X651852Y5441D01*
X652800Y6037D01*
X652800Y6038D01*
X652801Y6038D01*
X653593Y6829D01*
X653593Y6830D01*
X654189Y7778D01*
X654189Y7779D01*
X654559Y8836D01*
X654559Y8837D01*
X654560Y8840D01*
X654560Y8844D01*
X654561Y8849D01*
X654561Y8854D01*
X654563Y8868D01*
X654563Y8873D01*
X654564Y8878D01*
X654564Y8882D01*
X654565Y8882D01*
X654564Y8882D01*
X654565Y8887D01*
X654566Y8892D01*
X654567Y8906D01*
X654568Y8911D01*
X654568Y8916D01*
X654569Y8920D01*
X654569Y8925D01*
X654570Y8930D01*
X654571Y8944D01*
X654572Y8949D01*
X654573Y8954D01*
X654573Y8958D01*
X654574Y8963D01*
X654574Y8968D01*
X654576Y8982D01*
X654576Y8987D01*
X654577Y8992D01*
X654577Y8996D01*
X654578Y9001D01*
X654579Y9015D01*
X654580Y9015D01*
X654579Y9015D01*
X654580Y9020D01*
X654581Y9025D01*
X654581Y9030D01*
X654582Y9034D01*
X654582Y9039D01*
X654584Y9053D01*
X654584Y9058D01*
X654585Y9063D01*
X654585Y9068D01*
X654586Y9072D01*
X654586Y9077D01*
X654588Y9091D01*
X654589Y9096D01*
X654589Y9101D01*
X654590Y9106D01*
X654590Y9110D01*
X654591Y9115D01*
X654592Y9129D01*
X654593Y9134D01*
X654593Y9139D01*
X654594Y9144D01*
X654594Y9148D01*
X654597Y9167D01*
X654597Y9172D01*
X654598Y9177D01*
X654598Y9182D01*
X654599Y9186D01*
X654600Y9201D01*
X654601Y9205D01*
X654601Y9210D01*
X654602Y9215D01*
X654602Y9220D01*
X654603Y9220D01*
X654602Y9220D01*
X654603Y9224D01*
X654605Y9239D01*
X654605Y9243D01*
X654606Y9248D01*
X654606Y9253D01*
X654607Y9258D01*
X654607Y9262D01*
X654609Y9277D01*
X654609Y9281D01*
X654610Y9286D01*
X654611Y9291D01*
X654611Y9296D01*
X654612Y9300D01*
X654613Y9315D01*
X654614Y9319D01*
X654614Y9324D01*
X654615Y9329D01*
X654615Y9334D01*
X654617Y9353D01*
X654618Y9353D01*
X654617Y9353D01*
X654618Y9357D01*
X654619Y9362D01*
X654619Y9367D01*
X654620Y9372D01*
X654621Y9386D01*
X654622Y9391D01*
X654622Y9395D01*
X654623Y9400D01*
X654623Y9405D01*
X654624Y9410D01*
X654626Y9424D01*
X654626Y9429D01*
X654627Y9433D01*
X654627Y9438D01*
X654628Y9443D01*
X654628Y9448D01*
X654630Y9462D01*
X654630Y9467D01*
X654631Y9471D01*
X654631Y9476D01*
X654632Y9481D01*
X654632Y9486D01*
X654634Y9500D01*
X654635Y9505D01*
X654635Y9509D01*
X654636Y9514D01*
X654636Y9519D01*
X654638Y9533D01*
X654638Y9538D01*
X654639Y9543D01*
X654639Y9547D01*
X654640Y9552D01*
X654640Y9557D01*
X654641Y9557D01*
X654640Y9557D01*
X654642Y9571D01*
X654643Y9576D01*
X654643Y9581D01*
X654644Y9585D01*
X654644Y9590D01*
X654645Y9595D01*
X654646Y9609D01*
X654647Y9614D01*
X654647Y9619D01*
X654648Y9623D01*
X654649Y9628D01*
X654649Y9633D01*
X654651Y9647D01*
X654651Y9652D01*
X654652Y9657D01*
X654652Y9661D01*
X654653Y9666D01*
X654655Y9685D01*
X654655Y9690D01*
X654656Y9690D01*
X654655Y9690D01*
X654656Y9695D01*
X654657Y9699D01*
X654657Y9704D01*
X654659Y9718D01*
X654659Y9723D01*
X654660Y9728D01*
X654660Y9733D01*
X654661Y9737D01*
X654661Y9742D01*
X654663Y9756D01*
X654664Y9761D01*
X654664Y9766D01*
X654665Y9771D01*
X654665Y9775D01*
X654666Y9780D01*
X654667Y9794D01*
X654668Y9799D01*
X654668Y9804D01*
X654669Y9809D01*
X654669Y9813D01*
X654670Y9818D01*
X654672Y9832D01*
X654672Y9837D01*
X654673Y9842D01*
X654673Y9847D01*
X654674Y9851D01*
X654676Y9870D01*
X654676Y9875D01*
X654677Y9880D01*
X654677Y9885D01*
X654678Y9889D01*
X654680Y9904D01*
X654680Y9908D01*
X654681Y9913D01*
X654681Y9918D01*
X654682Y9923D01*
X654682Y9927D01*
X654684Y9942D01*
X654684Y9946D01*
X654685Y9949D01*
X654685Y9950D01*
X654685Y15450D01*
X654685Y15451D01*
X654559Y16563D01*
X654559Y16564D01*
X654189Y17621D01*
X654189Y17622D01*
X653593Y18570D01*
X653592Y18570D01*
X653593Y18571D01*
X652801Y19363D01*
X652800Y19363D01*
X651852Y19959D01*
X651851Y19959D01*
X650794Y20329D01*
X650793Y20329D01*
X649681Y20455D01*
X649680Y20455D01*
X637680Y20455D01*
X637675Y20451D01*
X637676Y20450D01*
X637675Y20450D01*
X637675Y4950D01*
X637679Y4945D01*
X637680Y4946D01*
X637680Y4945D01*
X649680Y4945D01*
X649680Y4946D01*
G37*
G36*
X591685Y4949D02*
X591685Y4949D01*
X591684Y4950D01*
X591685Y4950D01*
X591685Y20450D01*
X591681Y20455D01*
X591680Y20454D01*
X591680Y20455D01*
X579680Y20455D01*
X579679Y20455D01*
X578567Y20329D01*
X578566Y20329D01*
X577509Y19959D01*
X577508Y19959D01*
X576560Y19363D01*
X576560Y19362D01*
X576559Y19363D01*
X575768Y18571D01*
X575767Y18570D01*
X575171Y17622D01*
X575171Y17621D01*
X574801Y16564D01*
X574801Y16563D01*
X574800Y16555D01*
X574799Y16550D01*
X574799Y16545D01*
X574798Y16541D01*
X574798Y16536D01*
X574795Y16517D01*
X574795Y16512D01*
X574794Y16507D01*
X574794Y16503D01*
X574793Y16498D01*
X574792Y16484D01*
X574791Y16479D01*
X574791Y16474D01*
X574790Y16469D01*
X574790Y16465D01*
X574789Y16460D01*
X574787Y16446D01*
X574787Y16441D01*
X574786Y16436D01*
X574786Y16431D01*
X574785Y16427D01*
X574785Y16422D01*
X574783Y16408D01*
X574783Y16403D01*
X574782Y16398D01*
X574782Y16393D01*
X574781Y16389D01*
X574780Y16384D01*
X574779Y16370D01*
X574778Y16365D01*
X574778Y16360D01*
X574777Y16355D01*
X574777Y16351D01*
X574775Y16332D01*
X574774Y16327D01*
X574774Y16322D01*
X574773Y16322D01*
X574774Y16322D01*
X574773Y16317D01*
X574772Y16313D01*
X574771Y16298D01*
X574770Y16294D01*
X574770Y16289D01*
X574769Y16284D01*
X574769Y16279D01*
X574768Y16275D01*
X574767Y16260D01*
X574766Y16256D01*
X574765Y16251D01*
X574765Y16246D01*
X574764Y16241D01*
X574764Y16237D01*
X574762Y16222D01*
X574762Y16218D01*
X574761Y16213D01*
X574761Y16208D01*
X574760Y16203D01*
X574760Y16199D01*
X574758Y16184D01*
X574757Y16180D01*
X574757Y16175D01*
X574756Y16170D01*
X574756Y16165D01*
X574754Y16151D01*
X574754Y16146D01*
X574753Y16142D01*
X574753Y16137D01*
X574752Y16132D01*
X574752Y16127D01*
X574750Y16113D01*
X574749Y16108D01*
X574749Y16104D01*
X574748Y16099D01*
X574748Y16094D01*
X574747Y16089D01*
X574746Y16075D01*
X574745Y16070D01*
X574745Y16066D01*
X574744Y16061D01*
X574744Y16056D01*
X574743Y16051D01*
X574741Y16037D01*
X574741Y16032D01*
X574740Y16028D01*
X574740Y16023D01*
X574739Y16018D01*
X574737Y15999D01*
X574737Y15994D01*
X574736Y15990D01*
X574736Y15985D01*
X574735Y15985D01*
X574736Y15985D01*
X574735Y15980D01*
X574733Y15966D01*
X574733Y15961D01*
X574732Y15956D01*
X574732Y15952D01*
X574731Y15947D01*
X574731Y15942D01*
X574729Y15928D01*
X574729Y15923D01*
X574728Y15918D01*
X574727Y15914D01*
X574727Y15909D01*
X574726Y15904D01*
X574725Y15890D01*
X574724Y15885D01*
X574724Y15880D01*
X574723Y15876D01*
X574723Y15871D01*
X574722Y15866D01*
X574721Y15852D01*
X574720Y15852D01*
X574721Y15852D01*
X574720Y15847D01*
X574719Y15842D01*
X574719Y15838D01*
X574718Y15833D01*
X574716Y15814D01*
X574716Y15809D01*
X574715Y15804D01*
X574715Y15800D01*
X574714Y15795D01*
X574712Y15781D01*
X574712Y15776D01*
X574711Y15771D01*
X574711Y15766D01*
X574710Y15762D01*
X574710Y15757D01*
X574708Y15743D01*
X574708Y15738D01*
X574707Y15733D01*
X574707Y15728D01*
X574706Y15724D01*
X574706Y15719D01*
X574704Y15705D01*
X574703Y15700D01*
X574703Y15695D01*
X574702Y15690D01*
X574702Y15686D01*
X574701Y15681D01*
X574700Y15667D01*
X574699Y15662D01*
X574699Y15657D01*
X574698Y15652D01*
X574698Y15648D01*
X574697Y15648D01*
X574698Y15648D01*
X574696Y15633D01*
X574695Y15629D01*
X574695Y15624D01*
X574694Y15619D01*
X574694Y15614D01*
X574693Y15610D01*
X574692Y15595D01*
X574691Y15591D01*
X574691Y15586D01*
X574690Y15581D01*
X574689Y15576D01*
X574689Y15572D01*
X574687Y15557D01*
X574687Y15553D01*
X574686Y15548D01*
X574686Y15543D01*
X574685Y15538D01*
X574685Y15534D01*
X574683Y15519D01*
X574683Y15515D01*
X574682Y15515D01*
X574683Y15515D01*
X574682Y15510D01*
X574681Y15505D01*
X574681Y15500D01*
X574679Y15481D01*
X574678Y15477D01*
X574678Y15472D01*
X574677Y15467D01*
X574677Y15462D01*
X574675Y15451D01*
X574676Y15450D01*
X574675Y15450D01*
X574675Y9950D01*
X574676Y9950D01*
X574675Y9949D01*
X574801Y8837D01*
X574801Y8836D01*
X575171Y7779D01*
X575171Y7778D01*
X575767Y6830D01*
X575768Y6830D01*
X575768Y6829D01*
X576559Y6038D01*
X576560Y6037D01*
X577508Y5441D01*
X577509Y5441D01*
X578566Y5071D01*
X578567Y5071D01*
X579679Y4945D01*
X579680Y4946D01*
X579680Y4945D01*
X591680Y4945D01*
X591685Y4949D01*
G37*
%LPC*%
G36*
X649034Y7040D02*
X649034Y7040D01*
X648433Y7289D01*
X647916Y7686D01*
X647519Y8203D01*
X647270Y8804D01*
X647185Y9450D01*
X647185Y15950D01*
X647270Y16596D01*
X647519Y17198D01*
X647916Y17714D01*
X648433Y18111D01*
X649034Y18360D01*
X649680Y18445D01*
X650326Y18360D01*
X650928Y18111D01*
X651444Y17714D01*
X651841Y17198D01*
X652090Y16596D01*
X652175Y15950D01*
X652175Y9450D01*
X652139Y9178D01*
X652139Y9173D01*
X652138Y9169D01*
X652138Y9164D01*
X652137Y9159D01*
X652136Y9154D01*
X652136Y9150D01*
X652135Y9145D01*
X652134Y9140D01*
X652134Y9135D01*
X652133Y9131D01*
X652133Y9126D01*
X652132Y9121D01*
X652131Y9116D01*
X652131Y9112D01*
X652130Y9107D01*
X652129Y9102D01*
X652129Y9097D01*
X652128Y9093D01*
X652128Y9088D01*
X652127Y9083D01*
X652126Y9078D01*
X652126Y9074D01*
X652125Y9069D01*
X652124Y9064D01*
X652124Y9059D01*
X652123Y9055D01*
X652123Y9050D01*
X652122Y9045D01*
X652121Y9040D01*
X652121Y9036D01*
X652120Y9031D01*
X652090Y8804D01*
X651841Y8203D01*
X651444Y7686D01*
X650928Y7289D01*
X650326Y7040D01*
X649680Y6955D01*
X649034Y7040D01*
G37*
%LPD*%
%LPC*%
G36*
X579034Y7040D02*
X579034Y7040D01*
X578433Y7289D01*
X577916Y7686D01*
X577519Y8203D01*
X577270Y8804D01*
X577185Y9450D01*
X577185Y15950D01*
X577185Y15955D01*
X577186Y15955D01*
X577185Y15955D01*
X577186Y15960D01*
X577187Y15965D01*
X577187Y15969D01*
X577188Y15974D01*
X577189Y15979D01*
X577189Y15984D01*
X577190Y15988D01*
X577190Y15993D01*
X577191Y15993D01*
X577191Y15998D01*
X577192Y16003D01*
X577192Y16007D01*
X577193Y16012D01*
X577229Y16288D01*
X577230Y16292D01*
X577231Y16297D01*
X577231Y16302D01*
X577232Y16307D01*
X577232Y16311D01*
X577233Y16316D01*
X577234Y16321D01*
X577234Y16326D01*
X577235Y16330D01*
X577236Y16335D01*
X577236Y16340D01*
X577237Y16345D01*
X577237Y16349D01*
X577238Y16354D01*
X577239Y16359D01*
X577239Y16364D01*
X577240Y16368D01*
X577241Y16373D01*
X577241Y16378D01*
X577242Y16383D01*
X577242Y16387D01*
X577243Y16392D01*
X577244Y16397D01*
X577244Y16402D01*
X577245Y16406D01*
X577246Y16411D01*
X577246Y16416D01*
X577247Y16421D01*
X577247Y16425D01*
X577248Y16430D01*
X577249Y16435D01*
X577249Y16440D01*
X577270Y16596D01*
X577519Y17198D01*
X577916Y17714D01*
X578433Y18111D01*
X579034Y18360D01*
X579680Y18445D01*
X580326Y18360D01*
X580928Y18111D01*
X581444Y17714D01*
X581841Y17198D01*
X582090Y16596D01*
X582175Y15950D01*
X582175Y9450D01*
X582090Y8804D01*
X581841Y8203D01*
X581444Y7686D01*
X580928Y7289D01*
X580326Y7040D01*
X579680Y6955D01*
X579034Y7040D01*
G37*
%LPD*%
D10*
X1664566Y450454D03*
X1683566Y450454D03*
D11*
X1691894Y411572D03*
X1679194Y411572D03*
X1666494Y411572D03*
X1653794Y411572D03*
X1653794Y359572D03*
X1666494Y359572D03*
X1679194Y359572D03*
X1691894Y359572D03*
D12*
X1635760Y411886D03*
X1635760Y430886D03*
D13*
X2919520Y110960D03*
X2919520Y90960D03*
D10*
X2875640Y120500D03*
X2894640Y120500D03*
X1874760Y451500D03*
X1893760Y451500D03*
D11*
X1901770Y411572D03*
X1889070Y411572D03*
X1876370Y411572D03*
X1863670Y411572D03*
X1863670Y359572D03*
X1876370Y359572D03*
X1889070Y359572D03*
X1901770Y359572D03*
D12*
X1843720Y416000D03*
X1843720Y435000D03*
D10*
X2083220Y450500D03*
X2102220Y450500D03*
D11*
X2111770Y411572D03*
X2099070Y411572D03*
X2086370Y411572D03*
X2073670Y411572D03*
X2073670Y359572D03*
X2086370Y359572D03*
X2099070Y359572D03*
X2111770Y359572D03*
D12*
X2052720Y421000D03*
X2052720Y440000D03*
D10*
X2298220Y453500D03*
X2317220Y453500D03*
D11*
X2326770Y411572D03*
X2314070Y411572D03*
X2301370Y411572D03*
X2288670Y411572D03*
X2288670Y359572D03*
X2301370Y359572D03*
X2314070Y359572D03*
X2326770Y359572D03*
D12*
X2273720Y422000D03*
X2273720Y441000D03*
D10*
X2506420Y453700D03*
X2525420Y453700D03*
D11*
X2536770Y411572D03*
X2524070Y411572D03*
X2511370Y411572D03*
X2498670Y411572D03*
X2498670Y359572D03*
X2511370Y359572D03*
X2524070Y359572D03*
X2536770Y359572D03*
D12*
X2482420Y420700D03*
X2482420Y439700D03*
D10*
X2728920Y454500D03*
X2747920Y454500D03*
D11*
X2757970Y411572D03*
X2745270Y411572D03*
X2732570Y411572D03*
X2719870Y411572D03*
X2719870Y359572D03*
X2732570Y359572D03*
X2745270Y359572D03*
X2757970Y359572D03*
D12*
X2702240Y420000D03*
X2702240Y439000D03*
D10*
X2930620Y452000D03*
X2949620Y452000D03*
D11*
X2960770Y411572D03*
X2948070Y411572D03*
X2935370Y411572D03*
X2922670Y411572D03*
X2922670Y359572D03*
X2935370Y359572D03*
X2948070Y359572D03*
X2960770Y359572D03*
D12*
X2905220Y420900D03*
X2905220Y439900D03*
D10*
X3141220Y452500D03*
X3160220Y452500D03*
D11*
X3169770Y411572D03*
X3157070Y411572D03*
X3144370Y411572D03*
X3131670Y411572D03*
X3131670Y359572D03*
X3144370Y359572D03*
X3157070Y359572D03*
X3169770Y359572D03*
D12*
X3111720Y419000D03*
X3111720Y438000D03*
D10*
X3356220Y452500D03*
X3375220Y452500D03*
D11*
X3383770Y411572D03*
X3371070Y411572D03*
X3358370Y411572D03*
X3345670Y411572D03*
X3345670Y359572D03*
X3358370Y359572D03*
X3371070Y359572D03*
X3383770Y359572D03*
D12*
X3327720Y421000D03*
X3327720Y440000D03*
D10*
X3574220Y450500D03*
X3593220Y450500D03*
D11*
X3603770Y411572D03*
X3591070Y411572D03*
X3578370Y411572D03*
X3565670Y411572D03*
X3565670Y359572D03*
X3578370Y359572D03*
X3591070Y359572D03*
X3603770Y359572D03*
D12*
X3547720Y420000D03*
X3547720Y439000D03*
X127000Y460400D03*
X127000Y479400D03*
X243840Y528980D03*
X243840Y547980D03*
X162560Y460400D03*
X162560Y479400D03*
D14*
X735330Y289052D03*
X735330Y283972D03*
X735330Y278892D03*
X735330Y274066D03*
X735330Y268986D03*
X735330Y263906D03*
X735330Y259080D03*
X735330Y254000D03*
X735330Y248920D03*
X735330Y243840D03*
X735330Y239014D03*
X735330Y233934D03*
X735330Y228854D03*
X735330Y224028D03*
X735330Y218948D03*
X735330Y213868D03*
D15*
X754888Y194310D03*
X759968Y194310D03*
X765048Y194310D03*
X769874Y194310D03*
X774954Y194310D03*
X780034Y194310D03*
X784860Y194310D03*
X789940Y194310D03*
X795020Y194310D03*
X800100Y194310D03*
X804926Y194310D03*
X810006Y194310D03*
X815086Y194310D03*
X819912Y194310D03*
X824992Y194310D03*
X830072Y194310D03*
D14*
X849630Y213868D03*
X849630Y218948D03*
X849630Y224028D03*
X849630Y228854D03*
X849630Y233934D03*
X849630Y239014D03*
X849630Y243840D03*
X849630Y248920D03*
X849630Y254000D03*
X849630Y259080D03*
X849630Y263906D03*
X849630Y268986D03*
X849630Y274066D03*
X849630Y278892D03*
X849630Y283972D03*
X849630Y289052D03*
D15*
X830072Y308610D03*
X824992Y308610D03*
X819912Y308610D03*
X815086Y308610D03*
X810006Y308610D03*
X804926Y308610D03*
X800100Y308610D03*
X795020Y308610D03*
X789940Y308610D03*
X784860Y308610D03*
X780034Y308610D03*
X774954Y308610D03*
X769874Y308610D03*
X765048Y308610D03*
X759968Y308610D03*
X754888Y308610D03*
D16*
X877640Y192130D03*
X854640Y192130D03*
X854640Y173630D03*
X877640Y173630D03*
D17*
X686428Y258826D03*
X701428Y258826D03*
X694048Y275336D03*
X709048Y275336D03*
D18*
X716534Y229736D03*
X716534Y244736D03*
X700398Y296418D03*
X715398Y296418D03*
X823214Y154552D03*
X823214Y169552D03*
X762000Y162680D03*
X762000Y177680D03*
X871100Y300990D03*
X856100Y300990D03*
X727068Y179832D03*
X742068Y179832D03*
D19*
X809752Y147320D03*
X809752Y152400D03*
X809752Y157480D03*
X809752Y162560D03*
D20*
X802640Y169672D03*
X797560Y169672D03*
X792480Y169672D03*
X787400Y169672D03*
D19*
X780288Y162560D03*
X780288Y157480D03*
X780288Y152400D03*
X780288Y147320D03*
D20*
X787400Y140208D03*
X792480Y140208D03*
X797560Y140208D03*
X802640Y140208D03*
D21*
X795020Y154940D03*
D17*
X797680Y43180D03*
X812680Y43180D03*
X815220Y124460D03*
X800220Y124460D03*
D22*
X760050Y145210D03*
X760050Y103710D03*
X738550Y145210D03*
X738550Y103710D03*
D23*
X3519170Y159131D03*
X3506470Y159131D03*
X3493770Y159131D03*
X3481070Y159131D03*
X3468370Y159131D03*
X3455670Y159131D03*
X3442970Y159131D03*
X3430270Y159131D03*
X3430270Y110109D03*
X3442970Y110109D03*
X3455670Y110109D03*
X3468370Y110109D03*
X3481070Y110109D03*
X3493770Y110109D03*
X3506470Y110109D03*
X3519170Y110109D03*
X3661410Y159131D03*
X3648710Y159131D03*
X3636010Y159131D03*
X3623310Y159131D03*
X3610610Y159131D03*
X3597910Y159131D03*
X3585210Y159131D03*
X3572510Y159131D03*
X3572510Y110109D03*
X3585210Y110109D03*
X3597910Y110109D03*
X3610610Y110109D03*
X3623310Y110109D03*
X3636010Y110109D03*
X3648710Y110109D03*
X3661410Y110109D03*
D12*
X1338580Y385420D03*
X1338580Y366420D03*
D24*
X1386180Y381840D03*
X1367180Y381840D03*
X1376680Y359840D03*
D25*
X1511730Y461620D03*
X1511730Y442620D03*
X1533730Y452120D03*
D10*
X1409090Y368300D03*
X1428090Y368300D03*
D12*
X1475740Y469240D03*
X1475740Y450240D03*
X1383030Y422250D03*
X1383030Y403250D03*
X1441450Y450240D03*
X1441450Y469240D03*
D26*
X1474470Y323025D03*
X1487170Y323025D03*
X1499870Y323025D03*
X1512570Y323025D03*
X1525270Y323025D03*
X1537970Y323025D03*
X1550670Y323025D03*
X1563370Y323025D03*
X1563370Y413576D03*
X1550670Y413576D03*
X1537970Y413576D03*
X1525270Y413576D03*
X1512570Y413576D03*
X1499870Y413576D03*
X1487170Y413576D03*
X1474470Y413576D03*
D12*
X1338580Y310540D03*
X1338580Y329540D03*
X1422400Y310540D03*
X1422400Y329540D03*
X1442720Y428600D03*
X1442720Y409600D03*
D10*
X1490320Y271780D03*
X1471320Y271780D03*
X1196950Y449580D03*
X1177950Y449580D03*
D25*
X1188290Y401980D03*
X1188290Y420980D03*
X1166290Y411480D03*
D24*
X1282040Y298020D03*
X1263040Y298020D03*
X1272540Y276020D03*
D12*
X1186180Y377800D03*
X1186180Y358800D03*
D10*
X1269340Y340360D03*
X1250340Y340360D03*
X1242670Y412750D03*
X1223670Y412750D03*
X1251610Y373380D03*
X1270610Y373380D03*
D27*
X1125665Y316230D03*
X1125665Y303530D03*
X1125665Y290830D03*
X1125665Y278130D03*
X1125665Y265430D03*
X1125665Y252730D03*
X1125665Y240030D03*
X1125665Y227330D03*
X1216216Y227330D03*
X1216216Y240030D03*
X1216216Y252730D03*
X1216216Y265430D03*
X1216216Y278130D03*
X1216216Y290830D03*
X1216216Y303530D03*
X1216216Y316230D03*
D10*
X1100480Y403860D03*
X1119480Y403860D03*
X1100480Y434340D03*
X1119480Y434340D03*
X1231240Y339090D03*
X1212240Y339090D03*
D12*
X1079500Y297840D03*
X1079500Y316840D03*
X3540760Y118720D03*
X3540760Y99720D03*
X3677920Y108560D03*
X3677920Y89560D03*
X325120Y526440D03*
X325120Y545440D03*
X365760Y526440D03*
X365760Y545440D03*
X406400Y526440D03*
X406400Y545440D03*
X447040Y526440D03*
X447040Y545440D03*
X1417320Y428600D03*
X1417320Y409600D03*
D10*
X1228700Y363220D03*
X1209700Y363220D03*
D12*
X1051560Y297840D03*
X1051560Y316840D03*
D10*
X1489050Y246380D03*
X1470050Y246380D03*
X1617320Y99060D03*
X1598320Y99060D03*
X1617320Y73660D03*
X1598320Y73660D03*
X1622400Y257810D03*
X1603400Y257810D03*
X1622400Y283210D03*
X1603400Y283210D03*
D28*
X1470520Y98790D03*
X1493520Y98790D03*
X1516520Y98790D03*
D29*
X1493520Y160290D03*
D10*
X1538580Y73660D03*
X1519580Y73660D03*
X1473860Y73660D03*
X1492860Y73660D03*
D30*
X351446Y281754D03*
X351446Y276754D03*
X351446Y271754D03*
X351446Y266754D03*
X351446Y261754D03*
X351446Y256754D03*
X351446Y251754D03*
X351446Y246754D03*
X351446Y241754D03*
X351446Y236754D03*
X351446Y231754D03*
X351446Y226754D03*
D31*
X365946Y212254D03*
X370946Y212254D03*
X375946Y212254D03*
X380946Y212254D03*
X385946Y212254D03*
X390946Y212254D03*
X395946Y212254D03*
X400946Y212254D03*
X405946Y212254D03*
X410946Y212254D03*
X415946Y212254D03*
X420946Y212254D03*
D30*
X435446Y226754D03*
X435446Y231754D03*
X435446Y236754D03*
X435446Y241754D03*
X435446Y246754D03*
X435446Y251754D03*
X435446Y256754D03*
X435446Y261754D03*
X435446Y266754D03*
X435446Y271754D03*
X435446Y276754D03*
X435446Y281754D03*
D31*
X420946Y296254D03*
X415946Y296254D03*
X410946Y296254D03*
X405946Y296254D03*
X400946Y296254D03*
X395946Y296254D03*
X390946Y296254D03*
X385946Y296254D03*
X380946Y296254D03*
X375946Y296254D03*
X370946Y296254D03*
X365946Y296254D03*
D18*
X260738Y244094D03*
X245738Y244094D03*
X260738Y228854D03*
X245738Y228854D03*
D17*
X301378Y229362D03*
X286378Y229362D03*
D32*
X274574Y244214D03*
X274574Y259214D03*
X172466Y199764D03*
X172466Y214764D03*
X444246Y197492D03*
X444246Y182492D03*
X459740Y197492D03*
X459740Y182492D03*
D17*
X301632Y243840D03*
X286632Y243840D03*
X330842Y284226D03*
X315842Y284226D03*
X330842Y298704D03*
X315842Y298704D03*
D33*
X150368Y196152D03*
X150368Y204152D03*
D32*
X274574Y230258D03*
X274574Y215258D03*
X293624Y311030D03*
X293624Y296030D03*
X293370Y270122D03*
X293370Y285122D03*
D18*
X493148Y257556D03*
X478148Y257556D03*
D34*
X502728Y197948D03*
X502728Y239948D03*
D35*
X478728Y239948D03*
D34*
X478728Y197948D03*
D18*
X487546Y179832D03*
X502546Y179832D03*
D32*
X462534Y230498D03*
X462534Y245498D03*
D18*
X447294Y234830D03*
X447294Y219830D03*
X408432Y195714D03*
X408432Y180714D03*
X377444Y195460D03*
X377444Y180460D03*
X362204Y195714D03*
X362204Y180714D03*
X338328Y228480D03*
X338328Y213480D03*
X334144Y269494D03*
X319144Y269494D03*
D33*
X273558Y197040D03*
X273558Y189040D03*
D36*
X318770Y182600D03*
X318770Y147600D03*
D32*
X323596Y229482D03*
X323596Y244482D03*
D18*
X393192Y195206D03*
X393192Y180206D03*
D37*
X458185Y370820D03*
D38*
X458185Y353620D03*
X476535Y353620D03*
X476535Y372820D03*
D32*
X502920Y355720D03*
X502920Y370720D03*
D39*
X579680Y20400D02*
X579680Y18700D01*
X649680Y6700D02*
X649680Y5000D01*
D40*
X601680Y39700D03*
X608180Y39700D03*
X614680Y39700D03*
X621180Y39700D03*
X627680Y39700D03*
D41*
X604680Y12700D03*
X624680Y12700D03*
D42*
X977960Y358860D03*
X977960Y363860D03*
X977960Y368860D03*
X977960Y373860D03*
X977960Y378860D03*
X977960Y383860D03*
X977960Y388860D03*
X977960Y393860D03*
X977960Y398860D03*
X977960Y403860D03*
X977960Y408860D03*
X977960Y413860D03*
X977960Y418860D03*
X977960Y423860D03*
X977960Y428860D03*
X977960Y433860D03*
X977960Y438860D03*
X977960Y443860D03*
X977960Y448860D03*
X921960Y448860D03*
X921960Y443860D03*
X921960Y438860D03*
X921960Y433860D03*
X921960Y428860D03*
X921960Y423860D03*
X921960Y418860D03*
X921960Y413860D03*
X921960Y408860D03*
X921960Y403860D03*
X921960Y398860D03*
X921960Y393860D03*
X921960Y388860D03*
X921960Y383860D03*
X921960Y378860D03*
X921960Y373860D03*
X921960Y368860D03*
X921960Y363860D03*
X921960Y358860D03*
D10*
X1021690Y363220D03*
X1002690Y363220D03*
X1025500Y391160D03*
X1006500Y391160D03*
X879500Y398780D03*
X898500Y398780D03*
X874420Y373380D03*
X893420Y373380D03*
X1059790Y377190D03*
X1040790Y377190D03*
D12*
X929640Y323240D03*
X929640Y342240D03*
X980440Y323240D03*
X980440Y342240D03*
D10*
X945540Y302260D03*
X964540Y302260D03*
D43*
X1606550Y135573D03*
X1619250Y135573D03*
X1631950Y135573D03*
X1644650Y135573D03*
X1657350Y135573D03*
X1670050Y135573D03*
X1682750Y135573D03*
X1695450Y135573D03*
X1695450Y225108D03*
X1682750Y225108D03*
X1670050Y225108D03*
X1657350Y225108D03*
X1644650Y225108D03*
X1631950Y225108D03*
X1619250Y225108D03*
X1606550Y225108D03*
D12*
X2829560Y89560D03*
X2829560Y108560D03*
D44*
X2992120Y71640D03*
X2992120Y136640D03*
D12*
X425704Y175666D03*
X425704Y194666D03*
D32*
X700278Y169538D03*
X700278Y184538D03*
M02*
