M48
;GenerationSoftware,Autodesk,EAGLE,9.3.2*%
;CreationDate,2019-10-01T23:53:45Z*%
FMAT,2
ICI,OFF
METRIC,TZ,000.000
T19C0.381
T18C0.394
T17C0.406
T16C0.500
T15C0.550
T14C0.600
T13C0.800
T12C0.900
T11C0.914
T10C1.000
T9C1.020
T8C1.200
T7C1.300
T6C1.600
T5C1.770
T4C2.200
T3C2.946
T2C3.250
%
G90
M71
T2
X12065Y7974
X23495Y7974
T3
X5334Y12700
X5334Y58420
X373634Y12700
X373634Y58420
T4
X115570Y59715
X125730Y59715
X90678Y59715
X80518Y59715
X98044Y59715
X108204Y59715
X73152Y59715
X62992Y59715
X138684Y59715
X148844Y59715
T5
X265209Y49709
X258903Y63309
X278809Y49709
X264109Y63309
X279909Y63309
X286214Y49709
X299814Y49709
X348132Y63309
X285114Y63309
X300914Y63309
X307220Y49709
X320820Y49709
X306120Y63309
X321920Y63309
X328226Y49709
X341826Y49709
X327126Y63309
X342926Y63309
X349232Y49709
X362832Y49709
X215791Y49709
X363932Y63309
X160180Y49709
X173780Y49709
X159080Y63309
X174880Y63309
X181185Y49709
X194785Y49709
X180085Y63309
X195885Y63309
X202191Y49709
X201091Y63309
X216891Y63309
X223197Y49709
X236797Y49709
X222097Y63309
X237897Y63309
X244203Y49709
X257803Y49709
X243103Y63309
T6
X25655Y11024
X9905Y11024
T7
X38664Y4902
X33414Y60122
X36914Y60122
X40414Y60122
X43914Y60122
X47414Y60122
X50914Y60122
X45664Y4902
X42164Y4902
T8
X316710Y10414
X313210Y10414
T9
X11455Y2894
X13995Y4594
X21565Y2894
X24105Y4594
T10
X31928Y21336
X19264Y59436
X14264Y59436
X16764Y59436
X19264Y53186
X14264Y53186
X36982Y11582
T11
X71882Y40259
X188722Y8001
X188722Y10541
X191262Y8001
X191262Y10541
X193802Y8001
X193802Y10541
X196342Y8001
X196342Y10541
X69342Y37719
X69342Y40259
X76962Y40259
X76962Y37719
X74422Y40259
X74422Y37719
X71882Y37719
T12
X141224Y50825
X143764Y50825
X146304Y50825
X143764Y53365
X85598Y50825
X20955Y14324
X85598Y53365
X88138Y50825
X83058Y50825
X118110Y50825
X120650Y50825
X123190Y50825
X120650Y53365
X68072Y53365
X70612Y50825
X100584Y50825
X22225Y16864
X105664Y50825
X103124Y53365
X68072Y50825
X65532Y50825
X13335Y14324
X14605Y16864
X15875Y14324
X17145Y16864
X18415Y14324
X19685Y16864
X103124Y50825
T13
X80454Y6985
X72454Y6985
X70454Y6985
X82454Y6985
X78454Y6985
X76454Y6985
X74454Y6985
T14
X23876Y61722
X291084Y6858
X277876Y5842
X306070Y8382
T15
X58968Y3970
X63968Y3970
T16
X57968Y1270
X64968Y1270
T17
X29312Y26010
X97993Y45999
X45669Y21438
X99143Y29997
X98603Y28270
X18186Y22504
X27483Y26797
X27407Y20599
X96977Y24892
X82042Y25603
X99416Y43104
X44298Y36246
X55372Y31496
X24994Y35154
X25451Y37109
X35204Y21311
X41504Y27991
X39599Y23216
X50724Y25705
X47396Y17958
X24536Y27229
X43510Y29464
X83185Y21387
X78486Y21666
X77680Y23158
X79019Y23190
X27661Y18009
X55881Y30022
X83210Y32918
X40843Y16840
X81280Y33020
X70383Y19558
X99873Y33579
X90399Y36119
X30683Y27280
X42418Y25375
X38481Y16662
X23393Y32487
X37135Y16815
X33960Y24536
X31826Y35535
X27762Y34900
X29870Y35585
X28118Y30734
X26264Y31217
X24867Y31826
T18
X101600Y34798
X2032Y48006
X77089Y12719
X77705Y17018
X75692Y8382
X80721Y24282
X78359Y33198
X43180Y41402
X83820Y4318
X22352Y55118
X74676Y8890
X83268Y23666
X180315Y6502
X175235Y10058
X169139Y6502
X186919Y12598
X169647Y11582
X62992Y29718
X66040Y8890
X78715Y11811
X80092Y18028
X83383Y9402
X72644Y10922
X82804Y12446
X79600Y24375
X81854Y21590
X83312Y14243
X339852Y8890
X357124Y8890
X75184Y34011
X150876Y29718
X82463Y24438
X152908Y25146
X165608Y18542
X164039Y6224
X155448Y22098
X152400Y23114
X155448Y28702
X151892Y28702
X51638Y30169
X81788Y29210
X78143Y27178
X164592Y11430
X161036Y16002
X91440Y6350
X9652Y857
X144197Y4040
X152400Y18542
X152400Y15494
X146304Y15494
X146304Y18542
X144272Y33274
X97028Y28194
X100076Y31242
X136144Y25654
X142240Y19558
X110236Y19558
X106680Y28194
X78740Y36830
X163576Y8382
X88392Y14478
X87884Y8890
X104140Y11938
X120396Y10922
X85344Y36830
X88392Y30734
X84328Y30226
X52832Y35814
X104089Y40310
X105664Y35306
X95504Y34798
X94996Y41402
X29362Y31775
X36576Y25146
X79756Y25654
X59188Y20574
X105613Y40259
X89916Y33782
X90424Y5334
X165646Y11430
X196342Y28575
X196342Y14605
X168500Y31594
X167132Y24130
X51816Y38862
X163576Y20574
X79248Y27654
X163068Y11430
X75184Y28670
X66040Y26924
X78391Y25673
X67056Y25146
X62484Y34290
X199136Y14986
X73152Y41402
X38608Y56134
X80264Y32258
X35052Y56134
X30480Y51562
X80772Y28448
X93980Y38354
X110109Y25781
X149352Y44958
X145796Y43942
X154407Y39624
X149867Y34791
X72162Y34824
X126492Y31750
X124968Y35814
X113284Y40386
X122936Y38354
X88900Y22606
X105664Y23114
X89617Y21779
X106680Y22606
X92456Y25654
X144780Y38354
X356616Y32766
X186436Y33274
X207264Y33274
X228600Y33274
X249936Y33274
X271780Y33274
X292100Y33274
X312928Y33274
X334264Y33274
X341884Y17526
X165608Y32766
X367792Y7518
X361950Y9296
X355854Y10414
X367792Y20574
X355092Y17018
T19
X81077Y17399
X78740Y12954
M30